<svg xmlns="http://www.w3.org/2000/svg" xmlns:xlink="http://www.w3.org/1999/xlink" width="716" height="659" viewBox="0 0 716 659">
  <defs>
    <circle id="graph-exposant-b" cx="353" cy="297" r="151"/>
    <filter id="graph-exposant-a" width="124.5%" height="124.5%" x="-12.3%" y="-11.6%" filterUnits="objectBoundingBox">
      <feOffset dy="2" in="SourceAlpha" result="shadowOffsetOuter1"/>
      <feGaussianBlur in="shadowOffsetOuter1" result="shadowBlurOuter1" stdDeviation="12"/>
      <feColorMatrix in="shadowBlurOuter1" values="0 0 0 0 0   0 0 0 0 0   0 0 0 0 0  0 0 0 0.15271173 0"/>
    </filter>
  </defs>
  <g fill="none" fill-rule="evenodd" transform="translate(-14 -12)">
    <g transform="translate(14 48)">
      <use fill="#000" filter="url(#graph-exposant-a)" xlink:href="#graph-exposant-b"/>
      <circle cx="354" cy="268" r="176" fill="#FFF"/>
      <path fill="#2A2A2A" d="M2.20799869,0.2 L4.94399869,14.816 L7.65599869,0.2 L9.38399869,0.2 L6.23999869,17 L3.47999869,17 L0.311998686,0.2 L2.20799869,0.2 Z M13.1759988,0.2 L13.1759988,17 L11.3039988,17 L11.3039988,0.2 L13.1759988,0.2 Z M19.103999,0.032 C20.3840054,0.032 21.3279959,0.4119962 21.935999,1.172 C22.544002,1.9320038 22.847999,2.9519936 22.847999,4.232 L22.847999,4.688 L21.071999,4.688 L21.071999,4.136 C21.071999,3.36799616 20.9200005,2.77600208 20.615999,2.36 C20.3119974,1.94399792 19.8240023,1.736 19.151999,1.736 C18.4799956,1.736 17.9920005,1.94399792 17.687999,2.36 C17.3839974,2.77600208 17.231999,3.35999624 17.231999,4.112 C17.231999,4.73600312 17.3719976,5.27999768 17.651999,5.744 C17.9320004,6.20800232 18.2799969,6.63599804 18.695999,7.028 C19.112001,7.42000196 19.5639965,7.80399812 20.051999,8.18 C20.5400014,8.55600188 20.9919969,8.96799776 21.407999,9.416 C21.824001,9.86400224 22.1719976,10.3719972 22.451999,10.94 C22.7320004,11.5080028 22.871999,12.1839961 22.871999,12.968 C22.871999,14.2480064 22.564002,15.2679962 21.947999,16.028 C21.3319959,16.7880038 20.3760054,17.168 19.079999,17.168 C17.7839925,17.168 16.832002,16.7880038 16.223999,16.028 C15.6159959,15.2679962 15.311999,14.2480064 15.311999,12.968 L15.311999,12.008 L17.063999,12.008 L17.063999,13.064 C17.063999,13.8320038 17.2239974,14.4239979 17.543999,14.84 C17.8640006,15.2560021 18.3599956,15.464 19.031999,15.464 C19.7040023,15.464 20.1999974,15.2560021 20.519999,14.84 C20.8400006,14.4239979 20.999999,13.8320038 20.999999,13.064 C20.999999,12.4399969 20.8600004,11.9000023 20.579999,11.444 C20.2999976,10.9879977 19.952001,10.564002 19.535999,10.172 C19.1199969,9.77999804 18.6720014,9.39600188 18.191999,9.02 C17.7119966,8.64399812 17.264001,8.23200224 16.847999,7.784 C16.4319969,7.33599776 16.0840004,6.82800284 15.803999,6.26 C15.5239976,5.69199716 15.383999,5.01600392 15.383999,4.232 C15.383999,2.93599352 15.6879959,1.91200376 16.295999,1.16 C16.904002,0.40799624 17.8399926,0.032 19.103999,0.032 Z M26.8559991,0.2 L26.8559991,17 L24.9839991,17 L24.9839991,0.2 L26.8559991,0.2 Z M31.6799992,17 L31.6799992,1.904 L28.5839992,1.904 L28.5839992,0.2 L36.6239992,0.2 L36.6239992,1.904 L33.5279992,1.904 L33.5279992,17 L31.6799992,17 Z M44.3519994,7.64 L44.3519994,9.32 L40.2479994,9.32 L40.2479994,15.296 L45.2879994,15.296 L45.2879994,17 L38.3759994,17 L38.3759994,0.2 L45.2879994,0.2 L45.2879994,1.904 L40.2479994,1.904 L40.2479994,7.64 L44.3519994,7.64 Z M51.0239995,0.032 C52.3040059,0.032 53.2479965,0.4119962 53.8559995,1.172 C54.4640026,1.9320038 54.7679995,2.9519936 54.7679995,4.232 L54.7679995,4.688 L52.9919995,4.688 L52.9919995,4.136 C52.9919995,3.36799616 52.840001,2.77600208 52.5359995,2.36 C52.231998,1.94399792 51.7440029,1.736 51.0719995,1.736 C50.3999962,1.736 49.912001,1.94399792 49.6079995,2.36 C49.303998,2.77600208 49.1519995,3.35999624 49.1519995,4.112 C49.1519995,4.73600312 49.2919981,5.27999768 49.5719995,5.744 C49.8520009,6.20800232 50.1999974,6.63599804 50.6159995,7.028 C51.0320016,7.42000196 51.4839971,7.80399812 51.9719995,8.18 C52.460002,8.55600188 52.9119974,8.96799776 53.3279995,9.416 C53.7440016,9.86400224 54.0919981,10.3719972 54.3719995,10.94 C54.6520009,11.5080028 54.7919995,12.1839961 54.7919995,12.968 C54.7919995,14.2480064 54.4840026,15.2679962 53.8679995,16.028 C53.2519964,16.7880038 52.296006,17.168 50.9999995,17.168 C49.703993,17.168 48.7520026,16.7880038 48.1439995,16.028 C47.5359965,15.2679962 47.2319995,14.2480064 47.2319995,12.968 L47.2319995,12.008 L48.9839995,12.008 L48.9839995,13.064 C48.9839995,13.8320038 49.1439979,14.4239979 49.4639995,14.84 C49.7840011,15.2560021 50.2799962,15.464 50.9519995,15.464 C51.6240029,15.464 52.1199979,15.2560021 52.4399995,14.84 C52.7600011,14.4239979 52.9199995,13.8320038 52.9199995,13.064 C52.9199995,12.4399969 52.7800009,11.9000023 52.4999995,11.444 C52.2199981,10.9879977 51.8720016,10.564002 51.4559995,10.172 C51.0399974,9.77999804 50.5920019,9.39600188 50.1119995,9.02 C49.6319971,8.64399812 49.1840016,8.23200224 48.7679995,7.784 C48.3519974,7.33599776 48.0040009,6.82800284 47.7239995,6.26 C47.4439981,5.69199716 47.3039995,5.01600392 47.3039995,4.232 C47.3039995,2.93599352 47.6079965,1.91200376 48.2159995,1.16 C48.8240026,0.40799624 49.7599932,0.032 51.0239995,0.032 Z M60.9599998,4.256 C60.9599998,2.95999352 61.2759966,1.9320038 61.9079998,1.172 C62.540003,0.4119962 63.5039933,0.032 64.7999998,0.032 C66.0960063,0.032 67.0639966,0.4119962 67.7039998,1.172 C68.344003,1.9320038 68.6639998,2.95999352 68.6639998,4.256 L68.6639998,12.944 C68.6639998,14.2240064 68.344003,15.2479962 67.7039998,16.016 C67.0639966,16.7840038 66.0960063,17.168 64.7999998,17.168 C63.5039933,17.168 62.540003,16.7840038 61.9079998,16.016 C61.2759966,15.2479962 60.9599998,14.2240064 60.9599998,12.944 L60.9599998,4.256 Z M62.8079998,13.04 C62.8079998,13.8080038 62.9719982,14.4039979 63.2999998,14.828 C63.6280014,15.2520021 64.1279964,15.464 64.7999998,15.464 C65.4880032,15.464 65.9919982,15.2520021 66.3119998,14.828 C66.6320014,14.4039979 66.7919998,13.8080038 66.7919998,13.04 L66.7919998,4.16 C66.7919998,3.39199616 66.6320014,2.79600212 66.3119998,2.372 C65.9919982,1.94799788 65.4880032,1.736 64.7999998,1.736 C64.1279964,1.736 63.6280014,1.94799788 63.2999998,2.372 C62.9719982,2.79600212 62.8079998,3.39199616 62.8079998,4.16 L62.8079998,13.04 Z M76.6559999,8.024 L76.6559999,9.728 L72.7919999,9.728 L72.7919999,17 L70.9199999,17 L70.9199999,0.2 L77.5919999,0.2 L77.5919999,1.904 L72.7919999,1.904 L72.7919999,8.024 L76.6559999,8.024 Z M85.2960001,8.024 L85.2960001,9.728 L81.4320001,9.728 L81.4320001,17 L79.5600001,17 L79.5600001,0.2 L86.2320001,0.2 L86.2320001,1.904 L81.4320001,1.904 L81.4320001,8.024 L85.2960001,8.024 Z M90.0720002,0.2 L90.0720002,17 L88.2000002,17 L88.2000002,0.2 L90.0720002,0.2 Z M96.0960003,0.032 C97.3920068,0.032 98.3479973,0.41599616 98.9640003,1.184 C99.5800034,1.95200384 99.8880003,2.9759936 99.8880003,4.256 L99.8880003,5.768 L98.1120003,5.768 L98.1120003,4.16 C98.1120003,3.39199616 97.9560019,2.79600212 97.6440003,2.372 C97.3319988,1.94799788 96.8320038,1.736 96.1440003,1.736 C95.471997,1.736 94.9760019,1.94799788 94.6560003,2.372 C94.3359987,2.79600212 94.1760003,3.39199616 94.1760003,4.16 L94.1760003,13.04 C94.1760003,13.8080038 94.3359987,14.4039979 94.6560003,14.828 C94.9760019,15.2520021 95.471997,15.464 96.1440003,15.464 C96.8320038,15.464 97.3319988,15.2520021 97.6440003,14.828 C97.9560019,14.4039979 98.1120003,13.8080038 98.1120003,13.04 L98.1120003,10.856 L99.8880003,10.856 L99.8880003,12.944 C99.8880003,14.2240064 99.5800034,15.2479962 98.9640003,16.016 C98.3479973,16.7840038 97.3920068,17.168 96.0960003,17.168 C94.8159939,17.168 93.8680034,16.7840038 93.2520003,16.016 C92.6359973,15.2479962 92.3280003,14.2240064 92.3280003,12.944 L92.3280003,4.256 C92.3280003,3.6159968 92.4039996,3.0360026 92.5560003,2.516 C92.7080011,1.9959974 92.9399988,1.55200184 93.2520003,1.184 C93.5640019,0.81599816 93.955998,0.532001 94.4280003,0.332 C94.9000027,0.131999 95.4559971,0.032 96.0960003,0.032 Z M103.944,0.2 L103.944,17 L102.072,17 L102.072,0.2 L103.944,0.2 Z M112.320001,7.64 L112.320001,9.32 L108.216001,9.32 L108.216001,15.296 L113.256001,15.296 L113.256001,17 L106.344001,17 L106.344001,0.2 L113.256001,0.2 L113.256001,1.904 L108.216001,1.904 L108.216001,7.64 L112.320001,7.64 Z M115.464001,17 L115.464001,0.2 L117.336001,0.2 L117.336001,15.296 L122.136001,15.296 L122.136001,17 L115.464001,17 Z M124.032001,17 L124.032001,0.2 L125.904001,0.2 L125.904001,15.296 L130.704001,15.296 L130.704001,17 L124.032001,17 Z M138.576001,7.64 L138.576001,9.32 L134.472001,9.32 L134.472001,15.296 L139.512001,15.296 L139.512001,17 L132.600001,17 L132.600001,0.2 L139.512001,0.2 L139.512001,1.904 L134.472001,1.904 L134.472001,7.64 L138.576001,7.64 Z M145.248001,0.032 C146.528008,0.032 147.471998,0.4119962 148.080001,1.172 C148.688004,1.9320038 148.992001,2.9519936 148.992001,4.232 L148.992001,4.688 L147.216001,4.688 L147.216001,4.136 C147.216001,3.36799616 147.064003,2.77600208 146.760001,2.36 C146.456,1.94399792 145.968005,1.736 145.296001,1.736 C144.623998,1.736 144.136003,1.94399792 143.832001,2.36 C143.528,2.77600208 143.376001,3.35999624 143.376001,4.112 C143.376001,4.73600312 143.516,5.27999768 143.796001,5.744 C144.076003,6.20800232 144.423999,6.63599804 144.840001,7.028 C145.256003,7.42000196 145.707999,7.80399812 146.196001,8.18 C146.684004,8.55600188 147.135999,8.96799776 147.552001,9.416 C147.968003,9.86400224 148.316,10.3719972 148.596001,10.94 C148.876003,11.5080028 149.016001,12.1839961 149.016001,12.968 C149.016001,14.2480064 148.708004,15.2679962 148.092001,16.028 C147.475998,16.7880038 146.520008,17.168 145.224001,17.168 C143.927995,17.168 142.976004,16.7880038 142.368001,16.028 C141.759998,15.2679962 141.456001,14.2480064 141.456001,12.968 L141.456001,12.008 L143.208001,12.008 L143.208001,13.064 C143.208001,13.8320038 143.368,14.4239979 143.688001,14.84 C144.008003,15.2560021 144.503998,15.464 145.176001,15.464 C145.848005,15.464 146.344,15.2560021 146.664001,14.84 C146.984003,14.4239979 147.144001,13.8320038 147.144001,13.064 C147.144001,12.4399969 147.004003,11.9000023 146.724001,11.444 C146.444,10.9879977 146.096003,10.564002 145.680001,10.172 C145.263999,9.77999804 144.816004,9.39600188 144.336001,9.02 C143.855999,8.64399812 143.408003,8.23200224 142.992001,7.784 C142.575999,7.33599776 142.228003,6.82800284 141.948001,6.26 C141.668,5.69199716 141.528001,5.01600392 141.528001,4.232 C141.528001,2.93599352 141.831998,1.91200376 142.440001,1.16 C143.048004,0.40799624 143.983995,0.032 145.248001,0.032 Z" transform="translate(278 17)"/>
      <path fill="#2A2A2A" d="M21.8719992,4.2 C23.1840058,4.2 24.1479962,4.57199628 24.7639992,5.316 C25.3800023,6.06000372 25.6879992,7.07999352 25.6879992,8.376 L25.6879992,16.848 C25.6879992,18.1440065 25.3800023,19.1599963 24.7639992,19.896 C24.1479962,20.6320037 23.1840058,21 21.8719992,21 L17.9359992,21 L17.9359992,4.2 L21.8719992,4.2 Z M21.8479992,19.296 C22.5200026,19.296 23.0199976,19.092002 23.3479992,18.684 C23.6760009,18.275998 23.8399992,17.6880038 23.8399992,16.92 L23.8399992,8.28 C23.8399992,7.51199616 23.6760009,6.92400204 23.3479992,6.516 C23.0199976,6.10799796 22.5120027,5.904 21.8239992,5.904 L19.8079992,5.904 L19.8079992,19.296 L21.8479992,19.296 Z M33.7519994,0.792 L31.5199994,3.264 L30.2239994,3.264 L31.9039994,0.792 L33.7519994,0.792 Z M33.8959994,11.64 L33.8959994,13.32 L29.7919994,13.32 L29.7919994,19.296 L34.8319994,19.296 L34.8319994,21 L27.9199994,21 L27.9199994,4.2 L34.8319994,4.2 L34.8319994,5.904 L29.7919994,5.904 L29.7919994,11.64 L33.8959994,11.64 Z M37.0399995,21 L37.0399995,4.2 L38.9119995,4.2 L38.9119995,19.296 L43.7119995,19.296 L43.7119995,21 L37.0399995,21 Z M51.4399997,0.792 L49.2079997,3.264 L47.9119997,3.264 L49.5919997,0.792 L51.4399997,0.792 Z M51.5839997,11.64 L51.5839997,13.32 L47.4799997,13.32 L47.4799997,19.296 L52.5199997,19.296 L52.5199997,21 L45.6079997,21 L45.6079997,4.2 L52.5199997,4.2 L52.5199997,5.904 L47.4799997,5.904 L47.4799997,11.64 L51.5839997,11.64 Z M58.3519998,4.032 C59.6480063,4.032 60.6039967,4.41599616 61.2199998,5.184 C61.8360029,5.95200384 62.1439998,6.9759936 62.1439998,8.256 L62.1439998,9.696 L60.3679998,9.696 L60.3679998,8.16 C60.3679998,7.39199616 60.2120014,6.79600212 59.8999998,6.372 C59.5879982,5.94799788 59.0880032,5.736 58.3999998,5.736 C57.7279964,5.736 57.2320014,5.94799788 56.9119998,6.372 C56.5919982,6.79600212 56.4319998,7.39199616 56.4319998,8.16 L56.4319998,17.04 C56.4319998,17.8080038 56.5919982,18.4039979 56.9119998,18.828 C57.2320014,19.2520021 57.7279964,19.464 58.3999998,19.464 C59.0880032,19.464 59.5879982,19.2520021 59.8999998,18.828 C60.2120014,18.4039979 60.3679998,17.8080038 60.3679998,17.04 L60.3679998,13.68 L58.6399998,13.68 L58.6399998,12 L62.1439998,12 L62.1439998,16.944 C62.1439998,18.2240064 61.8360029,19.2479962 61.2199998,20.016 C60.6039967,20.7840038 59.6480063,21.168 58.3519998,21.168 C57.0719934,21.168 56.1240029,20.7840038 55.5079998,20.016 C54.8919967,19.2479962 54.5839998,18.2240064 54.5839998,16.944 L54.5839998,8.256 C54.5839998,7.6159968 54.659999,7.0360026 54.8119998,6.516 C54.9640006,5.9959974 55.1959982,5.55200184 55.5079998,5.184 C55.8200014,4.81599816 56.2119974,4.532001 56.6839998,4.332 C57.1560022,4.131999 57.7119966,4.032 58.3519998,4.032 Z M66.2719999,17.616 L65.6239999,21 L63.8959999,21 L67.1119999,4.2 L69.8239999,4.2 L73.0399999,21 L71.1679999,21 L70.5199999,17.616 L66.2719999,17.616 Z M66.5119999,16.008 L70.2559999,16.008 L68.3599999,6.312 L66.5119999,16.008 Z M76.4960001,21 L76.4960001,5.904 L73.4000001,5.904 L73.4000001,4.2 L81.4400001,4.2 L81.4400001,5.904 L78.3440001,5.904 L78.3440001,21 L76.4960001,21 Z M85.0640002,4.2 L85.0640002,21 L83.1920002,21 L83.1920002,4.2 L85.0640002,4.2 Z M87.3200003,8.256 C87.3200003,6.95999352 87.6359972,5.9320038 88.2680003,5.172 C88.9000035,4.4119962 89.8639939,4.032 91.1600003,4.032 C92.4560068,4.032 93.4239971,4.4119962 94.0640003,5.172 C94.7040035,5.9320038 95.0240003,6.95999352 95.0240003,8.256 L95.0240003,16.944 C95.0240003,18.2240064 94.7040035,19.2479962 94.0640003,20.016 C93.4239971,20.7840038 92.4560068,21.168 91.1600003,21.168 C89.8639939,21.168 88.9000035,20.7840038 88.2680003,20.016 C87.6359972,19.2479962 87.3200003,18.2240064 87.3200003,16.944 L87.3200003,8.256 Z M89.1680003,17.04 C89.1680003,17.8080038 89.3319987,18.4039979 89.6600003,18.828 C89.988002,19.2520021 90.487997,19.464 91.1600003,19.464 C91.8480038,19.464 92.3519987,19.2520021 92.6720003,18.828 C92.9920019,18.4039979 93.1520003,17.8080038 93.1520003,17.04 L93.1520003,8.16 C93.1520003,7.39199616 92.9920019,6.79600212 92.6720003,6.372 C92.3519987,5.94799788 91.8480038,5.736 91.1600003,5.736 C90.487997,5.736 89.988002,5.94799788 89.6600003,6.372 C89.3319987,6.79600212 89.1680003,7.39199616 89.1680003,8.16 L89.1680003,17.04 Z M98.9360005,21 L97.2560005,21 L97.2560005,4.2 L99.6320005,4.2 L103.52,16.344 L103.52,4.2 L105.176,4.2 L105.176,21 L103.232,21 L98.9360005,7.416 L98.9360005,21 Z M111.104001,4.032 C112.384007,4.032 113.327998,4.4119962 113.936001,5.172 C114.544004,5.9320038 114.848001,6.9519936 114.848001,8.232 L114.848001,8.688 L113.072001,8.688 L113.072001,8.136 C113.072001,7.36799616 112.920002,6.77600208 112.616001,6.36 C112.311999,5.94399792 111.824004,5.736 111.152001,5.736 C110.479997,5.736 109.992002,5.94399792 109.688001,6.36 C109.383999,6.77600208 109.232001,7.35999624 109.232001,8.112 C109.232001,8.73600312 109.371999,9.27999768 109.652001,9.744 C109.932002,10.2080023 110.279999,10.635998 110.696001,11.028 C111.112003,11.420002 111.563998,11.8039981 112.052001,12.18 C112.540003,12.5560019 112.991999,12.9679978 113.408001,13.416 C113.824003,13.8640022 114.171999,14.3719972 114.452001,14.94 C114.732002,15.5080028 114.872001,16.1839961 114.872001,16.968 C114.872001,18.2480064 114.564004,19.2679962 113.948001,20.028 C113.331998,20.7880038 112.376007,21.168 111.080001,21.168 C109.783994,21.168 108.832004,20.7880038 108.224001,20.028 C107.615998,19.2679962 107.312001,18.2480064 107.312001,16.968 L107.312001,16.008 L109.064001,16.008 L109.064001,17.064 C109.064001,17.8320038 109.223999,18.4239979 109.544001,18.84 C109.864002,19.2560021 110.359997,19.464 111.032001,19.464 C111.704004,19.464 112.199999,19.2560021 112.520001,18.84 C112.840002,18.4239979 113.000001,17.8320038 113.000001,17.064 C113.000001,16.4399969 112.860002,15.9000023 112.580001,15.444 C112.299999,14.9879977 111.952003,14.564002 111.536001,14.172 C111.119999,13.779998 110.672003,13.3960019 110.192001,13.02 C109.711998,12.6439981 109.264003,12.2320022 108.848001,11.784 C108.431999,11.3359978 108.084002,10.8280028 107.804001,10.26 C107.523999,9.69199716 107.384001,9.01600392 107.384001,8.232 C107.384001,6.93599352 107.687998,5.91200376 108.296001,5.16 C108.904004,4.40799624 109.839994,4.032 111.104001,4.032 Z M2.35999896,33.2 L2.35999896,50 L0.487998963,50 L0.487998963,33.2 L2.35999896,33.2 Z M6.4159991,50 L4.7359991,50 L4.7359991,33.2 L7.1119991,33.2 L10.9999991,45.344 L10.9999991,33.2 L12.6559991,33.2 L12.6559991,50 L10.7119991,50 L6.4159991,36.416 L6.4159991,50 Z M17.4799992,50 L17.4799992,34.904 L14.3839992,34.904 L14.3839992,33.2 L22.4239992,33.2 L22.4239992,34.904 L19.3279992,34.904 L19.3279992,50 L17.4799992,50 Z M30.1519994,40.64 L30.1519994,42.32 L26.0479994,42.32 L26.0479994,48.296 L31.0879994,48.296 L31.0879994,50 L24.1759994,50 L24.1759994,33.2 L31.0879994,33.2 L31.0879994,34.904 L26.0479994,34.904 L26.0479994,40.64 L30.1519994,40.64 Z M37.0399995,33.2 C38.3680062,33.2 39.3239966,33.5279967 39.9079995,34.184 C40.4920024,34.8400033 40.7839995,35.7919938 40.7839995,37.04 L40.7839995,38.408 C40.7839995,39.3360046 40.6160012,40.0879971 40.2799995,40.664 C39.9439978,41.2400029 39.4160031,41.6399989 38.6959995,41.864 C39.4640034,42.0880011 40.0079979,42.499997 40.3279995,43.1 C40.6480011,43.700003 40.8079995,44.4559954 40.8079995,45.368 L40.8079995,47.984 C40.8079995,48.3520018 40.8239994,48.7079983 40.8559995,49.052 C40.8879997,49.3960017 40.9839987,49.7119986 41.1439995,50 L39.2479995,50 C39.135999,49.7599988 39.0559998,49.5000014 39.0079995,49.22 C38.9599993,48.9399986 38.9359995,48.5200028 38.9359995,47.96 L38.9359995,45.32 C38.9359995,44.3759953 38.7240016,43.7240018 38.2999995,43.364 C37.8759974,43.0039982 37.2720034,42.824 36.4879995,42.824 L35.1679995,42.824 L35.1679995,50 L33.2959995,50 L33.2959995,33.2 L37.0399995,33.2 Z M36.5599995,41.12 C37.3120033,41.12 37.8959974,40.9640016 38.3119995,40.652 C38.7280016,40.3399984 38.9359995,39.7280046 38.9359995,38.816 L38.9359995,37.208 C38.9359995,36.4399962 38.788001,35.8640019 38.4919995,35.48 C38.195998,35.0959981 37.696003,34.904 36.9919995,34.904 L35.1679995,34.904 L35.1679995,41.12 L36.5599995,41.12 Z M44.8879997,50 L43.2079997,50 L43.2079997,33.2 L45.5839997,33.2 L49.4719997,45.344 L49.4719997,33.2 L51.1279997,33.2 L51.1279997,50 L49.1839997,50 L44.8879997,36.416 L44.8879997,50 Z M55.4239998,46.616 L54.7759998,50 L53.0479998,50 L56.2639998,33.2 L58.9759998,33.2 L62.1919998,50 L60.3199998,50 L59.6719998,46.616 L55.4239998,46.616 Z M55.6639998,45.008 L59.4079998,45.008 L57.5119998,35.312 L55.6639998,45.008 Z M65.6479999,50 L65.6479999,34.904 L62.5519999,34.904 L62.5519999,33.2 L70.5919999,33.2 L70.5919999,34.904 L67.4959999,34.904 L67.4959999,50 L65.6479999,50 Z M74.2160001,33.2 L74.2160001,50 L72.3440001,50 L72.3440001,33.2 L74.2160001,33.2 Z M76.4720002,37.256 C76.4720002,35.9599935 76.787997,34.9320038 77.4200002,34.172 C78.0520034,33.4119962 79.0159937,33.032 80.3120002,33.032 C81.6080067,33.032 82.575997,33.4119962 83.2160002,34.172 C83.8560034,34.9320038 84.1760002,35.9599935 84.1760002,37.256 L84.1760002,45.944 C84.1760002,47.2240064 83.8560034,48.2479962 83.2160002,49.016 C82.575997,49.7840038 81.6080067,50.168 80.3120002,50.168 C79.0159937,50.168 78.0520034,49.7840038 77.4200002,49.016 C76.787997,48.2479962 76.4720002,47.2240064 76.4720002,45.944 L76.4720002,37.256 Z M78.3200002,46.04 C78.3200002,46.8080038 78.4839986,47.4039979 78.8120002,47.828 C79.1400018,48.2520021 79.6399968,48.464 80.3120002,48.464 C81.0000036,48.464 81.5039986,48.2520021 81.8240002,47.828 C82.1440018,47.4039979 82.3040002,46.8080038 82.3040002,46.04 L82.3040002,37.16 C82.3040002,36.3919962 82.1440018,35.7960021 81.8240002,35.372 C81.5039986,34.9479979 81.0000036,34.736 80.3120002,34.736 C79.6399968,34.736 79.1400018,34.9479979 78.8120002,35.372 C78.4839986,35.7960021 78.3200002,36.3919962 78.3200002,37.16 L78.3200002,46.04 Z M88.0880003,50 L86.4080003,50 L86.4080003,33.2 L88.7840003,33.2 L92.6720003,45.344 L92.6720003,33.2 L94.3280003,33.2 L94.3280003,50 L92.3840003,50 L88.0880003,36.416 L88.0880003,50 Z M98.6240005,46.616 L97.9760005,50 L96.2480005,50 L99.4640005,33.2 L102.176,33.2 L105.392,50 L103.52,50 L102.872,46.616 L98.6240005,46.616 Z M98.8640005,45.008 L102.608,45.008 L100.712,35.312 L98.8640005,45.008 Z M107.336001,50 L107.336001,33.2 L109.208001,33.2 L109.208001,48.296 L114.008001,48.296 L114.008001,50 L107.336001,50 Z M121.880001,40.64 L121.880001,42.32 L117.776001,42.32 L117.776001,48.296 L122.816001,48.296 L122.816001,50 L115.904001,50 L115.904001,33.2 L122.816001,33.2 L122.816001,34.904 L117.776001,34.904 L117.776001,40.64 L121.880001,40.64 Z M128.552001,33.032 C129.832007,33.032 130.775998,33.4119962 131.384001,34.172 C131.992004,34.9320038 132.296001,35.9519936 132.296001,37.232 L132.296001,37.688 L130.520001,37.688 L130.520001,37.136 C130.520001,36.3679962 130.368002,35.7760021 130.064001,35.36 C129.759999,34.9439979 129.272004,34.736 128.600001,34.736 C127.927998,34.736 127.440002,34.9439979 127.136001,35.36 C126.831999,35.7760021 126.680001,36.3599962 126.680001,37.112 C126.680001,37.7360031 126.819999,38.2799977 127.100001,38.744 C127.380002,39.2080023 127.727999,39.635998 128.144001,40.028 C128.560003,40.420002 129.011998,40.8039981 129.500001,41.18 C129.988003,41.5560019 130.439999,41.9679978 130.856001,42.416 C131.272003,42.8640022 131.619999,43.3719972 131.900001,43.94 C132.180002,44.5080028 132.320001,45.1839961 132.320001,45.968 C132.320001,47.2480064 132.012004,48.2679962 131.396001,49.028 C130.779998,49.7880038 129.824007,50.168 128.528001,50.168 C127.231994,50.168 126.280004,49.7880038 125.672001,49.028 C125.063998,48.2679962 124.760001,47.2480064 124.760001,45.968 L124.760001,45.008 L126.512001,45.008 L126.512001,46.064 C126.512001,46.8320038 126.671999,47.4239979 126.992001,47.84 C127.312002,48.2560021 127.807998,48.464 128.480001,48.464 C129.152004,48.464 129.647999,48.2560021 129.968001,47.84 C130.288002,47.4239979 130.448001,46.8320038 130.448001,46.064 C130.448001,45.4399969 130.308002,44.9000023 130.028001,44.444 C129.747999,43.9879977 129.400003,43.564002 128.984001,43.172 C128.567999,42.779998 128.120003,42.3960019 127.640001,42.02 C127.159998,41.6439981 126.712003,41.2320022 126.296001,40.784 C125.879999,40.3359978 125.532002,39.8280028 125.252001,39.26 C124.971999,38.6919972 124.832001,38.0160039 124.832001,37.232 C124.832001,35.9359935 125.135998,34.9120038 125.744001,34.16 C126.352004,33.4079962 127.287995,33.032 128.552001,33.032 Z" transform="translate(0 138)"/>
      <g stroke-width="18" transform="translate(97)">
        <path stroke="#F6A723" d="M328,128 C401.996975,129.357438 466.603556,169.997558 502,230" transform="rotate(30 415 179)"/>
        <path stroke="#E74892" d="M171,138 C209.18591,74.5464123 276.550477,38.7947202 346,38" transform="rotate(30 258.5 88)"/>
        <path stroke="#E74427" d="M103.100616,271 C68.1767741,206.708209 70.8361468,131.080817 104,71" transform="rotate(30 91 171)"/>
        <path stroke="#F6A723" d="M188,408 C114.003025,406.642562 49.3964438,366.002442 14,306" transform="rotate(30 101 357)"/>
        <path stroke="#80BA27" d="M345,399 C306.81409,462.453588 239.451054,498.20528 170,499" transform="rotate(30 257.5 449)"/>
        <path stroke="#30B3E8" d="M412.899365,264 C447.822476,328.291791 445.16465,403.919183 412,464" transform="rotate(30 425 364)"/>
      </g>
    </g>
    <text fill="#2A2A2A" font-family="BebasNeueRegular, Bebas Neue" font-size="29">
      <tspan x="266.942" y="360">Dont 37 957 visiteurs </tspan> <tspan x="294.536" y="395">professionnels </tspan>
    </text>
    <text fill="#E74892" font-family="BebasNeueBold, Bebas Neue" font-size="52" font-weight="bold">
      <tspan x="346.408" y="49">57</tspan>
    </text>
    <text fill="#F6A723" font-family="BebasNeueBold, Bebas Neue" font-size="52" font-weight="bold">
      <tspan x="592" y="190">1 000 +</tspan>
    </text>
    <text fill="#80BA27" font-family="BebasNeueBold, Bebas Neue" font-size="52" font-weight="bold">
      <tspan x="290" y="604">3 millions</tspan>
    </text>
    <text fill="#30B3E8" font-family="BebasNeueBold, Bebas Neue" font-size="52" font-weight="bold">
      <tspan x="605" y="429">8 118</tspan>
    </text>
    <text fill="#E74427" font-family="BebasNeueBold, Bebas Neue" font-size="52" font-weight="bold">
      <tspan x="59.408" y="174">65</tspan>
    </text>
    <text fill="#F6A723" font-family="BebasNeueBold, Bebas Neue" font-size="52" font-weight="bold">
      <tspan x="65" y="438">27</tspan>
    </text>
    <text fill="#2A2A2A" font-family="BebasNeueRegular, Bebas Neue" font-size="25">
      <tspan x="602" y="222">EXPOSANTS</tspan>
    </text>
    <text fill="#2A2A2A" font-family="BebasNeueRegular, Bebas Neue" font-size="25">
      <tspan x="582.75" y="463">RETOMBÉES PRESSE</tspan>
    </text>
    <text fill="#2A2A2A" font-family="BebasNeueRegular, Bebas Neue" font-size="25">
      <tspan x="283.525" y="640">de personnes touchées </tspan> <tspan x="278" y="670">sur les réseaux sociaux</tspan>
    </text>
    <text fill="#2A2A2A" font-family="BebasNeueRegular, Bebas Neue" font-size="25">
      <tspan x="15.025" y="473">pays représentés</tspan>
    </text>
    <text fill="#2A2A2A" font-family="BebasNeueBold, Bebas Neue" font-size="52" font-weight="bold">
      <tspan x="294.57" y="261.512">633 213</tspan> <tspan x="280.972" y="314.512">visiteurs</tspan>
    </text>
  </g>
</svg>
