<?xml version="1.0" encoding="utf-8"?>
<!-- Generator: Adobe Illustrator 22.0.1, SVG Export Plug-In . SVG Version: 6.00 Build 0)  -->
<svg width="674px" height="612px" version="1.1" id="Calque_1" xmlns="http://www.w3.org/2000/svg" xmlns:xlink="http://www.w3.org/1999/xlink" x="0px" y="0px"
	 viewBox="0 0 716 659" style="enable-background:new 0 0 716 659;" xml:space="preserve">
<style type="text/css">
	.st0{opacity:0.7;filter:url(#fr-chiffres-cles-modif-a);}
	.st1{fill:#FFFFFF;}
	.st2{fill:#2A2A2A;}
	.st3{fill:none;stroke:#F6A723;stroke-width:18;}
	.st4{fill:none;stroke:#E74892;stroke-width:18;}
	.st5{fill:none;stroke:#E74427;stroke-width:18;}
	.st6{fill:none;stroke:#80BA27;stroke-width:18;}
	.st7{fill:none;stroke:#30B3E8;stroke-width:18;}
	.st8{enable-background:new    ;}
	.st9{fill:#E74892;}
	.st10{fill:#F6A723;}
	.st11{fill:#80BA27;}
	.st12{fill:#30B3E8;}
	.st13{fill:#E74427;}
</style>
<filter  filterUnits="objectBoundingBox" height="124.5%" id="fr-chiffres-cles-modif-a" width="124.5%" x="-12.3%" y="-11.6%">
	<feOffset  dy="2" in="SourceAlpha" result="shadowOffsetOuter1"></feOffset>
	<feGaussianBlur  in="shadowOffsetOuter1" result="shadowBlurOuter1" stdDeviation="12"></feGaussianBlur>
	<feColorMatrix  in="shadowBlurOuter1" values="0 0 0 0 0   0 0 0 0 0   0 0 0 0 0  0 0 0 0.15271173 0"></feColorMatrix>
</filter>
<g transform="translate(-14 -12)">
	<g transform="translate(14 48)">
		<g class="st0">
			<circle id="fr-chiffres-cles-modif-b_1_" cx="353" cy="297" r="151"/>
		</g>
		<circle class="st1" cx="354" cy="268" r="176"/>
		<path class="st2" d="M280.2,17.2l2.7,14.6l2.7-14.6h1.7L284.2,34h-2.8l-3.2-16.8H280.2z M291.2,17.2V34h-1.9V17.2H291.2z
			 M297.1,17c1.3,0,2.2,0.4,2.8,1.1c0.6,0.8,0.9,1.8,0.9,3.1v0.5h-1.8v-0.6c0-0.8-0.2-1.4-0.5-1.8c-0.3-0.4-0.8-0.6-1.5-0.6
			c-0.7,0-1.2,0.2-1.5,0.6c-0.3,0.4-0.5,1-0.5,1.8c0,0.6,0.1,1.2,0.4,1.6c0.3,0.5,0.6,0.9,1,1.3c0.4,0.4,0.9,0.8,1.4,1.2
			c0.5,0.4,0.9,0.8,1.4,1.2c0.4,0.4,0.8,1,1,1.5c0.3,0.6,0.4,1.2,0.4,2c0,1.3-0.3,2.3-0.9,3.1s-1.6,1.1-2.9,1.1
			c-1.3,0-2.2-0.4-2.9-1.1s-0.9-1.8-0.9-3.1v-1h1.8v1.1c0,0.8,0.2,1.4,0.5,1.8c0.3,0.4,0.8,0.6,1.5,0.6c0.7,0,1.2-0.2,1.5-0.6
			c0.3-0.4,0.5-1,0.5-1.8c0-0.6-0.1-1.2-0.4-1.6s-0.6-0.9-1-1.3c-0.4-0.4-0.9-0.8-1.3-1.2c-0.5-0.4-0.9-0.8-1.3-1.2
			c-0.4-0.4-0.8-1-1-1.5s-0.4-1.2-0.4-2c0-1.3,0.3-2.3,0.9-3.1C294.9,17.4,295.8,17,297.1,17z M304.9,17.2V34H303V17.2H304.9z
			 M309.7,34V18.9h-3.1v-1.7h8v1.7h-3.1V34H309.7z M322.4,24.6v1.7h-4.1v6h5V34h-6.9V17.2h6.9v1.7h-5v5.7H322.4z M329,17
			c1.3,0,2.2,0.4,2.8,1.1c0.6,0.8,0.9,1.8,0.9,3.1v0.5H331v-0.6c0-0.8-0.2-1.4-0.5-1.8c-0.3-0.4-0.8-0.6-1.5-0.6
			c-0.7,0-1.2,0.2-1.5,0.6c-0.3,0.4-0.5,1-0.5,1.8c0,0.6,0.1,1.2,0.4,1.6c0.3,0.5,0.6,0.9,1,1.3c0.4,0.4,0.9,0.8,1.4,1.2
			c0.5,0.4,0.9,0.8,1.4,1.2s0.8,1,1,1.5c0.3,0.6,0.4,1.2,0.4,2c0,1.3-0.3,2.3-0.9,3.1c-0.6,0.8-1.6,1.1-2.9,1.1s-2.2-0.4-2.9-1.1
			s-0.9-1.8-0.9-3.1v-1h1.8v1.1c0,0.8,0.2,1.4,0.5,1.8c0.3,0.4,0.8,0.6,1.5,0.6s1.2-0.2,1.5-0.6c0.3-0.4,0.5-1,0.5-1.8
			c0-0.6-0.1-1.2-0.4-1.6s-0.6-0.9-1-1.3c-0.4-0.4-0.9-0.8-1.3-1.2c-0.5-0.4-0.9-0.8-1.3-1.2c-0.4-0.4-0.8-1-1-1.5s-0.4-1.2-0.4-2
			c0-1.3,0.3-2.3,0.9-3.1C326.8,17.4,327.8,17,329,17z M339,21.3c0-1.3,0.3-2.3,0.9-3.1c0.6-0.8,1.6-1.1,2.9-1.1
			c1.3,0,2.3,0.4,2.9,1.1c0.6,0.8,1,1.8,1,3.1v8.7c0,1.3-0.3,2.3-1,3.1c-0.6,0.8-1.6,1.2-2.9,1.2c-1.3,0-2.3-0.4-2.9-1.2
			c-0.6-0.8-0.9-1.8-0.9-3.1V21.3z M340.8,30c0,0.8,0.2,1.4,0.5,1.8c0.3,0.4,0.8,0.6,1.5,0.6c0.7,0,1.2-0.2,1.5-0.6
			c0.3-0.4,0.5-1,0.5-1.8v-8.9c0-0.8-0.2-1.4-0.5-1.8s-0.8-0.6-1.5-0.6c-0.7,0-1.2,0.2-1.5,0.6s-0.5,1-0.5,1.8V30z M354.7,25v1.7
			h-3.9V34h-1.9V17.2h6.7v1.7h-4.8V25H354.7z M363.3,25v1.7h-3.9V34h-1.9V17.2h6.7v1.7h-4.8V25H363.3z M368.1,17.2V34h-1.9V17.2
			H368.1z M374.1,17c1.3,0,2.3,0.4,2.9,1.2c0.6,0.8,0.9,1.8,0.9,3.1v1.5h-1.8v-1.6c0-0.8-0.2-1.4-0.5-1.8c-0.3-0.4-0.8-0.6-1.5-0.6
			c-0.7,0-1.2,0.2-1.5,0.6s-0.5,1-0.5,1.8V30c0,0.8,0.2,1.4,0.5,1.8c0.3,0.4,0.8,0.6,1.5,0.6c0.7,0,1.2-0.2,1.5-0.6
			c0.3-0.4,0.5-1,0.5-1.8v-2.2h1.8v2.1c0,1.3-0.3,2.3-0.9,3.1c-0.6,0.8-1.6,1.2-2.9,1.2c-1.3,0-2.2-0.4-2.8-1.2
			c-0.6-0.8-0.9-1.8-0.9-3.1v-8.7c0-0.6,0.1-1.2,0.2-1.7s0.4-1,0.7-1.3c0.3-0.4,0.7-0.7,1.2-0.9C372.9,17.1,373.5,17,374.1,17z
			 M381.9,17.2V34h-1.9V17.2H381.9z M390.3,24.6v1.7h-4.1v6h5V34h-6.9V17.2h6.9v1.7h-5v5.7H390.3z M393.5,34V17.2h1.9v15.1h4.8V34
			H393.5z M402,34V17.2h1.9v15.1h4.8V34H402z M416.6,24.6v1.7h-4.1v6h5V34h-6.9V17.2h6.9v1.7h-5v5.7H416.6z M423.2,17
			c1.3,0,2.2,0.4,2.8,1.1c0.6,0.8,0.9,1.8,0.9,3.1v0.5h-1.8v-0.6c0-0.8-0.2-1.4-0.5-1.8s-0.8-0.6-1.5-0.6c-0.7,0-1.2,0.2-1.5,0.6
			s-0.5,1-0.5,1.8c0,0.6,0.1,1.2,0.4,1.6c0.3,0.5,0.6,0.9,1,1.3s0.9,0.8,1.4,1.2c0.5,0.4,0.9,0.8,1.4,1.2s0.8,1,1,1.5
			c0.3,0.6,0.4,1.2,0.4,2c0,1.3-0.3,2.3-0.9,3.1c-0.6,0.8-1.6,1.1-2.9,1.1s-2.2-0.4-2.9-1.1c-0.6-0.8-0.9-1.8-0.9-3.1v-1h1.8v1.1
			c0,0.8,0.2,1.4,0.5,1.8c0.3,0.4,0.8,0.6,1.5,0.6c0.7,0,1.2-0.2,1.5-0.6c0.3-0.4,0.5-1,0.5-1.8c0-0.6-0.1-1.2-0.4-1.6
			s-0.6-0.9-1-1.3s-0.9-0.8-1.3-1.2c-0.5-0.4-0.9-0.8-1.3-1.2s-0.8-1-1-1.5s-0.4-1.2-0.4-2c0-1.3,0.3-2.3,0.9-3.1
			C421,17.4,422,17,423.2,17z"/>
		<path class="st2" d="M21.9,142.2c1.3,0,2.3,0.4,2.9,1.1s0.9,1.8,0.9,3.1v8.5c0,1.3-0.3,2.3-0.9,3c-0.6,0.7-1.6,1.1-2.9,1.1h-3.9
			v-16.8H21.9z M21.8,157.3c0.7,0,1.2-0.2,1.5-0.6s0.5-1,0.5-1.8v-8.6c0-0.8-0.2-1.4-0.5-1.8c-0.3-0.4-0.8-0.6-1.5-0.6h-2v13.4H21.8
			z M33.8,138.8l-2.2,2.5h-1.3l1.7-2.5H33.8z M33.9,149.6v1.7h-4.1v6h5v1.7h-6.9v-16.8h6.9v1.7h-5v5.7H33.9z M37,159v-16.8h1.9v15.1
			h4.8v1.7H37z M51.4,138.8l-2.2,2.5h-1.3l1.7-2.5H51.4z M51.6,149.6v1.7h-4.1v6h5v1.7h-6.9v-16.8h6.9v1.7h-5v5.7H51.6z M58.4,142
			c1.3,0,2.3,0.4,2.9,1.2c0.6,0.8,0.9,1.8,0.9,3.1v1.4h-1.8v-1.5c0-0.8-0.2-1.4-0.5-1.8c-0.3-0.4-0.8-0.6-1.5-0.6
			c-0.7,0-1.2,0.2-1.5,0.6c-0.3,0.4-0.5,1-0.5,1.8v8.9c0,0.8,0.2,1.4,0.5,1.8c0.3,0.4,0.8,0.6,1.5,0.6c0.7,0,1.2-0.2,1.5-0.6
			c0.3-0.4,0.5-1,0.5-1.8v-3.4h-1.7V150h3.5v4.9c0,1.3-0.3,2.3-0.9,3.1c-0.6,0.8-1.6,1.2-2.9,1.2c-1.3,0-2.2-0.4-2.8-1.2
			c-0.6-0.8-0.9-1.8-0.9-3.1v-8.7c0-0.6,0.1-1.2,0.2-1.7c0.2-0.5,0.4-1,0.7-1.3c0.3-0.4,0.7-0.7,1.2-0.9
			C57.2,142.1,57.7,142,58.4,142z M66.3,155.6l-0.6,3.4h-1.7l3.2-16.8h2.7L73,159h-1.9l-0.6-3.4H66.3z M66.5,154h3.7l-1.9-9.7
			L66.5,154z M76.5,159v-15.1h-3.1v-1.7h8v1.7h-3.1V159H76.5z M85.1,142.2V159h-1.9v-16.8H85.1z M87.3,146.3c0-1.3,0.3-2.3,0.9-3.1
			c0.6-0.8,1.6-1.1,2.9-1.1c1.3,0,2.3,0.4,2.9,1.1c0.6,0.8,1,1.8,1,3.1v8.7c0,1.3-0.3,2.3-1,3.1c-0.6,0.8-1.6,1.2-2.9,1.2
			c-1.3,0-2.3-0.4-2.9-1.2c-0.6-0.8-0.9-1.8-0.9-3.1V146.3z M89.2,155c0,0.8,0.2,1.4,0.5,1.8c0.3,0.4,0.8,0.6,1.5,0.6
			c0.7,0,1.2-0.2,1.5-0.6c0.3-0.4,0.5-1,0.5-1.8v-8.9c0-0.8-0.2-1.4-0.5-1.8c-0.3-0.4-0.8-0.6-1.5-0.6c-0.7,0-1.2,0.2-1.5,0.6
			c-0.3,0.4-0.5,1-0.5,1.8V155z M98.9,159h-1.7v-16.8h2.4l3.9,12.1v-12.1h1.7V159h-1.9l-4.3-13.6V159z M111.1,142
			c1.3,0,2.2,0.4,2.8,1.1c0.6,0.8,0.9,1.8,0.9,3.1v0.5h-1.8v-0.6c0-0.8-0.2-1.4-0.5-1.8c-0.3-0.4-0.8-0.6-1.5-0.6s-1.2,0.2-1.5,0.6
			s-0.5,1-0.5,1.8c0,0.6,0.1,1.2,0.4,1.6s0.6,0.9,1,1.3s0.9,0.8,1.4,1.2c0.5,0.4,0.9,0.8,1.4,1.2c0.4,0.4,0.8,1,1,1.5
			c0.3,0.6,0.4,1.2,0.4,2c0,1.3-0.3,2.3-0.9,3.1c-0.6,0.8-1.6,1.1-2.9,1.1s-2.2-0.4-2.9-1.1s-0.9-1.8-0.9-3.1v-1h1.8v1.1
			c0,0.8,0.2,1.4,0.5,1.8s0.8,0.6,1.5,0.6c0.7,0,1.2-0.2,1.5-0.6c0.3-0.4,0.5-1,0.5-1.8c0-0.6-0.1-1.2-0.4-1.6
			c-0.3-0.5-0.6-0.9-1-1.3s-0.9-0.8-1.3-1.2c-0.5-0.4-0.9-0.8-1.3-1.2s-0.8-1-1-1.5c-0.3-0.6-0.4-1.2-0.4-2c0-1.3,0.3-2.3,0.9-3.1
			C108.9,142.4,109.8,142,111.1,142z M2.4,171.2V188H0.5v-16.8H2.4z M6.4,188H4.7v-16.8h2.4l3.9,12.1v-12.1h1.7V188h-1.9l-4.3-13.6
			V188z M17.5,188v-15.1h-3.1v-1.7h8v1.7h-3.1V188H17.5z M30.2,178.6v1.7H26v6h5v1.7h-6.9v-16.8h6.9v1.7h-5v5.7H30.2z M37,171.2
			c1.3,0,2.3,0.3,2.9,1c0.6,0.7,0.9,1.6,0.9,2.9v1.4c0,0.9-0.2,1.7-0.5,2.3s-0.9,1-1.6,1.2c0.8,0.2,1.3,0.6,1.6,1.2
			c0.3,0.6,0.5,1.4,0.5,2.3v2.6c0,0.4,0,0.7,0,1.1s0.1,0.7,0.3,0.9h-1.9c-0.1-0.2-0.2-0.5-0.2-0.8s-0.1-0.7-0.1-1.3v-2.6
			c0-0.9-0.2-1.6-0.6-2s-1-0.5-1.8-0.5h-1.3v7.2h-1.9v-16.8H37z M36.6,179.1c0.8,0,1.3-0.2,1.8-0.5c0.4-0.3,0.6-0.9,0.6-1.8v-1.6
			c0-0.8-0.1-1.3-0.4-1.7s-0.8-0.6-1.5-0.6h-1.8v6.2H36.6z M44.9,188h-1.7v-16.8h2.4l3.9,12.1v-12.1h1.7V188h-1.9l-4.3-13.6V188z
			 M55.4,184.6l-0.6,3.4H53l3.2-16.8H59l3.2,16.8h-1.9l-0.6-3.4H55.4z M55.7,183h3.7l-1.9-9.7L55.7,183z M65.6,188v-15.1h-3.1v-1.7
			h8v1.7h-3.1V188H65.6z M74.2,171.2V188h-1.9v-16.8H74.2z M76.5,175.3c0-1.3,0.3-2.3,0.9-3.1s1.6-1.1,2.9-1.1
			c1.3,0,2.3,0.4,2.9,1.1c0.6,0.8,1,1.8,1,3.1v8.7c0,1.3-0.3,2.3-1,3.1c-0.6,0.8-1.6,1.2-2.9,1.2c-1.3,0-2.3-0.4-2.9-1.2
			c-0.6-0.8-0.9-1.8-0.9-3.1V175.3z M78.3,184c0,0.8,0.2,1.4,0.5,1.8c0.3,0.4,0.8,0.6,1.5,0.6c0.7,0,1.2-0.2,1.5-0.6
			c0.3-0.4,0.5-1,0.5-1.8v-8.9c0-0.8-0.2-1.4-0.5-1.8c-0.3-0.4-0.8-0.6-1.5-0.6c-0.7,0-1.2,0.2-1.5,0.6c-0.3,0.4-0.5,1-0.5,1.8V184z
			 M88.1,188h-1.7v-16.8h2.4l3.9,12.1v-12.1h1.7V188h-1.9l-4.3-13.6V188z M98.6,184.6L98,188h-1.7l3.2-16.8h2.7l3.2,16.8h-1.9
			l-0.6-3.4H98.6z M98.9,183h3.7l-1.9-9.7L98.9,183z M107.3,188v-16.8h1.9v15.1h4.8v1.7H107.3z M121.9,178.6v1.7h-4.1v6h5v1.7h-6.9
			v-16.8h6.9v1.7h-5v5.7H121.9z M128.6,171c1.3,0,2.2,0.4,2.8,1.1s0.9,1.8,0.9,3.1v0.5h-1.8v-0.6c0-0.8-0.2-1.4-0.5-1.8
			s-0.8-0.6-1.5-0.6c-0.7,0-1.2,0.2-1.5,0.6s-0.5,1-0.5,1.8c0,0.6,0.1,1.2,0.4,1.6c0.3,0.5,0.6,0.9,1,1.3s0.9,0.8,1.4,1.2
			c0.5,0.4,0.9,0.8,1.4,1.2s0.8,1,1,1.5c0.3,0.6,0.4,1.2,0.4,2c0,1.3-0.3,2.3-0.9,3.1c-0.6,0.8-1.6,1.1-2.9,1.1s-2.2-0.4-2.9-1.1
			c-0.6-0.8-0.9-1.8-0.9-3.1v-1h1.8v1.1c0,0.8,0.2,1.4,0.5,1.8c0.3,0.4,0.8,0.6,1.5,0.6c0.7,0,1.2-0.2,1.5-0.6
			c0.3-0.4,0.5-1,0.5-1.8c0-0.6-0.1-1.2-0.4-1.6s-0.6-0.9-1-1.3c-0.4-0.4-0.9-0.8-1.3-1.2c-0.5-0.4-0.9-0.8-1.3-1.2
			c-0.4-0.4-0.8-1-1-1.5c-0.3-0.6-0.4-1.2-0.4-2c0-1.3,0.3-2.3,0.9-3.1C126.4,171.4,127.3,171,128.6,171z"/>
		<g transform="translate(97)">
			<path class="st3" d="M365.2,91.3c63.4,38.2,99,105.7,99.7,175.3"/>
			<path class="st4" d="M157.7,87.6c64.8-35.9,141-33.1,201.6,0.9"/>
			<path class="st5" d="M51.5,263.7c1.9-73.1,42-137.3,100.8-172.8"/>
			<path class="st3" d="M150.8,444.7c-63.4-38.2-99-105.7-99.7-175.3"/>
			<path class="st6" d="M358.3,449.4c-64.8,35.9-141,33.1-201.6-0.9"/>
			<path class="st7" d="M464.5,271.3c-1.9,73.1-42,137.3-100.8,172.8"/>
		</g>
	</g>
	<g class="st8">
		<path class="st2" d="M250.6,348.7v2h-5v7.2h6.1v2.1h-8.4v-20.3h8.4v2.1h-6.1v6.9H250.6z"/>
		<path class="st2" d="M256.8,360v-18.2H253v-2.1h9.7v2.1H259V360H256.8z"/>
		<path class="st2" d="M273.2,339.7c1.6,0,2.8,0.4,3.5,1.3c0.7,0.9,1.1,2.1,1.1,3.6v2.4c0,1.6-0.4,2.8-1.1,3.7
			c-0.8,0.8-2,1.2-3.6,1.2h-2v8h-2.3v-20.3H273.2z M273,350c0.9,0,1.5-0.2,1.9-0.6c0.4-0.4,0.6-1.1,0.6-2.1v-2.7
			c0-0.9-0.2-1.6-0.5-2.1c-0.4-0.5-1-0.7-1.8-0.7H271v8.2H273z"/>
		<path class="st2" d="M279.5,360v-20.3h2.3v18.2h5.8v2.1H279.5z"/>
		<path class="st2" d="M291.5,355.2c0,0.9,0.2,1.6,0.6,2.2c0.4,0.5,1,0.8,1.8,0.8c0.8,0,1.4-0.3,1.8-0.8c0.4-0.5,0.6-1.2,0.6-2.2
			v-15.5h2.1v15.4c0,1.5-0.4,2.8-1.1,3.7c-0.7,0.9-1.9,1.4-3.5,1.4c-1.5,0-2.7-0.5-3.4-1.4c-0.7-0.9-1.1-2.2-1.1-3.7v-15.4h2.2
			V355.2z"/>
		<path class="st2" d="M304.8,339.5c1.5,0,2.7,0.5,3.4,1.4c0.7,0.9,1.1,2.2,1.1,3.7v0.6h-2.1v-0.7c0-0.9-0.2-1.6-0.6-2.1
			c-0.4-0.5-1-0.8-1.8-0.8c-0.8,0-1.4,0.3-1.8,0.8c-0.4,0.5-0.6,1.2-0.6,2.1c0,0.8,0.2,1.4,0.5,2c0.3,0.6,0.8,1.1,1.3,1.6
			c0.5,0.5,1,0.9,1.6,1.4s1.1,1,1.6,1.5c0.5,0.5,0.9,1.2,1.3,1.8c0.3,0.7,0.5,1.5,0.5,2.5c0,1.5-0.4,2.8-1.1,3.7
			c-0.7,0.9-1.9,1.4-3.5,1.4c-1.6,0-2.7-0.5-3.5-1.4c-0.7-0.9-1.1-2.2-1.1-3.7V354h2.1v1.3c0,0.9,0.2,1.6,0.6,2.1
			c0.4,0.5,1,0.8,1.8,0.8c0.8,0,1.4-0.3,1.8-0.8c0.4-0.5,0.6-1.2,0.6-2.1c0-0.8-0.2-1.4-0.5-2c-0.3-0.6-0.8-1.1-1.3-1.5
			c-0.5-0.5-1-0.9-1.6-1.4s-1.1-1-1.6-1.5c-0.5-0.5-0.9-1.2-1.3-1.8c-0.3-0.7-0.5-1.5-0.5-2.5c0-1.6,0.4-2.8,1.1-3.7
			C302.1,340,303.3,339.5,304.8,339.5z"/>
		<path class="st2" d="M320.6,339.7c1.6,0,2.8,0.4,3.5,1.3s1.1,2.1,1.1,3.7V355c0,1.6-0.4,2.8-1.1,3.7c-0.7,0.9-1.9,1.3-3.5,1.3
			h-4.8v-20.3H320.6z M320.5,357.9c0.8,0,1.4-0.2,1.8-0.7c0.4-0.5,0.6-1.2,0.6-2.1v-10.4c0-0.9-0.2-1.6-0.6-2.1
			c-0.4-0.5-1-0.7-1.8-0.7h-2.4v16.2H320.5z"/>
		<path class="st2" d="M334.5,348.7v2h-5v7.2h6.1v2.1h-8.4v-20.3h8.4v2.1h-6.1v6.9H334.5z"/>
		<path class="st2" d="M346.7,339.5c1.6,0,2.7,0.5,3.5,1.4c0.7,0.9,1.1,2.2,1.1,3.7v0.5c0,1-0.2,1.9-0.6,2.6c-0.4,0.7-1,1.2-1.8,1.5
			c0.9,0.3,1.5,0.9,1.9,1.6c0.4,0.7,0.6,1.6,0.6,2.6v1.6c0,1.6-0.4,2.8-1.1,3.7c-0.7,0.9-1.9,1.4-3.5,1.4c-1.5,0-2.7-0.5-3.4-1.4
			s-1.1-2.2-1.1-3.7v-1.4h2.1v1.5c0,0.9,0.2,1.6,0.6,2.2c0.4,0.5,1,0.8,1.8,0.8c0.8,0,1.4-0.3,1.8-0.8c0.4-0.5,0.6-1.3,0.6-2.3v-1.6
			c0-2-0.9-3-2.6-3h-1.2v-2h1.3c0.8,0,1.3-0.3,1.8-0.8c0.4-0.5,0.7-1.1,0.7-2v-0.9c0-1-0.2-1.8-0.6-2.4c-0.4-0.5-1-0.8-1.8-0.8
			c-0.8,0-1.4,0.3-1.8,0.8c-0.4,0.5-0.6,1.2-0.6,2.2v1h-2.1v-0.9c0-1.6,0.4-2.8,1.1-3.7C344,340,345.1,339.5,346.7,339.5z"/>
		<path class="st2" d="M357.9,339.5c1.6,0,2.7,0.5,3.5,1.4c0.7,0.9,1.1,2.2,1.1,3.7v0.5c0,1-0.2,1.9-0.6,2.6c-0.4,0.7-1,1.2-1.8,1.5
			c0.9,0.3,1.5,0.9,1.9,1.6c0.4,0.7,0.6,1.6,0.6,2.6v1.6c0,1.6-0.4,2.8-1.1,3.7c-0.7,0.9-1.9,1.4-3.5,1.4c-1.5,0-2.7-0.5-3.4-1.4
			s-1.1-2.2-1.1-3.7v-1.4h2.1v1.5c0,0.9,0.2,1.6,0.6,2.2c0.4,0.5,1,0.8,1.8,0.8c0.8,0,1.4-0.3,1.8-0.8c0.4-0.5,0.6-1.3,0.6-2.3v-1.6
			c0-2-0.9-3-2.6-3h-1.2v-2h1.3c0.8,0,1.3-0.3,1.8-0.8c0.4-0.5,0.7-1.1,0.7-2v-0.9c0-1-0.2-1.8-0.6-2.4c-0.4-0.5-1-0.8-1.8-0.8
			c-0.8,0-1.4,0.3-1.8,0.8c-0.4,0.5-0.6,1.2-0.6,2.2v1h-2.1v-0.9c0-1.6,0.4-2.8,1.1-3.7C355.2,340,356.3,339.5,357.9,339.5z"/>
		<path class="st2" d="M369,344.6c0-1.6,0.4-2.8,1.1-3.7c0.8-0.9,1.9-1.4,3.5-1.4s2.7,0.5,3.5,1.4c0.8,0.9,1.2,2.2,1.2,3.7v10.5
			c0,1.6-0.4,2.8-1.2,3.7c-0.8,0.9-1.9,1.4-3.5,1.4s-2.7-0.5-3.5-1.4c-0.8-0.9-1.1-2.2-1.1-3.7V344.6z M371.2,355.2
			c0,0.9,0.2,1.6,0.6,2.2c0.4,0.5,1,0.8,1.8,0.8c0.8,0,1.4-0.3,1.8-0.8c0.4-0.5,0.6-1.2,0.6-2.2v-10.7c0-0.9-0.2-1.7-0.6-2.2
			c-0.4-0.5-1-0.8-1.8-0.8c-0.8,0-1.4,0.3-1.8,0.8c-0.4,0.5-0.6,1.2-0.6,2.2V355.2z"/>
		<path class="st2" d="M380.3,344.6c0-1.6,0.4-2.8,1.1-3.7c0.8-0.9,1.9-1.4,3.5-1.4s2.7,0.5,3.5,1.4c0.8,0.9,1.2,2.2,1.2,3.7v10.5
			c0,1.6-0.4,2.8-1.2,3.7c-0.8,0.9-1.9,1.4-3.5,1.4s-2.7-0.5-3.5-1.4c-0.8-0.9-1.1-2.2-1.1-3.7V344.6z M382.5,355.2
			c0,0.9,0.2,1.6,0.6,2.2c0.4,0.5,1,0.8,1.8,0.8c0.8,0,1.4-0.3,1.8-0.8c0.4-0.5,0.6-1.2,0.6-2.2v-10.7c0-0.9-0.2-1.7-0.6-2.2
			c-0.4-0.5-1-0.8-1.8-0.8c-0.8,0-1.4,0.3-1.8,0.8c-0.4,0.5-0.6,1.2-0.6,2.2V355.2z"/>
		<path class="st2" d="M391.6,344.6c0-1.6,0.4-2.8,1.1-3.7c0.8-0.9,1.9-1.4,3.5-1.4s2.7,0.5,3.5,1.4c0.8,0.9,1.2,2.2,1.2,3.7v10.5
			c0,1.6-0.4,2.8-1.2,3.7c-0.8,0.9-1.9,1.4-3.5,1.4s-2.7-0.5-3.5-1.4c-0.8-0.9-1.1-2.2-1.1-3.7V344.6z M393.8,355.2
			c0,0.9,0.2,1.6,0.6,2.2c0.4,0.5,1,0.8,1.8,0.8c0.8,0,1.4-0.3,1.8-0.8c0.4-0.5,0.6-1.2,0.6-2.2v-10.7c0-0.9-0.2-1.7-0.6-2.2
			c-0.4-0.5-1-0.8-1.8-0.8c-0.8,0-1.4,0.3-1.8,0.8c-0.4,0.5-0.6,1.2-0.6,2.2V355.2z"/>
		<path class="st2" d="M409.2,339.7l3.3,17.7l3.3-17.7h2.1l-3.8,20.3h-3.3l-3.8-20.3H409.2z"/>
		<path class="st2" d="M421.9,339.7V360h-2.3v-20.3H421.9z"/>
		<path class="st2" d="M428.5,339.5c1.5,0,2.7,0.5,3.4,1.4c0.7,0.9,1.1,2.2,1.1,3.7v0.6h-2.1v-0.7c0-0.9-0.2-1.6-0.6-2.1
			c-0.4-0.5-1-0.8-1.8-0.8c-0.8,0-1.4,0.3-1.8,0.8c-0.4,0.5-0.6,1.2-0.6,2.1c0,0.8,0.2,1.4,0.5,2c0.3,0.6,0.8,1.1,1.3,1.6
			c0.5,0.5,1,0.9,1.6,1.4s1.1,1,1.6,1.5c0.5,0.5,0.9,1.2,1.3,1.8c0.3,0.7,0.5,1.5,0.5,2.5c0,1.5-0.4,2.8-1.1,3.7
			c-0.7,0.9-1.9,1.4-3.5,1.4c-1.6,0-2.7-0.5-3.5-1.4c-0.7-0.9-1.1-2.2-1.1-3.7V354h2.1v1.3c0,0.9,0.2,1.6,0.6,2.1
			c0.4,0.5,1,0.8,1.8,0.8c0.8,0,1.4-0.3,1.8-0.8c0.4-0.5,0.6-1.2,0.6-2.1c0-0.8-0.2-1.4-0.5-2c-0.3-0.6-0.8-1.1-1.3-1.5
			c-0.5-0.5-1-0.9-1.6-1.4s-1.1-1-1.6-1.5c-0.5-0.5-0.9-1.2-1.3-1.8c-0.3-0.7-0.5-1.5-0.5-2.5c0-1.6,0.4-2.8,1.1-3.7
			C425.8,340,427,339.5,428.5,339.5z"/>
		<path class="st2" d="M437.3,339.7V360H435v-20.3H437.3z"/>
		<path class="st2" d="M442.5,360v-18.2h-3.7v-2.1h9.7v2.1h-3.7V360H442.5z"/>
		<path class="st2" d="M457.2,348.7v2h-5v7.2h6.1v2.1H450v-20.3h8.4v2.1h-6.1v6.9H457.2z"/>
		<path class="st2" d="M462.6,355.2c0,0.9,0.2,1.6,0.6,2.2c0.4,0.5,1,0.8,1.8,0.8c0.8,0,1.4-0.3,1.8-0.8c0.4-0.5,0.6-1.2,0.6-2.2
			v-15.5h2.1v15.4c0,1.5-0.4,2.8-1.1,3.7c-0.7,0.9-1.9,1.4-3.5,1.4c-1.5,0-2.7-0.5-3.4-1.4c-0.7-0.9-1.1-2.2-1.1-3.7v-15.4h2.2
			V355.2z"/>
		<path class="st2" d="M476.2,339.7c1.6,0,2.8,0.4,3.5,1.2c0.7,0.8,1.1,1.9,1.1,3.5v1.7c0,1.1-0.2,2-0.6,2.7c-0.4,0.7-1,1.2-1.9,1.5
			c0.9,0.3,1.6,0.8,2,1.5c0.4,0.7,0.6,1.6,0.6,2.7v3.2c0,0.4,0,0.9,0.1,1.3c0,0.4,0.2,0.8,0.3,1.1h-2.3c-0.1-0.3-0.2-0.6-0.3-0.9
			c-0.1-0.3-0.1-0.8-0.1-1.5v-3.2c0-1.1-0.3-1.9-0.8-2.4c-0.5-0.4-1.2-0.7-2.2-0.7H474v8.7h-2.3v-20.3H476.2z M475.6,349.3
			c0.9,0,1.6-0.2,2.1-0.6s0.8-1.1,0.8-2.2v-1.9c0-0.9-0.2-1.6-0.5-2.1c-0.4-0.5-1-0.7-1.8-0.7H474v7.5H475.6z"/>
		<path class="st2" d="M487.4,339.5c1.5,0,2.7,0.5,3.4,1.4c0.7,0.9,1.1,2.2,1.1,3.7v0.6h-2.1v-0.7c0-0.9-0.2-1.6-0.6-2.1
			c-0.4-0.5-1-0.8-1.8-0.8c-0.8,0-1.4,0.3-1.8,0.8c-0.4,0.5-0.6,1.2-0.6,2.1c0,0.8,0.2,1.4,0.5,2c0.3,0.6,0.8,1.1,1.3,1.6
			c0.5,0.5,1,0.9,1.6,1.4s1.1,1,1.6,1.5c0.5,0.5,0.9,1.2,1.3,1.8c0.3,0.7,0.5,1.5,0.5,2.5c0,1.5-0.4,2.8-1.1,3.7
			c-0.7,0.9-1.9,1.4-3.5,1.4c-1.6,0-2.7-0.5-3.5-1.4c-0.7-0.9-1.1-2.2-1.1-3.7V354h2.1v1.3c0,0.9,0.2,1.6,0.6,2.1
			c0.4,0.5,1,0.8,1.8,0.8c0.8,0,1.4-0.3,1.8-0.8c0.4-0.5,0.6-1.2,0.6-2.1c0-0.8-0.2-1.4-0.5-2c-0.3-0.6-0.8-1.1-1.3-1.5
			c-0.5-0.5-1-0.9-1.6-1.4s-1.1-1-1.6-1.5c-0.5-0.5-0.9-1.2-1.3-1.8c-0.3-0.7-0.5-1.5-0.5-2.5c0-1.6,0.4-2.8,1.1-3.7
			C484.7,340,485.9,339.5,487.4,339.5z"/>
	</g>
	<g class="st8">
		<path class="st2" d="M300.1,374.7c1.6,0,2.8,0.4,3.5,1.3c0.7,0.9,1.1,2.1,1.1,3.6v2.4c0,1.6-0.4,2.8-1.1,3.7
			c-0.8,0.8-2,1.2-3.6,1.2h-2v8h-2.3v-20.3H300.1z M300,385c0.9,0,1.5-0.2,1.9-0.6c0.4-0.4,0.6-1.1,0.6-2.1v-2.7
			c0-0.9-0.2-1.6-0.5-2.1c-0.4-0.5-1-0.7-1.8-0.7H298v8.2H300z"/>
		<path class="st2" d="M311,374.7c1.6,0,2.8,0.4,3.5,1.2c0.7,0.8,1.1,1.9,1.1,3.5v1.7c0,1.1-0.2,2-0.6,2.7c-0.4,0.7-1,1.2-1.9,1.5
			c0.9,0.3,1.6,0.8,2,1.5c0.4,0.7,0.6,1.6,0.6,2.7v3.2c0,0.4,0,0.9,0.1,1.3c0,0.4,0.2,0.8,0.3,1.1h-2.3c-0.1-0.3-0.2-0.6-0.3-0.9
			c-0.1-0.3-0.1-0.8-0.1-1.5v-3.2c0-1.1-0.3-1.9-0.8-2.4c-0.5-0.4-1.2-0.7-2.2-0.7h-1.6v8.7h-2.3v-20.3H311z M310.4,384.3
			c0.9,0,1.6-0.2,2.1-0.6s0.8-1.1,0.8-2.2v-1.9c0-0.9-0.2-1.6-0.5-2.1c-0.4-0.5-1-0.7-1.8-0.7h-2.2v7.5H310.4z"/>
		<path class="st2" d="M317.7,379.6c0-1.6,0.4-2.8,1.1-3.7c0.8-0.9,1.9-1.4,3.5-1.4s2.7,0.5,3.5,1.4s1.2,2.2,1.2,3.7v10.5
			c0,1.5-0.4,2.8-1.2,3.7c-0.8,0.9-1.9,1.4-3.5,1.4s-2.7-0.5-3.5-1.4c-0.8-0.9-1.1-2.2-1.1-3.7V379.6z M319.9,390.2
			c0,0.9,0.2,1.6,0.6,2.2c0.4,0.5,1,0.8,1.8,0.8c0.8,0,1.4-0.3,1.8-0.8c0.4-0.5,0.6-1.2,0.6-2.2v-10.7c0-0.9-0.2-1.6-0.6-2.2
			c-0.4-0.5-1-0.8-1.8-0.8c-0.8,0-1.4,0.3-1.8,0.8c-0.4,0.5-0.6,1.2-0.6,2.2V390.2z"/>
		<path class="st2" d="M336.1,384.2v2.1h-4.7v8.8h-2.3v-20.3h8.1v2.1h-5.8v7.4H336.1z"/>
		<path class="st2" d="M346.2,383.7v2h-5v7.2h6.1v2.1H339v-20.3h8.4v2.1h-6.1v6.9H346.2z"/>
		<path class="st2" d="M353.7,374.5c1.5,0,2.7,0.5,3.4,1.4s1.1,2.2,1.1,3.7v0.6h-2.1v-0.7c0-0.9-0.2-1.6-0.6-2.1
			c-0.4-0.5-1-0.8-1.8-0.8c-0.8,0-1.4,0.3-1.8,0.8c-0.4,0.5-0.6,1.2-0.6,2.1c0,0.8,0.2,1.4,0.5,2c0.3,0.6,0.8,1.1,1.3,1.6
			c0.5,0.5,1,0.9,1.6,1.4s1.1,1,1.6,1.5c0.5,0.5,0.9,1.2,1.3,1.8c0.3,0.7,0.5,1.5,0.5,2.5c0,1.5-0.4,2.8-1.1,3.7
			c-0.7,0.9-1.9,1.4-3.5,1.4c-1.6,0-2.7-0.5-3.5-1.4c-0.7-0.9-1.1-2.2-1.1-3.7V389h2.1v1.3c0,0.9,0.2,1.6,0.6,2.1
			c0.4,0.5,1,0.8,1.8,0.8c0.8,0,1.4-0.3,1.8-0.8c0.4-0.5,0.6-1.2,0.6-2.1c0-0.8-0.2-1.4-0.5-2c-0.3-0.6-0.8-1.1-1.3-1.5
			c-0.5-0.5-1-0.9-1.6-1.4s-1.1-1-1.6-1.5c-0.5-0.5-0.9-1.2-1.3-1.8c-0.3-0.7-0.5-1.5-0.5-2.5c0-1.6,0.4-2.8,1.1-3.7
			C351.1,375,352.2,374.5,353.7,374.5z"/>
		<path class="st2" d="M364.5,374.5c1.5,0,2.7,0.5,3.4,1.4s1.1,2.2,1.1,3.7v0.6h-2.1v-0.7c0-0.9-0.2-1.6-0.6-2.1
			c-0.4-0.5-1-0.8-1.8-0.8c-0.8,0-1.4,0.3-1.8,0.8c-0.4,0.5-0.6,1.2-0.6,2.1c0,0.8,0.2,1.4,0.5,2c0.3,0.6,0.8,1.1,1.3,1.6
			c0.5,0.5,1,0.9,1.6,1.4s1.1,1,1.6,1.5c0.5,0.5,0.9,1.2,1.3,1.8c0.3,0.7,0.5,1.5,0.5,2.5c0,1.5-0.4,2.8-1.1,3.7
			c-0.7,0.9-1.9,1.4-3.5,1.4c-1.6,0-2.7-0.5-3.5-1.4c-0.7-0.9-1.1-2.2-1.1-3.7V389h2.1v1.3c0,0.9,0.2,1.6,0.6,2.1
			c0.4,0.5,1,0.8,1.8,0.8c0.8,0,1.4-0.3,1.8-0.8c0.4-0.5,0.6-1.2,0.6-2.1c0-0.8-0.2-1.4-0.5-2c-0.3-0.6-0.8-1.1-1.3-1.5
			c-0.5-0.5-1-0.9-1.6-1.4s-1.1-1-1.6-1.5c-0.5-0.5-0.9-1.2-1.3-1.8c-0.3-0.7-0.5-1.5-0.5-2.5c0-1.6,0.4-2.8,1.1-3.7
			C361.9,375,363,374.5,364.5,374.5z"/>
		<path class="st2" d="M373.3,374.7V395H371v-20.3H373.3z"/>
		<path class="st2" d="M375.4,379.6c0-1.6,0.4-2.8,1.1-3.7c0.8-0.9,1.9-1.4,3.5-1.4s2.7,0.5,3.5,1.4s1.2,2.2,1.2,3.7v10.5
			c0,1.5-0.4,2.8-1.2,3.7c-0.8,0.9-1.9,1.4-3.5,1.4s-2.7-0.5-3.5-1.4c-0.8-0.9-1.1-2.2-1.1-3.7V379.6z M377.7,390.2
			c0,0.9,0.2,1.6,0.6,2.2c0.4,0.5,1,0.8,1.8,0.8c0.8,0,1.4-0.3,1.8-0.8c0.4-0.5,0.6-1.2,0.6-2.2v-10.7c0-0.9-0.2-1.6-0.6-2.2
			c-0.4-0.5-1-0.8-1.8-0.8c-0.8,0-1.4,0.3-1.8,0.8c-0.4,0.5-0.6,1.2-0.6,2.2V390.2z"/>
		<path class="st2" d="M388.9,395h-2v-20.3h2.9l4.7,14.7v-14.7h2V395h-2.3l-5.2-16.4V395z"/>
		<path class="st2" d="M400.8,395h-2v-20.3h2.9l4.7,14.7v-14.7h2V395H406l-5.2-16.4V395z"/>
		<path class="st2" d="M417.8,383.7v2h-5v7.2h6.1v2.1h-8.4v-20.3h8.4v2.1h-6.1v6.9H417.8z"/>
		<path class="st2" d="M421.1,395v-20.3h2.3v18.2h5.8v2.1H421.1z"/>
		<path class="st2" d="M435.1,374.5c1.5,0,2.7,0.5,3.4,1.4s1.1,2.2,1.1,3.7v0.6h-2.1v-0.7c0-0.9-0.2-1.6-0.6-2.1
			c-0.4-0.5-1-0.8-1.8-0.8c-0.8,0-1.4,0.3-1.8,0.8c-0.4,0.5-0.6,1.2-0.6,2.1c0,0.8,0.2,1.4,0.5,2c0.3,0.6,0.8,1.1,1.3,1.6
			c0.5,0.5,1,0.9,1.6,1.4s1.1,1,1.6,1.5c0.5,0.5,0.9,1.2,1.3,1.8c0.3,0.7,0.5,1.5,0.5,2.5c0,1.5-0.4,2.8-1.1,3.7
			c-0.7,0.9-1.9,1.4-3.5,1.4c-1.6,0-2.7-0.5-3.5-1.4c-0.7-0.9-1.1-2.2-1.1-3.7V389h2.1v1.3c0,0.9,0.2,1.6,0.6,2.1
			c0.4,0.5,1,0.8,1.8,0.8c0.8,0,1.4-0.3,1.8-0.8c0.4-0.5,0.6-1.2,0.6-2.1c0-0.8-0.2-1.4-0.5-2c-0.3-0.6-0.8-1.1-1.3-1.5
			c-0.5-0.5-1-0.9-1.6-1.4s-1.1-1-1.6-1.5c-0.5-0.5-0.9-1.2-1.3-1.8c-0.3-0.7-0.5-1.5-0.5-2.5c0-1.6,0.4-2.8,1.1-3.7
			C432.4,375,433.6,374.5,435.1,374.5z"/>
	</g>
	<g class="st8">
		<path class="st9" d="M342.7,37.2l10.4-24.6h6.2v24.6h2.7v5.2h-2.7V49h-5.6v-6.6h-11V37.2z M353.8,37.2V23.5L348,37.2H353.8z"/>
		<path class="st9" d="M364.2,21.3c0-2.9,0.7-5.2,2.2-6.8c1.5-1.6,3.6-2.4,6.4-2.4s5,0.8,6.4,2.4c1.5,1.6,2.2,3.8,2.2,6.8v18.9
			c0,2.9-0.7,5.2-2.2,6.8c-1.5,1.6-3.6,2.4-6.4,2.4s-5-0.8-6.4-2.4c-1.5-1.6-2.2-3.8-2.2-6.8V21.3z M369.9,40.6
			c0,1.3,0.3,2.2,0.8,2.8c0.5,0.5,1.3,0.8,2.2,0.8s1.6-0.3,2.2-0.8c0.5-0.5,0.8-1.5,0.8-2.8V21c0-1.3-0.3-2.2-0.8-2.8
			c-0.5-0.5-1.3-0.8-2.2-0.8s-1.6,0.3-2.2,0.8c-0.5,0.5-0.8,1.5-0.8,2.8V40.6z"/>
		<path class="st9" d="M395.5,28.8h7v4.1h-7V40h-4.1v-7.1h-7v-4.1h7v-7h4.1V28.8z"/>
	</g>
	<g class="st8">
		<path class="st10" d="M597.6,158.2c1.1,0,2-0.1,2.7-0.4c0.7-0.2,1.3-0.6,1.7-1c0.5-0.4,0.8-0.9,1.1-1.5c0.3-0.6,0.5-1.1,0.7-1.8
			h3.8V190H602v-27.8h-4.4V158.2z"/>
		<path class="st10" d="M622.3,162.3c0-2.9,0.7-5.2,2.2-6.8c1.5-1.6,3.6-2.4,6.4-2.4s5,0.8,6.4,2.4c1.5,1.6,2.2,3.8,2.2,6.8v18.9
			c0,2.9-0.7,5.2-2.2,6.8c-1.5,1.6-3.6,2.4-6.4,2.4s-5-0.8-6.4-2.4c-1.5-1.6-2.2-3.8-2.2-6.8V162.3z M628,181.6
			c0,1.3,0.3,2.2,0.8,2.8c0.5,0.5,1.3,0.8,2.2,0.8s1.6-0.3,2.2-0.8c0.5-0.5,0.8-1.5,0.8-2.8V162c0-1.3-0.3-2.2-0.8-2.8
			c-0.5-0.5-1.3-0.8-2.2-0.8s-1.6,0.3-2.2,0.8c-0.5,0.5-0.8,1.5-0.8,2.8V181.6z"/>
		<path class="st10" d="M642.9,162.3c0-2.9,0.7-5.2,2.2-6.8c1.5-1.6,3.6-2.4,6.4-2.4s5,0.8,6.4,2.4c1.5,1.6,2.2,3.8,2.2,6.8v18.9
			c0,2.9-0.7,5.2-2.2,6.8c-1.5,1.6-3.6,2.4-6.4,2.4s-5-0.8-6.4-2.4c-1.5-1.6-2.2-3.8-2.2-6.8V162.3z M648.6,181.6
			c0,1.3,0.3,2.2,0.8,2.8c0.5,0.5,1.3,0.8,2.2,0.8s1.6-0.3,2.2-0.8c0.5-0.5,0.8-1.5,0.8-2.8V162c0-1.3-0.3-2.2-0.8-2.8
			c-0.5-0.5-1.3-0.8-2.2-0.8s-1.6,0.3-2.2,0.8c-0.5,0.5-0.8,1.5-0.8,2.8V181.6z"/>
		<path class="st10" d="M663.4,162.3c0-2.9,0.7-5.2,2.2-6.8c1.5-1.6,3.6-2.4,6.4-2.4s5,0.8,6.4,2.4c1.5,1.6,2.2,3.8,2.2,6.8v18.9
			c0,2.9-0.7,5.2-2.2,6.8c-1.5,1.6-3.6,2.4-6.4,2.4s-5-0.8-6.4-2.4c-1.5-1.6-2.2-3.8-2.2-6.8V162.3z M669.2,181.6
			c0,1.3,0.3,2.2,0.8,2.8c0.5,0.5,1.3,0.8,2.2,0.8s1.6-0.3,2.2-0.8c0.5-0.5,0.8-1.5,0.8-2.8V162c0-1.3-0.3-2.2-0.8-2.8
			c-0.5-0.5-1.3-0.8-2.2-0.8s-1.6,0.3-2.2,0.8c-0.5,0.5-0.8,1.5-0.8,2.8V181.6z"/>
		<path class="st10" d="M702.8,169.8h7v4.1h-7v7.1h-4.1v-7.1h-7v-4.1h7v-7h4.1V169.8z"/>
	</g>
	<g class="st8">
		<path class="st11" d="M309.2,595.3c0,2.9-0.8,5.2-2.3,6.8c-1.5,1.6-3.7,2.4-6.7,2.4s-5.1-0.8-6.7-2.4c-1.5-1.6-2.3-3.8-2.3-6.8
			v-2.9c0-1.8,0.3-3.3,0.8-4.6c0.6-1.3,1.5-2.3,2.7-3c-2.4-1.3-3.5-3.7-3.5-7.3v-1.1c0-2.9,0.8-5.2,2.3-6.8c1.5-1.6,3.7-2.4,6.7-2.4
			s5.1,0.8,6.7,2.4c1.5,1.6,2.3,3.8,2.3,6.8v1.1c0,3.6-1.2,6-3.5,7.3c1.2,0.7,2.1,1.7,2.7,3c0.6,1.3,0.8,2.8,0.8,4.6V595.3z
			 M297.1,578.6c0,1.5,0.3,2.5,0.9,3c0.6,0.6,1.4,0.8,2.3,0.8c0.9,0,1.7-0.3,2.3-0.8s0.9-1.6,0.9-3v-2c0-1.6-0.3-2.7-0.9-3.3
			s-1.4-0.9-2.3-0.9c-0.9,0-1.7,0.3-2.3,0.9s-0.9,1.7-0.9,3.3V578.6z M297.1,595.1c0,1.6,0.3,2.7,0.9,3.3c0.6,0.6,1.4,0.8,2.3,0.8
			c0.9,0,1.7-0.3,2.3-0.8c0.6-0.6,0.9-1.6,1-3.3v-3.4c0-1.5-0.3-2.5-0.9-3.1c-0.6-0.6-1.4-1-2.4-1c-1,0-1.8,0.3-2.4,1
			c-0.6,0.6-0.9,1.7-0.9,3.1V595.1z"/>
		<path class="st11" d="M332.8,593.4l3.9-25.8h8V604h-5.4v-26.1l-4,26.1h-5.4l-4.3-25.7V604h-5v-36.4h8L332.8,593.4z"/>
		<path class="st11" d="M348.9,567.6h5.7V604h-5.7V567.6z"/>
		<path class="st11" d="M358.7,567.6h5.7v31.2h9.4v5.2h-15.1V567.6z"/>
		<path class="st11" d="M376.4,567.6h5.7v31.2h9.4v5.2h-15.1V567.6z"/>
		<path class="st11" d="M394,567.6h5.7V604H394V567.6z"/>
		<path class="st11" d="M403.4,576.3c0-2.9,0.7-5.2,2.2-6.8c1.5-1.6,3.6-2.4,6.4-2.4s5,0.8,6.4,2.4c1.5,1.6,2.2,3.8,2.2,6.8v18.9
			c0,2.9-0.7,5.2-2.2,6.8c-1.5,1.6-3.6,2.4-6.4,2.4s-5-0.8-6.4-2.4c-1.5-1.6-2.2-3.8-2.2-6.8V576.3z M409.1,595.6
			c0,1.3,0.3,2.2,0.8,2.8c0.5,0.5,1.3,0.8,2.2,0.8s1.6-0.3,2.2-0.8c0.5-0.5,0.8-1.5,0.8-2.8V576c0-1.3-0.3-2.2-0.8-2.8
			c-0.5-0.5-1.3-0.8-2.2-0.8s-1.6,0.3-2.2,0.8c-0.5,0.5-0.8,1.5-0.8,2.8V595.6z"/>
		<path class="st11" d="M429.6,577.6V604h-5.1v-36.4h7.2l5.9,21.8v-21.8h5.1V604h-5.9L429.6,577.6z"/>
		<path class="st11" d="M445.9,576.3c0-2.9,0.7-5.2,2.1-6.8c1.4-1.6,3.5-2.4,6.3-2.4c2.8,0,4.9,0.8,6.3,2.4c1.4,1.6,2.1,3.8,2.1,6.8
			v1.1h-5.4V576c0-1.3-0.3-2.2-0.8-2.8c-0.5-0.5-1.2-0.8-2.1-0.8s-1.6,0.3-2.1,0.8c-0.5,0.5-0.8,1.5-0.8,2.8c0,1.2,0.3,2.3,0.8,3.3
			c0.6,1,1.2,1.9,2.1,2.7s1.7,1.7,2.7,2.5c1,0.9,1.8,1.8,2.7,2.8s1.5,2.1,2.1,3.4s0.8,2.8,0.8,4.5c0,2.9-0.7,5.2-2.2,6.8
			c-1.4,1.6-3.6,2.4-6.4,2.4c-2.8,0-4.9-0.8-6.4-2.4c-1.4-1.6-2.2-3.8-2.2-6.8V593h5.4v2.6c0,1.3,0.3,2.2,0.8,2.8
			c0.5,0.5,1.3,0.8,2.2,0.8c0.9,0,1.6-0.3,2.2-0.8c0.5-0.5,0.8-1.4,0.8-2.8c0-1.2-0.3-2.3-0.8-3.3c-0.6-1-1.2-1.9-2.1-2.7
			c-0.8-0.8-1.7-1.7-2.7-2.5c-1-0.8-1.8-1.8-2.7-2.8c-0.8-1-1.5-2.1-2.1-3.4C446.2,579.6,445.9,578.1,445.9,576.3z"/>
	</g>
	<g class="st8">
		<path class="st12" d="M623.9,420c0,3.1-0.7,5.4-2.1,7c-1.4,1.6-3.6,2.4-6.6,2.4c-2.8,0-4.9-0.8-6.4-2.4c-1.4-1.6-2.2-3.8-2.2-6.8
			v-0.9h5.4v1.3c0,1.3,0.3,2.2,0.8,2.8c0.5,0.5,1.3,0.8,2.2,0.8c1,0,1.8-0.3,2.3-0.9c0.6-0.6,0.8-1.8,0.8-3.5v-6.7
			c-1,2.2-2.8,3.2-5.3,3.2c-2.1,0-3.7-0.7-4.8-2.1c-1.1-1.4-1.6-3.5-1.6-6.2v-6.7c0-2.9,0.7-5.2,2.2-6.8c1.5-1.6,3.6-2.4,6.4-2.4
			c2.8,0,5,0.8,6.4,2.4c1.5,1.6,2.2,3.8,2.2,6.8V420z M615.2,411.1c0.9,0,1.6-0.3,2.2-0.8s0.8-1.5,0.8-2.8V401
			c0-1.3-0.3-2.2-0.8-2.8s-1.3-0.8-2.2-0.8c-0.9,0-1.6,0.3-2.2,0.8c-0.5,0.5-0.8,1.4-0.8,2.8v6.6c0,1.3,0.3,2.2,0.8,2.8
			C613.6,410.8,614.3,411.1,615.2,411.1z"/>
		<path class="st12" d="M652.9,420.3c0,2.9-0.8,5.2-2.3,6.8c-1.5,1.6-3.7,2.4-6.7,2.4s-5.1-0.8-6.7-2.4c-1.5-1.6-2.3-3.8-2.3-6.8
			v-2.9c0-1.8,0.3-3.3,0.8-4.6s1.5-2.3,2.7-3c-2.4-1.3-3.5-3.7-3.5-7.3v-1.1c0-2.9,0.8-5.2,2.3-6.8c1.5-1.6,3.7-2.4,6.7-2.4
			s5.1,0.8,6.7,2.4c1.5,1.6,2.3,3.8,2.3,6.8v1.1c0,3.6-1.2,6-3.5,7.3c1.2,0.7,2.1,1.7,2.7,3c0.6,1.3,0.8,2.8,0.8,4.6V420.3z
			 M640.7,403.6c0,1.5,0.3,2.5,0.9,3c0.6,0.6,1.4,0.8,2.3,0.8c0.9,0,1.7-0.3,2.3-0.8s0.9-1.6,0.9-3v-2c0-1.6-0.3-2.7-0.9-3.3
			s-1.4-0.9-2.3-0.9s-1.7,0.3-2.3,0.9s-0.9,1.7-0.9,3.3V403.6z M640.7,420.1c0,1.6,0.3,2.7,0.9,3.3c0.6,0.6,1.4,0.8,2.3,0.8
			s1.7-0.3,2.3-0.8c0.6-0.6,0.9-1.6,1-3.3v-3.4c0-1.5-0.3-2.5-0.9-3.1c-0.6-0.6-1.4-1-2.4-1c-1,0-1.8,0.3-2.4,1
			c-0.6,0.6-0.9,1.7-0.9,3.1V420.1z"/>
		<path class="st12" d="M656,401.6c0-3.1,0.7-5.4,2.1-7c1.4-1.6,3.6-2.4,6.6-2.4c2.8,0,4.9,0.8,6.4,2.4c1.4,1.6,2.2,3.8,2.2,6.8v0.9
			h-5.4V401c0-1.3-0.3-2.2-0.8-2.8c-0.5-0.5-1.3-0.8-2.2-0.8c-1,0-1.8,0.3-2.3,0.9c-0.6,0.6-0.8,1.8-0.8,3.5v6.7
			c1-2.1,2.8-3.2,5.3-3.2c2.1,0,3.7,0.7,4.8,2.1c1.1,1.4,1.6,3.5,1.6,6.2v6.7c0,2.9-0.7,5.2-2.2,6.8c-1.5,1.6-3.6,2.4-6.4,2.4
			c-2.8,0-5-0.8-6.4-2.4c-1.5-1.6-2.2-3.8-2.2-6.8V401.6z M664.6,410.5c-0.9,0-1.6,0.3-2.2,0.8c-0.5,0.5-0.8,1.5-0.8,2.8v6.6
			c0,1.3,0.3,2.2,0.8,2.8c0.5,0.5,1.3,0.8,2.2,0.8c0.9,0,1.6-0.3,2.2-0.8c0.5-0.5,0.8-1.4,0.8-2.8v-6.6c0-1.3-0.3-2.2-0.8-2.8
			C666.3,410.8,665.5,410.5,664.6,410.5z"/>
		<path class="st12" d="M693.7,420c0,3.1-0.7,5.4-2.1,7c-1.4,1.6-3.6,2.4-6.6,2.4c-2.8,0-4.9-0.8-6.4-2.4c-1.4-1.6-2.2-3.8-2.2-6.8
			v-0.9h5.4v1.3c0,1.3,0.3,2.2,0.8,2.8c0.5,0.5,1.3,0.8,2.2,0.8c1,0,1.8-0.3,2.3-0.9c0.6-0.6,0.8-1.8,0.8-3.5v-6.7
			c-1,2.2-2.8,3.2-5.3,3.2c-2.1,0-3.7-0.7-4.8-2.1c-1.1-1.4-1.6-3.5-1.6-6.2v-6.7c0-2.9,0.7-5.2,2.2-6.8c1.5-1.6,3.6-2.4,6.4-2.4
			c2.8,0,5,0.8,6.4,2.4c1.5,1.6,2.2,3.8,2.2,6.8V420z M685,411.1c0.9,0,1.6-0.3,2.2-0.8s0.8-1.5,0.8-2.8V401c0-1.3-0.3-2.2-0.8-2.8
			s-1.3-0.8-2.2-0.8c-0.9,0-1.6,0.3-2.2,0.8c-0.5,0.5-0.8,1.4-0.8,2.8v6.6c0,1.3,0.3,2.2,0.8,2.8C683.4,410.8,684.1,411.1,685,411.1
			z"/>
	</g>
	<g class="st8">
		<path class="st13" d="M60.7,146.6c0-3.1,0.7-5.4,2.1-7c1.4-1.6,3.6-2.4,6.6-2.4c2.8,0,4.9,0.8,6.4,2.4c1.4,1.6,2.2,3.8,2.2,6.8
			v0.9h-5.4V146c0-1.3-0.3-2.2-0.8-2.8c-0.5-0.5-1.3-0.8-2.2-0.8c-1,0-1.8,0.3-2.3,0.9c-0.6,0.6-0.8,1.8-0.8,3.5v6.7
			c1-2.1,2.8-3.2,5.3-3.2c2.1,0,3.7,0.7,4.8,2.1c1.1,1.4,1.6,3.5,1.6,6.2v6.7c0,2.9-0.7,5.2-2.2,6.8c-1.5,1.6-3.6,2.4-6.4,2.4
			s-5-0.8-6.4-2.4c-1.5-1.6-2.2-3.8-2.2-6.8V146.6z M69.4,155.5c-0.9,0-1.6,0.3-2.2,0.8c-0.5,0.5-0.8,1.5-0.8,2.8v6.6
			c0,1.3,0.3,2.2,0.8,2.8c0.5,0.5,1.3,0.8,2.2,0.8c0.9,0,1.6-0.3,2.2-0.8c0.5-0.5,0.8-1.4,0.8-2.8v-6.6c0-1.3-0.3-2.2-0.8-2.8
			C71,155.8,70.3,155.5,69.4,155.5z"/>
		<path class="st13" d="M98.8,165.3c0,2.9-0.8,5.2-2.3,6.8c-1.5,1.6-3.7,2.4-6.7,2.4s-5.1-0.8-6.7-2.4c-1.5-1.6-2.3-3.8-2.3-6.8
			v-2.9c0-1.8,0.3-3.3,0.8-4.6c0.6-1.3,1.5-2.3,2.7-3c-2.4-1.3-3.5-3.7-3.5-7.3v-1.1c0-2.9,0.8-5.2,2.3-6.8c1.5-1.6,3.7-2.4,6.7-2.4
			s5.1,0.8,6.7,2.4c1.5,1.6,2.3,3.8,2.3,6.8v1.1c0,3.6-1.2,6-3.5,7.3c1.2,0.7,2.1,1.7,2.7,3c0.6,1.3,0.8,2.8,0.8,4.6V165.3z
			 M86.7,148.6c0,1.5,0.3,2.5,0.9,3c0.6,0.6,1.4,0.8,2.3,0.8c0.9,0,1.7-0.3,2.3-0.8c0.6-0.6,0.9-1.6,0.9-3v-2c0-1.6-0.3-2.7-0.9-3.3
			c-0.6-0.6-1.4-0.9-2.3-0.9s-1.7,0.3-2.3,0.9c-0.6,0.6-0.9,1.7-0.9,3.3V148.6z M86.7,165.1c0,1.6,0.3,2.7,0.9,3.3
			c0.6,0.6,1.4,0.8,2.3,0.8s1.7-0.3,2.3-0.8c0.6-0.6,0.9-1.6,1-3.3v-3.4c0-1.5-0.3-2.5-0.9-3.1c-0.6-0.6-1.4-1-2.4-1
			c-1,0-1.8,0.3-2.4,1c-0.6,0.6-0.9,1.7-0.9,3.1V165.1z"/>
	</g>
	<g class="st8">
		<path class="st10" d="M78.4,410.5c0-1.6-0.3-2.7-0.8-3.3c-0.5-0.6-1.3-0.9-2.2-0.9c-0.9,0-1.6,0.3-2.2,0.8
			c-0.5,0.5-0.8,1.5-0.8,2.8v3.9h-5.4v-3.5c0-2.9,0.7-5.2,2.2-6.8c1.4-1.6,3.6-2.4,6.4-2.4s4.9,0.8,6.4,2.4c1.4,1.6,2.2,3.8,2.2,6.8
			c0,1.9-0.3,3.6-0.8,5.2c-0.6,1.5-1.3,2.9-2.1,4.2c-0.9,1.3-1.8,2.4-2.8,3.5c-1,1.1-1.9,2.1-2.8,3.1c-0.9,1-1.6,1.9-2.1,2.8
			c-0.6,0.9-0.8,1.9-0.8,2.9c0,0.3,0,0.6,0.1,0.8h10.8v5.2H67.1v-4.5c0-1.8,0.3-3.3,0.8-4.7c0.6-1.4,1.3-2.6,2.1-3.7
			c0.8-1.1,1.8-2.2,2.7-3.2c1-1,1.9-2,2.7-3.1c0.8-1.1,1.6-2.3,2.1-3.6C78.1,413.9,78.4,412.3,78.4,410.5z"/>
		<path class="st10" d="M99,410.5c0-1.6-0.3-2.7-0.8-3.3c-0.5-0.6-1.3-0.9-2.2-0.9c-0.9,0-1.6,0.3-2.2,0.8c-0.5,0.5-0.8,1.5-0.8,2.8
			v3.9h-5.4v-3.5c0-2.9,0.7-5.2,2.2-6.8c1.4-1.6,3.6-2.4,6.4-2.4c2.8,0,4.9,0.8,6.4,2.4c1.4,1.6,2.2,3.8,2.2,6.8
			c0,1.9-0.3,3.6-0.8,5.2c-0.6,1.5-1.3,2.9-2.1,4.2c-0.9,1.3-1.8,2.4-2.8,3.5c-1,1.1-1.9,2.1-2.8,3.1c-0.8,1-1.6,1.9-2.1,2.8
			c-0.6,0.9-0.8,1.9-0.8,2.9c0,0.3,0,0.6,0.1,0.8h10.8v5.2H87.7v-4.5c0-1.8,0.3-3.3,0.8-4.7c0.6-1.4,1.3-2.6,2.1-3.7
			c0.8-1.1,1.8-2.2,2.7-3.2c1-1,1.9-2,2.7-3.1s1.6-2.3,2.1-3.6C98.7,413.9,99,412.3,99,410.5z"/>
	</g>
	<g class="st8">
		<path class="st2" d="M609.2,212.2v1.8H605v6.2h5.2v1.8H603v-17.5h7.2v1.8H605v6H609.2z"/>
		<path class="st2" d="M616.3,214.5l-2.9,7.5h-1.8l3.5-9l-3.3-8.5h2l2.7,7l2.7-7h1.8l-3.3,8.5l3.5,9h-2L616.3,214.5z"/>
		<path class="st2" d="M626.7,204.5c1.4,0,2.4,0.4,3,1.1c0.6,0.8,0.9,1.8,0.9,3.1v2.1c0,1.4-0.3,2.5-1,3.2c-0.7,0.7-1.7,1.1-3.1,1.1
			h-1.7v6.9h-2v-17.5H626.7z M626.5,213.3c0.7,0,1.3-0.2,1.6-0.5c0.4-0.4,0.5-1,0.5-1.8v-2.3c0-0.8-0.2-1.4-0.5-1.8
			s-0.8-0.6-1.5-0.6h-1.9v7.1H626.5z"/>
		<path class="st2" d="M632.1,208.7c0-1.3,0.3-2.4,1-3.2c0.7-0.8,1.7-1.2,3-1.2c1.4,0,2.4,0.4,3,1.2c0.7,0.8,1,1.9,1,3.2v9.1
			c0,1.3-0.3,2.4-1,3.2c-0.7,0.8-1.7,1.2-3,1.2c-1.3,0-2.4-0.4-3-1.2c-0.7-0.8-1-1.9-1-3.2V208.7z M634,217.9c0,0.8,0.2,1.4,0.5,1.9
			c0.3,0.4,0.9,0.7,1.6,0.7c0.7,0,1.2-0.2,1.6-0.7c0.3-0.4,0.5-1.1,0.5-1.9v-9.2c0-0.8-0.2-1.4-0.5-1.9s-0.9-0.7-1.6-0.7
			c-0.7,0-1.2,0.2-1.6,0.7s-0.5,1.1-0.5,1.9V217.9z"/>
		<path class="st2" d="M645.6,204.3c1.3,0,2.3,0.4,3,1.2c0.6,0.8,1,1.9,1,3.2v0.5h-1.9v-0.6c0-0.8-0.2-1.4-0.5-1.8
			c-0.3-0.4-0.8-0.6-1.5-0.6c-0.7,0-1.2,0.2-1.5,0.6c-0.3,0.4-0.5,1-0.5,1.8c0,0.6,0.1,1.2,0.4,1.7c0.3,0.5,0.7,0.9,1.1,1.3
			c0.4,0.4,0.9,0.8,1.4,1.2c0.5,0.4,1,0.8,1.4,1.3c0.4,0.5,0.8,1,1.1,1.6c0.3,0.6,0.4,1.3,0.4,2.1c0,1.3-0.3,2.4-1,3.2
			c-0.6,0.8-1.6,1.2-3,1.2c-1.4,0-2.3-0.4-3-1.2c-0.6-0.8-1-1.9-1-3.2v-1h1.8v1.1c0,0.8,0.2,1.4,0.5,1.8s0.9,0.7,1.5,0.7
			c0.7,0,1.2-0.2,1.6-0.7c0.3-0.4,0.5-1,0.5-1.8c0-0.7-0.1-1.2-0.4-1.7c-0.3-0.5-0.7-0.9-1.1-1.3s-0.9-0.8-1.4-1.2s-1-0.8-1.4-1.3
			c-0.4-0.5-0.8-1-1.1-1.6s-0.4-1.3-0.4-2.1c0-1.4,0.3-2.4,1-3.2C643.3,204.7,644.3,204.3,645.6,204.3z"/>
		<path class="st2" d="M653.2,218.5l-0.7,3.5h-1.8l3.3-17.5h2.8l3.4,17.5h-2l-0.7-3.5H653.2z M653.5,216.8h3.9l-2-10.1L653.5,216.8z
			"/>
		<path class="st2" d="M663.5,222h-1.8v-17.5h2.5l4,12.7v-12.7h1.7V222h-2l-4.5-14.1V222z"/>
		<path class="st2" d="M674.6,222v-15.7h-3.2v-1.8h8.4v1.8h-3.2V222H674.6z"/>
		<path class="st2" d="M684.8,204.3c1.3,0,2.3,0.4,3,1.2c0.6,0.8,1,1.9,1,3.2v0.5h-1.9v-0.6c0-0.8-0.2-1.4-0.5-1.8
			c-0.3-0.4-0.8-0.6-1.5-0.6c-0.7,0-1.2,0.2-1.5,0.6c-0.3,0.4-0.5,1-0.5,1.8c0,0.6,0.1,1.2,0.4,1.7c0.3,0.5,0.7,0.9,1.1,1.3
			c0.4,0.4,0.9,0.8,1.4,1.2c0.5,0.4,1,0.8,1.4,1.3c0.4,0.5,0.8,1,1.1,1.6c0.3,0.6,0.4,1.3,0.4,2.1c0,1.3-0.3,2.4-1,3.2
			c-0.6,0.8-1.6,1.2-3,1.2c-1.4,0-2.3-0.4-3-1.2c-0.6-0.8-1-1.9-1-3.2v-1h1.8v1.1c0,0.8,0.2,1.4,0.5,1.8s0.9,0.7,1.5,0.7
			c0.7,0,1.2-0.2,1.6-0.7c0.3-0.4,0.5-1,0.5-1.8c0-0.7-0.1-1.2-0.4-1.7c-0.3-0.5-0.7-0.9-1.1-1.3s-0.9-0.8-1.4-1.2s-1-0.8-1.4-1.3
			c-0.4-0.5-0.8-1-1.1-1.6s-0.4-1.3-0.4-2.1c0-1.4,0.3-2.4,1-3.2C682.5,204.7,683.5,204.3,684.8,204.3z"/>
	</g>
	<g class="st8">
		<path class="st2" d="M587.7,445.5c1.4,0,2.4,0.3,3,1s0.9,1.7,0.9,3v1.4c0,1-0.2,1.8-0.5,2.4c-0.4,0.6-0.9,1-1.7,1.2
			c0.8,0.2,1.4,0.7,1.7,1.3c0.3,0.6,0.5,1.4,0.5,2.4v2.7c0,0.4,0,0.8,0,1.1s0.1,0.7,0.3,1h-2c-0.1-0.2-0.2-0.5-0.2-0.8
			c0-0.3-0.1-0.7-0.1-1.3v-2.8c0-1-0.2-1.7-0.7-2c-0.4-0.4-1.1-0.6-1.9-0.6h-1.4v7.5h-2v-17.5H587.7z M587.2,453.8
			c0.8,0,1.4-0.2,1.8-0.5s0.7-1,0.7-1.9v-1.7c0-0.8-0.2-1.4-0.5-1.8s-0.8-0.6-1.6-0.6h-1.9v6.5H587.2z"/>
		<path class="st2" d="M599.8,453.2v1.8h-4.3v6.2h5.2v1.8h-7.2v-17.5h7.2v1.8h-5.2v6H599.8z"/>
		<path class="st2" d="M605.1,463v-15.7h-3.2v-1.8h8.4v1.8h-3.2V463H605.1z"/>
		<path class="st2" d="M611.5,449.7c0-1.3,0.3-2.4,1-3.2c0.7-0.8,1.7-1.2,3-1.2c1.4,0,2.4,0.4,3,1.2c0.7,0.8,1,1.9,1,3.2v9.1
			c0,1.3-0.3,2.4-1,3.2c-0.7,0.8-1.7,1.2-3,1.2c-1.3,0-2.4-0.4-3-1.2c-0.7-0.8-1-1.9-1-3.2V449.7z M613.5,458.9
			c0,0.8,0.2,1.4,0.5,1.9c0.3,0.4,0.9,0.7,1.6,0.7c0.7,0,1.2-0.2,1.6-0.7c0.3-0.4,0.5-1.1,0.5-1.9v-9.2c0-0.8-0.2-1.4-0.5-1.9
			s-0.9-0.7-1.6-0.7c-0.7,0-1.2,0.2-1.6,0.7s-0.5,1.1-0.5,1.9V458.9z"/>
		<path class="st2" d="M627.8,463H626l-2.9-13.9v14h-1.7v-17.5h2.7l2.9,14l2.8-14h2.7V463h-1.9v-14.1L627.8,463z"/>
		<path class="st2" d="M638.4,445.5c1.4,0,2.3,0.3,2.9,1c0.6,0.6,0.9,1.6,0.9,2.9v0.8c0,0.9-0.1,1.7-0.4,2.3c-0.3,0.6-0.8,1-1.6,1.2
			c0.9,0.2,1.5,0.7,1.8,1.3s0.5,1.5,0.5,2.4v1.5c0,1.3-0.3,2.3-1,3c-0.6,0.7-1.7,1.1-3,1.1h-4v-17.5H638.4z M637.9,452.9
			c0.8,0,1.4-0.2,1.8-0.5c0.4-0.3,0.6-0.9,0.6-1.9v-1c0-0.8-0.1-1.4-0.4-1.7s-0.8-0.6-1.5-0.6h-1.9v5.6H637.9z M638.5,461.2
			c1.4,0,2.1-0.8,2.1-2.4v-1.5c0-1-0.2-1.7-0.6-2s-1-0.6-1.9-0.6h-1.7v6.5H638.5z"/>
		<path class="st2" d="M650.5,453.2v1.8h-4.3v6.2h5.2v1.8h-7.2v-17.5h7.2v1.8h-5.2v6H650.5z M650.3,442l-2.3,2.6h-1.3l1.8-2.6H650.3
			z"/>
		<path class="st2" d="M659.5,453.2v1.8h-4.3v6.2h5.2v1.8h-7.2v-17.5h7.2v1.8h-5.2v6H659.5z"/>
		<path class="st2" d="M665.9,445.3c1.3,0,2.3,0.4,3,1.2c0.6,0.8,1,1.9,1,3.2v0.5H668v-0.6c0-0.8-0.2-1.4-0.5-1.8s-0.8-0.7-1.5-0.7
			c-0.7,0-1.2,0.2-1.5,0.7c-0.3,0.4-0.5,1-0.5,1.8c0,0.6,0.1,1.2,0.4,1.7c0.3,0.5,0.7,0.9,1.1,1.3c0.4,0.4,0.9,0.8,1.4,1.2
			c0.5,0.4,1,0.8,1.4,1.3c0.4,0.5,0.8,1,1.1,1.6c0.3,0.6,0.4,1.3,0.4,2.1c0,1.3-0.3,2.4-1,3.2c-0.6,0.8-1.6,1.2-3,1.2
			c-1.4,0-2.3-0.4-3-1.2c-0.6-0.8-1-1.9-1-3.2v-1h1.8v1.1c0,0.8,0.2,1.4,0.5,1.8s0.9,0.7,1.5,0.7c0.7,0,1.2-0.2,1.6-0.7
			c0.3-0.4,0.5-1,0.5-1.8c0-0.7-0.1-1.2-0.4-1.7c-0.3-0.5-0.7-0.9-1.1-1.3s-0.9-0.8-1.4-1.2s-1-0.8-1.4-1.3c-0.4-0.5-0.8-1-1.1-1.6
			s-0.4-1.3-0.4-2.1c0-1.4,0.3-2.4,1-3.2C663.7,445.7,664.6,445.3,665.9,445.3z"/>
		<path class="st2" d="M679.3,445.5c1.4,0,2.4,0.4,3,1.1c0.6,0.8,0.9,1.8,0.9,3.1v2.1c0,1.4-0.3,2.5-1,3.2c-0.7,0.7-1.7,1.1-3.1,1.1
			h-1.7v6.9h-2v-17.5H679.3z M679.1,454.3c0.7,0,1.3-0.2,1.6-0.5c0.4-0.4,0.5-1,0.5-1.8v-2.3c0-0.8-0.2-1.4-0.5-1.8
			s-0.8-0.6-1.5-0.6h-1.9v7.1H679.1z"/>
		<path class="st2" d="M688.7,445.5c1.4,0,2.4,0.3,3,1s0.9,1.7,0.9,3v1.4c0,1-0.2,1.8-0.5,2.4c-0.4,0.6-0.9,1-1.7,1.2
			c0.8,0.2,1.4,0.7,1.7,1.3c0.3,0.6,0.5,1.4,0.5,2.4v2.7c0,0.4,0,0.8,0,1.1s0.1,0.7,0.3,1h-2c-0.1-0.2-0.2-0.5-0.2-0.8
			c0-0.3-0.1-0.7-0.1-1.3v-2.8c0-1-0.2-1.7-0.7-2c-0.4-0.4-1.1-0.6-1.9-0.6h-1.4v7.5h-2v-17.5H688.7z M688.2,453.8
			c0.8,0,1.4-0.2,1.8-0.5s0.7-1,0.7-1.9v-1.7c0-0.8-0.2-1.4-0.5-1.8s-0.8-0.6-1.6-0.6h-1.9v6.5H688.2z"/>
		<path class="st2" d="M700.9,453.2v1.8h-4.3v6.2h5.2v1.8h-7.2v-17.5h7.2v1.8h-5.2v6H700.9z"/>
		<path class="st2" d="M707.3,445.3c1.3,0,2.3,0.4,3,1.2c0.6,0.8,1,1.9,1,3.2v0.5h-1.9v-0.6c0-0.8-0.2-1.4-0.5-1.8s-0.8-0.7-1.5-0.7
			c-0.7,0-1.2,0.2-1.5,0.7c-0.3,0.4-0.5,1-0.5,1.8c0,0.6,0.1,1.2,0.4,1.7c0.3,0.5,0.7,0.9,1.1,1.3c0.4,0.4,0.9,0.8,1.4,1.2
			c0.5,0.4,1,0.8,1.4,1.3c0.4,0.5,0.8,1,1.1,1.6c0.3,0.6,0.4,1.3,0.4,2.1c0,1.3-0.3,2.4-1,3.2c-0.6,0.8-1.6,1.2-3,1.2
			c-1.4,0-2.3-0.4-3-1.2c-0.6-0.8-1-1.9-1-3.2v-1h1.8v1.1c0,0.8,0.2,1.4,0.5,1.8s0.9,0.7,1.5,0.7c0.7,0,1.2-0.2,1.6-0.7
			c0.3-0.4,0.5-1,0.5-1.8c0-0.7-0.1-1.2-0.4-1.7c-0.3-0.5-0.7-0.9-1.1-1.3s-0.9-0.8-1.4-1.2s-1-0.8-1.4-1.3c-0.4-0.5-0.8-1-1.1-1.6
			s-0.4-1.3-0.4-2.1c0-1.4,0.3-2.4,1-3.2C705,445.7,706,445.3,707.3,445.3z"/>
		<path class="st2" d="M716.6,445.3c1.3,0,2.3,0.4,3,1.2c0.6,0.8,1,1.9,1,3.2v0.5h-1.9v-0.6c0-0.8-0.2-1.4-0.5-1.8s-0.8-0.7-1.5-0.7
			c-0.7,0-1.2,0.2-1.5,0.7c-0.3,0.4-0.5,1-0.5,1.8c0,0.6,0.1,1.2,0.4,1.7c0.3,0.5,0.7,0.9,1.1,1.3c0.4,0.4,0.9,0.8,1.4,1.2
			c0.5,0.4,1,0.8,1.4,1.3c0.4,0.5,0.8,1,1.1,1.6c0.3,0.6,0.4,1.3,0.4,2.1c0,1.3-0.3,2.4-1,3.2c-0.6,0.8-1.6,1.2-3,1.2
			c-1.4,0-2.3-0.4-3-1.2c-0.6-0.8-1-1.9-1-3.2v-1h1.8v1.1c0,0.8,0.2,1.4,0.5,1.8s0.9,0.7,1.5,0.7c0.7,0,1.2-0.2,1.6-0.7
			c0.3-0.4,0.5-1,0.5-1.8c0-0.7-0.1-1.2-0.4-1.7c-0.3-0.5-0.7-0.9-1.1-1.3s-0.9-0.8-1.4-1.2s-1-0.8-1.4-1.3c-0.4-0.5-0.8-1-1.1-1.6
			s-0.4-1.3-0.4-2.1c0-1.4,0.3-2.4,1-3.2C714.3,445.7,715.3,445.3,716.6,445.3z"/>
		<path class="st2" d="M728.5,453.2v1.8h-4.3v6.2h5.2v1.8h-7.2v-17.5h7.2v1.8h-5.2v6H728.5z"/>
	</g>
	<g class="st8">
		<path class="st2" d="M288.6,622.5c1.4,0,2.4,0.4,3,1.2c0.6,0.8,1,1.8,1,3.2v8.8c0,1.4-0.3,2.4-1,3.2c-0.6,0.8-1.6,1.2-3,1.2h-4.1
			v-17.5H288.6z M288.6,638.2c0.7,0,1.2-0.2,1.6-0.6c0.3-0.4,0.5-1,0.5-1.8v-9c0-0.8-0.2-1.4-0.5-1.8c-0.3-0.4-0.9-0.6-1.6-0.6h-2.1
			v13.9H288.6z"/>
		<path class="st2" d="M300.6,630.2v1.8h-4.3v6.2h5.2v1.8h-7.2v-17.5h7.2v1.8h-5.2v6H300.6z"/>
		<path class="st2" d="M311.1,622.5c1.4,0,2.4,0.4,3,1.1c0.6,0.8,0.9,1.8,0.9,3.1v2.1c0,1.4-0.3,2.5-1,3.2c-0.7,0.7-1.7,1.1-3.1,1.1
			h-1.7v6.9h-2v-17.5H311.1z M311,631.3c0.7,0,1.3-0.2,1.6-0.5c0.4-0.4,0.5-1,0.5-1.8v-2.3c0-0.8-0.2-1.4-0.5-1.8s-0.8-0.6-1.5-0.6
			h-1.9v7.1H311z"/>
		<path class="st2" d="M322.8,630.2v1.8h-4.3v6.2h5.2v1.8h-7.2v-17.5h7.2v1.8h-5.2v6H322.8z"/>
		<path class="st2" d="M329.5,622.5c1.4,0,2.4,0.3,3,1s0.9,1.7,0.9,3v1.4c0,1-0.2,1.8-0.5,2.4c-0.4,0.6-0.9,1-1.7,1.2
			c0.8,0.2,1.4,0.7,1.7,1.3c0.3,0.6,0.5,1.4,0.5,2.4v2.7c0,0.4,0,0.8,0,1.1s0.1,0.7,0.3,1h-2c-0.1-0.2-0.2-0.5-0.2-0.8
			c0-0.3-0.1-0.7-0.1-1.3v-2.8c0-1-0.2-1.7-0.7-2c-0.4-0.4-1.1-0.6-1.9-0.6h-1.4v7.5h-2v-17.5H329.5z M329,630.8
			c0.8,0,1.4-0.2,1.8-0.5s0.7-1,0.7-1.9v-1.7c0-0.8-0.2-1.4-0.5-1.8s-0.8-0.6-1.6-0.6h-1.9v6.5H329z"/>
		<path class="st2" d="M339.1,622.3c1.3,0,2.3,0.4,3,1.2c0.6,0.8,1,1.9,1,3.2v0.5h-1.9v-0.6c0-0.8-0.2-1.4-0.5-1.8s-0.8-0.7-1.5-0.7
			c-0.7,0-1.2,0.2-1.5,0.7c-0.3,0.4-0.5,1-0.5,1.8c0,0.6,0.1,1.2,0.4,1.7c0.3,0.5,0.7,0.9,1.1,1.3c0.4,0.4,0.9,0.8,1.4,1.2
			c0.5,0.4,1,0.8,1.4,1.3c0.4,0.5,0.8,1,1.1,1.6c0.3,0.6,0.4,1.3,0.4,2.1c0,1.3-0.3,2.4-1,3.2c-0.6,0.8-1.6,1.2-3,1.2
			c-1.4,0-2.3-0.4-3-1.2c-0.6-0.8-1-1.9-1-3.2v-1h1.8v1.1c0,0.8,0.2,1.4,0.5,1.8s0.9,0.7,1.5,0.7c0.7,0,1.2-0.2,1.6-0.7
			c0.3-0.4,0.5-1,0.5-1.8c0-0.7-0.1-1.2-0.4-1.7c-0.3-0.5-0.7-0.9-1.1-1.3s-0.9-0.8-1.4-1.2s-1-0.8-1.4-1.3c-0.4-0.5-0.8-1-1.1-1.6
			s-0.4-1.3-0.4-2.1c0-1.4,0.3-2.4,1-3.2C336.8,622.7,337.8,622.3,339.1,622.3z"/>
		<path class="st2" d="M344.6,626.7c0-1.3,0.3-2.4,1-3.2c0.7-0.8,1.7-1.2,3-1.2c1.4,0,2.4,0.4,3,1.2c0.7,0.8,1,1.9,1,3.2v9.1
			c0,1.3-0.3,2.4-1,3.2c-0.7,0.8-1.7,1.2-3,1.2c-1.3,0-2.4-0.4-3-1.2c-0.7-0.8-1-1.9-1-3.2V626.7z M346.5,635.9
			c0,0.8,0.2,1.4,0.5,1.9c0.3,0.4,0.9,0.7,1.6,0.7c0.7,0,1.2-0.2,1.6-0.7c0.3-0.4,0.5-1.1,0.5-1.9v-9.2c0-0.8-0.2-1.4-0.5-1.9
			s-0.9-0.7-1.6-0.7c-0.7,0-1.2,0.2-1.6,0.7s-0.5,1.1-0.5,1.9V635.9z"/>
		<path class="st2" d="M356.2,640h-1.8v-17.5h2.5l4,12.7v-12.7h1.7V640h-2l-4.5-14.2V640z"/>
		<path class="st2" d="M366.4,640h-1.8v-17.5h2.5l4,12.7v-12.7h1.7V640h-2l-4.5-14.2V640z"/>
		<path class="st2" d="M381.1,630.2v1.8h-4.3v6.2h5.2v1.8h-7.2v-17.5h7.2v1.8h-5.2v6H381.1z"/>
		<path class="st2" d="M387.6,622.3c1.3,0,2.3,0.4,3,1.2c0.6,0.8,1,1.9,1,3.2v0.5h-1.9v-0.6c0-0.8-0.2-1.4-0.5-1.8s-0.8-0.7-1.5-0.7
			c-0.7,0-1.2,0.2-1.5,0.7c-0.3,0.4-0.5,1-0.5,1.8c0,0.6,0.1,1.2,0.4,1.7c0.3,0.5,0.7,0.9,1.1,1.3c0.4,0.4,0.9,0.8,1.4,1.2
			c0.5,0.4,1,0.8,1.4,1.3c0.4,0.5,0.8,1,1.1,1.6c0.3,0.6,0.4,1.3,0.4,2.1c0,1.3-0.3,2.4-1,3.2c-0.6,0.8-1.6,1.2-3,1.2
			c-1.4,0-2.3-0.4-3-1.2c-0.6-0.8-1-1.9-1-3.2v-1h1.8v1.1c0,0.8,0.2,1.4,0.5,1.8s0.9,0.7,1.5,0.7c0.7,0,1.2-0.2,1.6-0.7
			c0.3-0.4,0.5-1,0.5-1.8c0-0.7-0.1-1.2-0.4-1.7c-0.3-0.5-0.7-0.9-1.1-1.3s-0.9-0.8-1.4-1.2s-1-0.8-1.4-1.3c-0.4-0.5-0.8-1-1.1-1.6
			s-0.4-1.3-0.4-2.1c0-1.4,0.3-2.4,1-3.2C385.3,622.7,386.3,622.3,387.6,622.3z"/>
		<path class="st2" d="M399.6,640v-15.7h-3.2v-1.8h8.4v1.8h-3.2V640H399.6z"/>
		<path class="st2" d="M405.9,626.7c0-1.3,0.3-2.4,1-3.2c0.7-0.8,1.7-1.2,3-1.2c1.4,0,2.4,0.4,3,1.2c0.7,0.8,1,1.9,1,3.2v9.1
			c0,1.3-0.3,2.4-1,3.2c-0.7,0.8-1.7,1.2-3,1.2c-1.3,0-2.4-0.4-3-1.2c-0.7-0.8-1-1.9-1-3.2V626.7z M407.8,635.9
			c0,0.8,0.2,1.4,0.5,1.9c0.3,0.4,0.9,0.7,1.6,0.7c0.7,0,1.2-0.2,1.6-0.7c0.3-0.4,0.5-1.1,0.5-1.9v-9.2c0-0.8-0.2-1.4-0.5-1.9
			s-0.9-0.7-1.6-0.7c-0.7,0-1.2,0.2-1.6,0.7s-0.5,1.1-0.5,1.9V635.9z"/>
		<path class="st2" d="M417.6,635.9c0,0.8,0.2,1.4,0.5,1.9c0.3,0.4,0.8,0.7,1.6,0.7c0.7,0,1.2-0.2,1.5-0.7c0.3-0.4,0.5-1.1,0.5-1.9
			v-13.4h1.8v13.3c0,1.3-0.3,2.4-1,3.2c-0.6,0.8-1.6,1.2-3,1.2c-1.3,0-2.3-0.4-3-1.2c-0.6-0.8-1-1.9-1-3.2v-13.3h1.9V635.9z"/>
		<path class="st2" d="M429.2,622.3c1.3,0,2.3,0.4,3,1.2c0.6,0.8,1,1.9,1,3.2v1.6h-1.8v-1.7c0-0.8-0.2-1.4-0.5-1.9s-0.8-0.7-1.6-0.7
			c-0.7,0-1.2,0.2-1.5,0.7c-0.3,0.4-0.5,1.1-0.5,1.9v9.2c0,0.8,0.2,1.4,0.5,1.9c0.3,0.4,0.8,0.7,1.5,0.7c0.7,0,1.2-0.2,1.6-0.7
			c0.3-0.4,0.5-1.1,0.5-1.9v-2.3h1.8v2.2c0,1.3-0.3,2.4-1,3.2c-0.6,0.8-1.6,1.2-3,1.2c-1.3,0-2.3-0.4-3-1.2c-0.6-0.8-1-1.9-1-3.2
			v-9.1c0-0.7,0.1-1.3,0.2-1.8c0.2-0.5,0.4-1,0.7-1.4c0.3-0.4,0.7-0.7,1.2-0.9C428,622.4,428.6,622.3,429.2,622.3z"/>
		<path class="st2" d="M436.9,632.1v7.9h-2v-17.5h2v7.9h4.3v-7.9h2V640h-2v-7.9H436.9z"/>
		<path class="st2" d="M451.4,630.2v1.8h-4.3v6.2h5.2v1.8h-7.2v-17.5h7.2v1.8h-5.2v6H451.4z M451.2,619l-2.3,2.6h-1.3l1.8-2.6H451.2
			z"/>
		<path class="st2" d="M460.4,630.2v1.8h-4.3v6.2h5.2v1.8h-7.2v-17.5h7.2v1.8h-5.2v6H460.4z"/>
		<path class="st2" d="M466.8,622.3c1.3,0,2.3,0.4,3,1.2c0.6,0.8,1,1.9,1,3.2v0.5h-1.9v-0.6c0-0.8-0.2-1.4-0.5-1.8s-0.8-0.7-1.5-0.7
			c-0.7,0-1.2,0.2-1.5,0.7c-0.3,0.4-0.5,1-0.5,1.8c0,0.6,0.1,1.2,0.4,1.7c0.3,0.5,0.7,0.9,1.1,1.3c0.4,0.4,0.9,0.8,1.4,1.2
			c0.5,0.4,1,0.8,1.4,1.3c0.4,0.5,0.8,1,1.1,1.6c0.3,0.6,0.4,1.3,0.4,2.1c0,1.3-0.3,2.4-1,3.2c-0.6,0.8-1.6,1.2-3,1.2
			c-1.4,0-2.3-0.4-3-1.2c-0.6-0.8-1-1.9-1-3.2v-1h1.8v1.1c0,0.8,0.2,1.4,0.5,1.8s0.9,0.7,1.5,0.7c0.7,0,1.2-0.2,1.6-0.7
			c0.3-0.4,0.5-1,0.5-1.8c0-0.7-0.1-1.2-0.4-1.7c-0.3-0.5-0.7-0.9-1.1-1.3s-0.9-0.8-1.4-1.2s-1-0.8-1.4-1.3c-0.4-0.5-0.8-1-1.1-1.6
			s-0.4-1.3-0.4-2.1c0-1.4,0.3-2.4,1-3.2C464.6,622.7,465.5,622.3,466.8,622.3z"/>
	</g>
	<g class="st8">
		<path class="st2" d="M282.7,652.3c1.3,0,2.3,0.4,3,1.2c0.6,0.8,1,1.9,1,3.2v0.5h-1.9v-0.6c0-0.8-0.2-1.4-0.5-1.8
			c-0.3-0.4-0.8-0.7-1.5-0.7c-0.7,0-1.2,0.2-1.5,0.7c-0.3,0.4-0.5,1-0.5,1.8c0,0.6,0.1,1.2,0.4,1.7c0.3,0.5,0.7,0.9,1.1,1.3
			c0.4,0.4,0.9,0.8,1.4,1.2c0.5,0.4,1,0.8,1.4,1.3c0.4,0.5,0.8,1,1.1,1.6c0.3,0.6,0.4,1.3,0.4,2.1c0,1.3-0.3,2.4-1,3.2
			c-0.6,0.8-1.6,1.2-3,1.2s-2.3-0.4-3-1.2c-0.6-0.8-0.9-1.9-0.9-3.2v-1h1.8v1.1c0,0.8,0.2,1.4,0.5,1.8s0.9,0.7,1.6,0.7
			c0.7,0,1.2-0.2,1.5-0.7s0.5-1,0.5-1.8c0-0.7-0.1-1.2-0.4-1.7c-0.3-0.5-0.7-0.9-1.1-1.3c-0.4-0.4-0.9-0.8-1.4-1.2s-1-0.8-1.4-1.3
			c-0.4-0.5-0.8-1-1.1-1.6s-0.4-1.3-0.4-2.1c0-1.4,0.3-2.4,1-3.2C280.4,652.7,281.4,652.3,282.7,652.3z"/>
		<path class="st2" d="M290.1,665.9c0,0.8,0.2,1.4,0.5,1.9c0.3,0.4,0.8,0.7,1.6,0.7c0.7,0,1.2-0.2,1.5-0.7c0.3-0.4,0.5-1.1,0.5-1.9
			v-13.4h1.8v13.3c0,1.3-0.3,2.4-1,3.2c-0.6,0.8-1.6,1.2-3,1.2c-1.3,0-2.3-0.4-3-1.2c-0.6-0.8-1-1.9-1-3.2v-13.3h1.9V665.9z"/>
		<path class="st2" d="M301.9,652.5c1.4,0,2.4,0.3,3,1s0.9,1.7,0.9,3v1.4c0,1-0.2,1.8-0.5,2.4c-0.4,0.6-0.9,1-1.7,1.2
			c0.8,0.2,1.4,0.7,1.7,1.3c0.3,0.6,0.5,1.4,0.5,2.4v2.7c0,0.4,0,0.8,0,1.1s0.1,0.7,0.3,1h-2c-0.1-0.2-0.2-0.5-0.2-0.8
			c0-0.3-0.1-0.7-0.1-1.3v-2.8c0-1-0.2-1.7-0.7-2c-0.4-0.4-1.1-0.6-1.9-0.6h-1.4v7.5h-2v-17.5H301.9z M301.4,660.8
			c0.8,0,1.4-0.2,1.8-0.5s0.7-1,0.7-1.9v-1.7c0-0.8-0.2-1.4-0.5-1.8s-0.8-0.6-1.6-0.6h-1.9v6.5H301.4z"/>
		<path class="st2" d="M311.7,670v-17.5h2v15.7h5v1.8H311.7z"/>
		<path class="st2" d="M326.3,660.2v1.8h-4.3v6.2h5.2v1.8h-7.2v-17.5h7.2v1.8h-5.2v6H326.3z"/>
		<path class="st2" d="M332.8,652.3c1.3,0,2.3,0.4,3,1.2c0.6,0.8,1,1.9,1,3.2v0.5h-1.9v-0.6c0-0.8-0.2-1.4-0.5-1.8s-0.8-0.7-1.5-0.7
			c-0.7,0-1.2,0.2-1.5,0.7c-0.3,0.4-0.5,1-0.5,1.8c0,0.6,0.1,1.2,0.4,1.7c0.3,0.5,0.7,0.9,1.1,1.3c0.4,0.4,0.9,0.8,1.4,1.2
			c0.5,0.4,1,0.8,1.4,1.3c0.4,0.5,0.8,1,1.1,1.6c0.3,0.6,0.4,1.3,0.4,2.1c0,1.3-0.3,2.4-1,3.2c-0.6,0.8-1.6,1.2-3,1.2
			c-1.4,0-2.3-0.4-3-1.2c-0.6-0.8-1-1.9-1-3.2v-1h1.8v1.1c0,0.8,0.2,1.4,0.5,1.8s0.9,0.7,1.5,0.7c0.7,0,1.2-0.2,1.6-0.7
			c0.3-0.4,0.5-1,0.5-1.8c0-0.7-0.1-1.2-0.4-1.7c-0.3-0.5-0.7-0.9-1.1-1.3s-0.9-0.8-1.4-1.2s-1-0.8-1.4-1.3c-0.4-0.5-0.8-1-1.1-1.6
			s-0.4-1.3-0.4-2.1c0-1.4,0.3-2.4,1-3.2C330.5,652.7,331.5,652.3,332.8,652.3z"/>
		<path class="st2" d="M346.2,652.5c1.4,0,2.4,0.3,3,1s0.9,1.7,0.9,3v1.4c0,1-0.2,1.8-0.5,2.4c-0.4,0.6-0.9,1-1.7,1.2
			c0.8,0.2,1.4,0.7,1.7,1.3c0.3,0.6,0.5,1.4,0.5,2.4v2.7c0,0.4,0,0.8,0,1.1s0.1,0.7,0.3,1h-2c-0.1-0.2-0.2-0.5-0.2-0.8
			c0-0.3-0.1-0.7-0.1-1.3v-2.8c0-1-0.2-1.7-0.7-2c-0.4-0.4-1.1-0.6-1.9-0.6h-1.4v7.5h-2v-17.5H346.2z M345.7,660.8
			c0.8,0,1.4-0.2,1.8-0.5s0.7-1,0.7-1.9v-1.7c0-0.8-0.2-1.4-0.5-1.8s-0.8-0.6-1.6-0.6h-1.9v6.5H345.7z"/>
		<path class="st2" d="M358.4,660.2v1.8h-4.3v6.2h5.2v1.8h-7.2v-17.5h7.2v1.8h-5.2v6H358.4z M358.2,649l-2.3,2.6h-1.3l1.8-2.6H358.2
			z"/>
		<path class="st2" d="M364.8,652.3c1.3,0,2.3,0.4,3,1.2c0.6,0.8,1,1.9,1,3.2v0.5h-1.9v-0.6c0-0.8-0.2-1.4-0.5-1.8s-0.8-0.7-1.5-0.7
			c-0.7,0-1.2,0.2-1.5,0.7c-0.3,0.4-0.5,1-0.5,1.8c0,0.6,0.1,1.2,0.4,1.7c0.3,0.5,0.7,0.9,1.1,1.3c0.4,0.4,0.9,0.8,1.4,1.2
			c0.5,0.4,1,0.8,1.4,1.3c0.4,0.5,0.8,1,1.1,1.6c0.3,0.6,0.4,1.3,0.4,2.1c0,1.3-0.3,2.4-1,3.2c-0.6,0.8-1.6,1.2-3,1.2
			c-1.4,0-2.3-0.4-3-1.2c-0.6-0.8-1-1.9-1-3.2v-1h1.8v1.1c0,0.8,0.2,1.4,0.5,1.8s0.9,0.7,1.5,0.7c0.7,0,1.2-0.2,1.6-0.7
			c0.3-0.4,0.5-1,0.5-1.8c0-0.7-0.1-1.2-0.4-1.7c-0.3-0.5-0.7-0.9-1.1-1.3s-0.9-0.8-1.4-1.2s-1-0.8-1.4-1.3c-0.4-0.5-0.8-1-1.1-1.6
			s-0.4-1.3-0.4-2.1c0-1.4,0.3-2.4,1-3.2C362.5,652.7,363.5,652.3,364.8,652.3z"/>
		<path class="st2" d="M376.7,660.2v1.8h-4.3v6.2h5.2v1.8h-7.2v-17.5h7.2v1.8h-5.2v6H376.7z"/>
		<path class="st2" d="M381.4,666.5l-0.7,3.5h-1.8l3.3-17.5h2.8l3.4,17.5h-2l-0.7-3.5H381.4z M381.7,664.8h3.9l-2-10.1L381.7,664.8z
			"/>
		<path class="st2" d="M391.8,665.9c0,0.8,0.2,1.4,0.5,1.9c0.3,0.4,0.8,0.7,1.6,0.7c0.7,0,1.2-0.2,1.5-0.7c0.3-0.4,0.5-1.1,0.5-1.9
			v-13.4h1.8v13.3c0,1.3-0.3,2.4-1,3.2c-0.6,0.8-1.6,1.2-3,1.2c-1.3,0-2.3-0.4-3-1.2c-0.6-0.8-1-1.9-1-3.2v-13.3h1.9V665.9z"/>
		<path class="st2" d="M404,662.5l-2.9,7.5h-1.8l3.5-9l-3.3-8.5h2l2.7,7l2.7-7h1.8l-3.3,8.5l3.5,9h-2L404,662.5z"/>
		<path class="st2" d="M418.1,652.3c1.3,0,2.3,0.4,3,1.2c0.6,0.8,1,1.9,1,3.2v0.5h-1.9v-0.6c0-0.8-0.2-1.4-0.5-1.8s-0.8-0.7-1.5-0.7
			c-0.7,0-1.2,0.2-1.5,0.7c-0.3,0.4-0.5,1-0.5,1.8c0,0.6,0.1,1.2,0.4,1.7c0.3,0.5,0.7,0.9,1.1,1.3c0.4,0.4,0.9,0.8,1.4,1.2
			c0.5,0.4,1,0.8,1.4,1.3c0.4,0.5,0.8,1,1.1,1.6c0.3,0.6,0.4,1.3,0.4,2.1c0,1.3-0.3,2.4-1,3.2c-0.6,0.8-1.6,1.2-3,1.2
			c-1.4,0-2.3-0.4-3-1.2c-0.6-0.8-1-1.9-1-3.2v-1h1.8v1.1c0,0.8,0.2,1.4,0.5,1.8s0.9,0.7,1.5,0.7c0.7,0,1.2-0.2,1.6-0.7
			c0.3-0.4,0.5-1,0.5-1.8c0-0.7-0.1-1.2-0.4-1.7c-0.3-0.5-0.7-0.9-1.1-1.3s-0.9-0.8-1.4-1.2s-1-0.8-1.4-1.3c-0.4-0.5-0.8-1-1.1-1.6
			s-0.4-1.3-0.4-2.1c0-1.4,0.3-2.4,1-3.2C415.8,652.7,416.8,652.3,418.1,652.3z"/>
		<path class="st2" d="M423.6,656.7c0-1.3,0.3-2.4,1-3.2c0.7-0.8,1.7-1.2,3-1.2c1.4,0,2.4,0.4,3,1.2c0.7,0.8,1,1.9,1,3.2v9.1
			c0,1.3-0.3,2.4-1,3.2c-0.7,0.8-1.7,1.2-3,1.2c-1.3,0-2.4-0.4-3-1.2c-0.7-0.8-1-1.9-1-3.2V656.7z M425.5,665.9
			c0,0.8,0.2,1.4,0.5,1.9c0.3,0.4,0.9,0.7,1.6,0.7c0.7,0,1.2-0.2,1.6-0.7c0.3-0.4,0.5-1.1,0.5-1.9v-9.2c0-0.8-0.2-1.4-0.5-1.9
			s-0.9-0.7-1.6-0.7c-0.7,0-1.2,0.2-1.6,0.7s-0.5,1.1-0.5,1.9V665.9z"/>
		<path class="st2" d="M437.2,652.3c1.3,0,2.3,0.4,3,1.2c0.6,0.8,1,1.9,1,3.2v1.6h-1.8v-1.7c0-0.8-0.2-1.4-0.5-1.9s-0.8-0.7-1.6-0.7
			c-0.7,0-1.2,0.2-1.5,0.7c-0.3,0.4-0.5,1.1-0.5,1.9v9.2c0,0.8,0.2,1.4,0.5,1.9c0.3,0.4,0.8,0.7,1.5,0.7c0.7,0,1.2-0.2,1.6-0.7
			c0.3-0.4,0.5-1.1,0.5-1.9v-2.3h1.8v2.2c0,1.3-0.3,2.4-1,3.2c-0.6,0.8-1.6,1.2-3,1.2c-1.3,0-2.3-0.4-3-1.2c-0.6-0.8-1-1.9-1-3.2
			v-9.1c0-0.7,0.1-1.3,0.2-1.8c0.2-0.5,0.4-1,0.7-1.4c0.3-0.4,0.7-0.7,1.2-0.9C436,652.4,436.6,652.3,437.2,652.3z"/>
		<path class="st2" d="M444.9,652.5V670h-2v-17.5H444.9z"/>
		<path class="st2" d="M448.9,666.5l-0.7,3.5h-1.8l3.3-17.5h2.8l3.4,17.5h-2l-0.7-3.5H448.9z M449.1,664.8h3.9l-2-10.1L449.1,664.8z
			"/>
		<path class="st2" d="M459.3,665.9c0,0.8,0.2,1.4,0.5,1.9c0.3,0.4,0.8,0.7,1.6,0.7c0.7,0,1.2-0.2,1.5-0.7c0.3-0.4,0.5-1.1,0.5-1.9
			v-13.4h1.8v13.3c0,1.3-0.3,2.4-1,3.2c-0.6,0.8-1.6,1.2-3,1.2c-1.3,0-2.3-0.4-3-1.2c-0.6-0.8-1-1.9-1-3.2v-13.3h1.9V665.9z"/>
		<path class="st2" d="M471.5,662.5l-2.9,7.5h-1.8l3.5-9l-3.3-8.5h2l2.7,7l2.7-7h1.8l-3.3,8.5l3.5,9h-2L471.5,662.5z"/>
	</g>
	<g class="st8">
		<path class="st2" d="M19.9,455.5c1.4,0,2.4,0.4,3,1.1c0.6,0.8,0.9,1.8,0.9,3.1v2.1c0,1.4-0.3,2.5-1,3.2c-0.7,0.7-1.7,1.1-3.1,1.1
			H18v6.9h-2v-17.5H19.9z M19.7,464.3c0.7,0,1.3-0.2,1.6-0.5c0.4-0.4,0.5-1,0.5-1.8v-2.3c0-0.8-0.2-1.4-0.5-1.8s-0.8-0.6-1.5-0.6H18
			v7.1H19.7z"/>
		<path class="st2" d="M27,469.5l-0.7,3.5h-1.8l3.4-17.5h2.8L34,473h-2l-0.7-3.5H27z M27.2,467.8h3.9l-2-10.1L27.2,467.8z"/>
		<path class="st2" d="M37.4,466.7l-3.7-11.2h2l2.7,8.6l2.8-8.6h1.8l-3.7,11.2v6.3h-1.9V466.7z"/>
		<path class="st2" d="M47.9,455.3c1.3,0,2.3,0.4,3,1.2c0.6,0.8,1,1.9,1,3.2v0.5H50v-0.6c0-0.8-0.2-1.4-0.5-1.8s-0.8-0.7-1.5-0.7
			c-0.7,0-1.2,0.2-1.5,0.7c-0.3,0.4-0.5,1-0.5,1.8c0,0.6,0.1,1.2,0.4,1.7c0.3,0.5,0.7,0.9,1.1,1.3c0.4,0.4,0.9,0.8,1.4,1.2
			c0.5,0.4,1,0.8,1.4,1.3c0.4,0.5,0.8,1,1.1,1.6c0.3,0.6,0.4,1.3,0.4,2.1c0,1.3-0.3,2.4-1,3.2c-0.6,0.8-1.6,1.2-3,1.2
			c-1.4,0-2.3-0.4-3-1.2c-0.6-0.8-1-1.9-1-3.2v-1h1.8v1.1c0,0.8,0.2,1.4,0.5,1.8s0.9,0.7,1.5,0.7c0.7,0,1.2-0.2,1.6-0.7
			c0.3-0.4,0.5-1,0.5-1.8c0-0.7-0.1-1.2-0.4-1.7c-0.3-0.5-0.7-0.9-1.1-1.3s-0.9-0.8-1.4-1.2s-1-0.8-1.4-1.3c-0.4-0.5-0.8-1-1.1-1.6
			s-0.4-1.3-0.4-2.1c0-1.4,0.3-2.4,1-3.2C45.7,455.7,46.6,455.3,47.9,455.3z"/>
		<path class="st2" d="M61.4,455.5c1.4,0,2.4,0.3,3,1s0.9,1.7,0.9,3v1.4c0,1-0.2,1.8-0.5,2.4c-0.4,0.6-0.9,1-1.7,1.2
			c0.8,0.2,1.4,0.7,1.7,1.3c0.3,0.6,0.5,1.4,0.5,2.4v2.7c0,0.4,0,0.8,0,1.1s0.1,0.7,0.3,1h-2c-0.1-0.2-0.2-0.5-0.2-0.8
			c0-0.3-0.1-0.7-0.1-1.3v-2.8c0-1-0.2-1.7-0.7-2c-0.4-0.4-1.1-0.6-1.9-0.6h-1.4v7.5h-2v-17.5H61.4z M60.9,463.8
			c0.8,0,1.4-0.2,1.8-0.5s0.7-1,0.7-1.9v-1.7c0-0.8-0.2-1.4-0.5-1.8s-0.8-0.6-1.6-0.6h-1.9v6.5H60.9z"/>
		<path class="st2" d="M73.5,463.2v1.8h-4.3v6.2h5.2v1.8h-7.2v-17.5h7.2v1.8h-5.2v6H73.5z"/>
		<path class="st2" d="M80.1,455.5c1.4,0,2.4,0.4,3,1.1c0.6,0.8,0.9,1.8,0.9,3.1v2.1c0,1.4-0.3,2.5-1,3.2c-0.7,0.7-1.7,1.1-3.1,1.1
			h-1.7v6.9h-2v-17.5H80.1z M80,464.3c0.7,0,1.3-0.2,1.6-0.5c0.4-0.4,0.5-1,0.5-1.8v-2.3c0-0.8-0.2-1.4-0.5-1.8s-0.8-0.6-1.5-0.6
			h-1.9v7.1H80z"/>
		<path class="st2" d="M89.5,455.5c1.4,0,2.4,0.3,3,1s0.9,1.7,0.9,3v1.4c0,1-0.2,1.8-0.5,2.4c-0.4,0.6-0.9,1-1.7,1.2
			c0.8,0.2,1.4,0.7,1.7,1.3c0.3,0.6,0.5,1.4,0.5,2.4v2.7c0,0.4,0,0.8,0,1.1s0.1,0.7,0.3,1h-2c-0.1-0.2-0.2-0.5-0.2-0.8
			c0-0.3-0.1-0.7-0.1-1.3v-2.8c0-1-0.2-1.7-0.7-2c-0.4-0.4-1.1-0.6-1.9-0.6h-1.4v7.5h-2v-17.5H89.5z M89,463.8
			c0.8,0,1.4-0.2,1.8-0.5s0.7-1,0.7-1.9v-1.7c0-0.8-0.2-1.4-0.5-1.8s-0.8-0.6-1.6-0.6h-1.9v6.5H89z"/>
		<path class="st2" d="M101.6,463.2v1.8h-4.3v6.2h5.2v1.8h-7.2v-17.5h7.2v1.8h-5.2v6H101.6z M101.5,452l-2.3,2.6h-1.3l1.8-2.6H101.5
			z"/>
		<path class="st2" d="M108.1,455.3c1.3,0,2.3,0.4,3,1.2c0.6,0.8,1,1.9,1,3.2v0.5h-1.9v-0.6c0-0.8-0.2-1.4-0.5-1.8s-0.8-0.7-1.5-0.7
			c-0.7,0-1.2,0.2-1.5,0.7c-0.3,0.4-0.5,1-0.5,1.8c0,0.6,0.1,1.2,0.4,1.7c0.3,0.5,0.7,0.9,1.1,1.3c0.4,0.4,0.9,0.8,1.4,1.2
			c0.5,0.4,1,0.8,1.4,1.3c0.4,0.5,0.8,1,1.1,1.6c0.3,0.6,0.4,1.3,0.4,2.1c0,1.3-0.3,2.4-1,3.2c-0.6,0.8-1.6,1.2-3,1.2
			c-1.4,0-2.3-0.4-3-1.2c-0.6-0.8-1-1.9-1-3.2v-1h1.8v1.1c0,0.8,0.2,1.4,0.5,1.8s0.9,0.7,1.5,0.7c0.7,0,1.2-0.2,1.6-0.7
			c0.3-0.4,0.5-1,0.5-1.8c0-0.7-0.1-1.2-0.4-1.7c-0.3-0.5-0.7-0.9-1.1-1.3s-0.9-0.8-1.4-1.2s-1-0.8-1.4-1.3c-0.4-0.5-0.8-1-1.1-1.6
			s-0.4-1.3-0.4-2.1c0-1.4,0.3-2.4,1-3.2C105.8,455.7,106.8,455.3,108.1,455.3z"/>
		<path class="st2" d="M119.9,463.2v1.8h-4.3v6.2h5.2v1.8h-7.2v-17.5h7.2v1.8h-5.2v6H119.9z"/>
		<path class="st2" d="M124.4,473h-1.8v-17.5h2.5l4,12.7v-12.7h1.7V473h-2l-4.5-14.2V473z"/>
		<path class="st2" d="M135.5,473v-15.7h-3.2v-1.8h8.4v1.8h-3.2V473H135.5z"/>
		<path class="st2" d="M148.2,463.2v1.8h-4.3v6.2h5.2v1.8h-7.2v-17.5h7.2v1.8h-5.2v6H148.2z M148,452l-2.3,2.6h-1.3l1.8-2.6H148z"/>
		<path class="st2" d="M154.6,455.3c1.3,0,2.3,0.4,3,1.2c0.6,0.8,1,1.9,1,3.2v0.5h-1.9v-0.6c0-0.8-0.2-1.4-0.5-1.8s-0.8-0.7-1.5-0.7
			c-0.7,0-1.2,0.2-1.5,0.7c-0.3,0.4-0.5,1-0.5,1.8c0,0.6,0.1,1.2,0.4,1.7c0.3,0.5,0.7,0.9,1.1,1.3c0.4,0.4,0.9,0.8,1.4,1.2
			c0.5,0.4,1,0.8,1.4,1.3c0.4,0.5,0.8,1,1.1,1.6c0.3,0.6,0.4,1.3,0.4,2.1c0,1.3-0.3,2.4-1,3.2c-0.6,0.8-1.6,1.2-3,1.2
			c-1.4,0-2.3-0.4-3-1.2c-0.6-0.8-1-1.9-1-3.2v-1h1.8v1.1c0,0.8,0.2,1.4,0.5,1.8s0.9,0.7,1.5,0.7c0.7,0,1.2-0.2,1.6-0.7
			c0.3-0.4,0.5-1,0.5-1.8c0-0.7-0.1-1.2-0.4-1.7c-0.3-0.5-0.7-0.9-1.1-1.3s-0.9-0.8-1.4-1.2s-1-0.8-1.4-1.3c-0.4-0.5-0.8-1-1.1-1.6
			s-0.4-1.3-0.4-2.1c0-1.4,0.3-2.4,1-3.2C152.3,455.7,153.3,455.3,154.6,455.3z"/>
	</g>
	<g class="st8">
		<path class="st2" d="M296.3,234.2c0-3.1,0.7-5.4,2.1-7c1.4-1.6,3.6-2.4,6.6-2.4c2.8,0,4.9,0.8,6.4,2.4c1.4,1.6,2.2,3.8,2.2,6.8
			v0.9h-5.4v-1.3c0-1.3-0.3-2.2-0.8-2.8c-0.5-0.5-1.3-0.8-2.2-0.8c-1,0-1.8,0.3-2.3,0.9c-0.6,0.6-0.8,1.8-0.8,3.5v6.7
			c1-2.1,2.8-3.2,5.3-3.2c2.1,0,3.7,0.7,4.8,2.1c1.1,1.4,1.6,3.5,1.6,6.2v6.7c0,2.9-0.7,5.2-2.2,6.8c-1.5,1.6-3.6,2.4-6.4,2.4
			s-5-0.8-6.4-2.4c-1.5-1.6-2.2-3.8-2.2-6.8V234.2z M305,243c-0.9,0-1.6,0.3-2.2,0.8c-0.5,0.5-0.8,1.5-0.8,2.8v6.6
			c0,1.3,0.3,2.2,0.8,2.8c0.5,0.5,1.3,0.8,2.2,0.8c0.9,0,1.6-0.3,2.2-0.8c0.5-0.5,0.8-1.4,0.8-2.8v-6.6c0-1.3-0.3-2.2-0.8-2.8
			C306.6,243.3,305.9,243,305,243z"/>
		<path class="st2" d="M334,225.1v5l-8.4,31.4h-5.7l8.4-31.2h-11.4v-5.2H334z"/>
		<path class="st2" d="M349.2,234.1c0-1.6-0.3-2.7-0.8-3.3c-0.5-0.6-1.3-0.9-2.2-0.9c-0.9,0-1.6,0.3-2.2,0.8
			c-0.5,0.5-0.8,1.5-0.8,2.8v3.9h-5.4v-3.5c0-2.9,0.7-5.2,2.2-6.8c1.4-1.6,3.6-2.4,6.4-2.4c2.8,0,4.9,0.8,6.4,2.4
			c1.4,1.6,2.2,3.8,2.2,6.8c0,1.9-0.3,3.6-0.8,5.2c-0.6,1.5-1.3,2.9-2.1,4.2c-0.9,1.3-1.8,2.4-2.8,3.5c-1,1.1-1.9,2.1-2.8,3.1
			c-0.8,1-1.6,1.9-2.1,2.8c-0.6,0.9-0.8,1.9-0.8,2.9c0,0.3,0,0.6,0.1,0.8h10.8v5.2h-16.5V257c0-1.8,0.3-3.3,0.8-4.7
			c0.6-1.4,1.3-2.6,2.1-3.7c0.8-1.1,1.8-2.2,2.7-3.2c1-1,1.9-2,2.7-3.1c0.8-1.1,1.6-2.3,2.1-3.6
			C348.9,237.4,349.2,235.8,349.2,234.1z"/>
		<path class="st2" d="M371.6,249.8v3.4c0,1.3,0.3,2.2,0.8,2.8c0.5,0.5,1.3,0.8,2.2,0.8c0.9,0,1.6-0.3,2.2-0.8
			c0.5-0.5,0.8-1.4,0.8-2.8v-8c0-1.3-0.3-2.2-0.8-2.8c-0.5-0.5-1.3-0.8-2.2-0.8c-0.9,0-1.6,0.3-2.2,0.8c-0.5,0.5-0.8,1.5-0.8,2.8
			v1.1h-5.4l1-21.1h15.1v5.2h-9.9l-0.5,8.7c1.1-1.8,2.7-2.7,5-2.7c2.1,0,3.7,0.7,4.8,2.1c1.1,1.4,1.6,3.5,1.6,6.2v8.1
			c0,2.9-0.7,5.2-2.2,6.8c-1.4,1.6-3.6,2.4-6.4,2.4c-2.8,0-4.9-0.8-6.4-2.4c-1.4-1.6-2.2-3.8-2.2-6.8v-3H371.6z"/>
		<path class="st2" d="M386.7,234.2c0-3.1,0.7-5.4,2.1-7s3.6-2.4,6.6-2.4c2.8,0,4.9,0.8,6.4,2.4c1.4,1.6,2.2,3.8,2.2,6.8v0.9h-5.4
			v-1.3c0-1.3-0.3-2.2-0.8-2.8c-0.5-0.5-1.3-0.8-2.2-0.8c-1,0-1.8,0.3-2.3,0.9s-0.8,1.8-0.8,3.5v6.7c1-2.1,2.8-3.2,5.3-3.2
			c2.1,0,3.7,0.7,4.8,2.1c1.1,1.4,1.6,3.5,1.6,6.2v6.7c0,2.9-0.7,5.2-2.2,6.8c-1.5,1.6-3.6,2.4-6.4,2.4c-2.8,0-5-0.8-6.4-2.4
			c-1.5-1.6-2.2-3.8-2.2-6.8V234.2z M395.4,243c-0.9,0-1.6,0.3-2.2,0.8c-0.5,0.5-0.8,1.5-0.8,2.8v6.6c0,1.3,0.3,2.2,0.8,2.8
			c0.5,0.5,1.3,0.8,2.2,0.8c0.9,0,1.6-0.3,2.2-0.8c0.5-0.5,0.8-1.4,0.8-2.8v-6.6c0-1.3-0.3-2.2-0.8-2.8
			C397,243.3,396.3,243,395.4,243z"/>
		<path class="st2" d="M424.8,252.8c0,2.9-0.8,5.2-2.3,6.8c-1.5,1.6-3.7,2.4-6.7,2.4s-5.1-0.8-6.7-2.4c-1.5-1.6-2.3-3.8-2.3-6.8
			v-2.9c0-1.8,0.3-3.3,0.8-4.6c0.6-1.3,1.5-2.3,2.7-3c-2.4-1.3-3.5-3.7-3.5-7.3v-1.1c0-2.9,0.8-5.2,2.3-6.8c1.5-1.6,3.7-2.4,6.7-2.4
			s5.1,0.8,6.7,2.4c1.5,1.6,2.3,3.8,2.3,6.8v1.1c0,3.6-1.2,6-3.5,7.3c1.2,0.7,2.1,1.7,2.7,3c0.6,1.3,0.8,2.8,0.8,4.6V252.8z
			 M412.7,236.1c0,1.5,0.3,2.5,0.9,3c0.6,0.6,1.4,0.8,2.3,0.8c0.9,0,1.7-0.3,2.3-0.8c0.6-0.6,0.9-1.6,0.9-3v-2
			c0-1.6-0.3-2.7-0.9-3.3c-0.6-0.6-1.4-0.9-2.3-0.9s-1.7,0.3-2.3,0.9c-0.6,0.6-0.9,1.7-0.9,3.3V236.1z M412.7,252.6
			c0,1.6,0.3,2.7,0.9,3.3c0.6,0.6,1.4,0.8,2.3,0.8s1.7-0.3,2.3-0.8c0.6-0.6,0.9-1.6,1-3.3v-3.4c0-1.5-0.3-2.5-0.9-3.1
			c-0.6-0.6-1.4-1-2.4-1c-1,0-1.8,0.3-2.4,1c-0.6,0.6-0.9,1.7-0.9,3.1V252.6z"/>
	</g>
	<g class="st8">
		<path class="st2" d="M291.7,307.8l4.4-29.7h5.3l-5.6,36.4h-8.5l-5.6-36.4h5.8L291.7,307.8z"/>
		<path class="st2" d="M304,278.1h5.7v36.4H304V278.1z"/>
		<path class="st2" d="M313.1,286.8c0-2.9,0.7-5.2,2.1-6.8c1.4-1.6,3.5-2.4,6.3-2.4c2.8,0,4.9,0.8,6.3,2.4c1.4,1.6,2.1,3.8,2.1,6.8
			v1.1h-5.4v-1.5c0-1.3-0.3-2.2-0.8-2.8c-0.5-0.5-1.2-0.8-2.1-0.8s-1.6,0.3-2.1,0.8c-0.5,0.5-0.8,1.5-0.8,2.8c0,1.2,0.3,2.3,0.8,3.3
			c0.6,1,1.2,1.9,2.1,2.7c0.8,0.8,1.7,1.7,2.7,2.5c1,0.9,1.8,1.8,2.7,2.8c0.8,1,1.5,2.1,2.1,3.4s0.8,2.8,0.8,4.5
			c0,2.9-0.7,5.2-2.2,6.8c-1.4,1.6-3.6,2.4-6.4,2.4c-2.8,0-4.9-0.8-6.4-2.4c-1.4-1.6-2.2-3.8-2.2-6.8v-2.2h5.4v2.6
			c0,1.3,0.3,2.2,0.8,2.8c0.5,0.5,1.3,0.8,2.2,0.8c0.9,0,1.6-0.3,2.2-0.8c0.5-0.5,0.8-1.4,0.8-2.8c0-1.2-0.3-2.3-0.8-3.3
			c-0.6-1-1.2-1.9-2.1-2.7c-0.8-0.8-1.7-1.7-2.7-2.5c-1-0.8-1.8-1.8-2.7-2.8c-0.8-1-1.5-2.1-2.1-3.4
			C313.4,290.1,313.1,288.6,313.1,286.8z"/>
		<path class="st2" d="M333.3,278.1h5.7v36.4h-5.7V278.1z"/>
		<path class="st2" d="M341.5,278.1h17.7v5.2h-6v31.2h-5.7v-31.2h-6V278.1z"/>
		<path class="st2" d="M367.4,293.5h7.9v5.2h-7.9v10.7h9.9v5.2h-15.6v-36.4h15.6v5.2h-9.9V293.5z"/>
		<path class="st2" d="M386.3,278.1v28.1c0,1.3,0.3,2.2,0.8,2.8c0.5,0.5,1.3,0.8,2.2,0.8s1.6-0.3,2.2-0.8c0.5-0.5,0.8-1.4,0.8-2.8
			v-28.1h5.4v27.7c0,2.9-0.7,5.2-2.2,6.8c-1.4,1.6-3.6,2.4-6.4,2.4c-2.8,0-4.9-0.8-6.4-2.4c-1.4-1.6-2.2-3.8-2.2-6.8v-27.7H386.3z"
			/>
		<path class="st2" d="M413.5,314.5c-0.1-0.2-0.1-0.5-0.2-0.7c-0.1-0.2-0.1-0.5-0.2-0.8c-0.1-0.3-0.1-0.7-0.1-1.2c0-0.5,0-1.1,0-1.8
			v-5.7c0-1.7-0.3-2.9-0.9-3.6c-0.6-0.7-1.5-1-2.9-1h-2v14.8h-5.7v-36.4h8.6c3,0,5.1,0.7,6.5,2.1c1.3,1.4,2,3.5,2,6.3v2.9
			c0,3.7-1.2,6.2-3.7,7.4c1.5,0.6,2.5,1.6,3,2.9c0.5,1.3,0.8,3,0.8,4.9v5.6c0,0.9,0,1.7,0.1,2.4c0.1,0.7,0.2,1.4,0.5,2.1H413.5z
			 M407.2,283.3v11.2h2.2c1.1,0,1.9-0.3,2.5-0.8c0.6-0.6,0.9-1.6,0.9-3v-3.6c0-1.3-0.2-2.3-0.7-2.9c-0.5-0.6-1.2-0.9-2.2-0.9H407.2z
			"/>
		<path class="st2" d="M421.7,286.8c0-2.9,0.7-5.2,2.1-6.8c1.4-1.6,3.5-2.4,6.3-2.4c2.8,0,4.9,0.8,6.3,2.4c1.4,1.6,2.1,3.8,2.1,6.8
			v1.1h-5.4v-1.5c0-1.3-0.3-2.2-0.8-2.8c-0.5-0.5-1.2-0.8-2.1-0.8s-1.6,0.3-2.1,0.8c-0.5,0.5-0.8,1.5-0.8,2.8c0,1.2,0.3,2.3,0.8,3.3
			c0.6,1,1.2,1.9,2.1,2.7c0.8,0.8,1.7,1.7,2.7,2.5c1,0.9,1.8,1.8,2.7,2.8c0.8,1,1.5,2.1,2.1,3.4s0.8,2.8,0.8,4.5
			c0,2.9-0.7,5.2-2.2,6.8c-1.4,1.6-3.6,2.4-6.4,2.4c-2.8,0-4.9-0.8-6.4-2.4c-1.4-1.6-2.2-3.8-2.2-6.8v-2.2h5.4v2.6
			c0,1.3,0.3,2.2,0.8,2.8c0.5,0.5,1.3,0.8,2.2,0.8c0.9,0,1.6-0.3,2.2-0.8c0.5-0.5,0.8-1.4,0.8-2.8c0-1.2-0.3-2.3-0.8-3.3
			c-0.6-1-1.2-1.9-2.1-2.7c-0.8-0.8-1.7-1.7-2.7-2.5c-1-0.8-1.8-1.8-2.7-2.8c-0.8-1-1.5-2.1-2.1-3.4
			C422,290.1,421.7,288.6,421.7,286.8z"/>
	</g>
</g>
</svg>
