<?xml version="1.0" encoding="utf-8"?>
<!-- Generator: Adobe Illustrator 22.0.1, SVG Export Plug-In . SVG Version: 6.00 Build 0)  -->
<svg width="674px" height="612px" version="1.1" id="Calque_1" xmlns="http://www.w3.org/2000/svg" xmlns:xlink="http://www.w3.org/1999/xlink" x="0px" y="0px"
	 viewBox="0 0 688 658" style="enable-background:new 0 0 688 658;" xml:space="preserve">
<style type="text/css">
	.st0{opacity:0.7;filter:url(#en-chiffres-cles-modif-a);}
	.st1{fill:#FFFFFF;}
	.st2{fill:none;stroke:#F6A723;stroke-width:18;}
	.st3{fill:none;stroke:#E74892;stroke-width:18;}
	.st4{fill:none;stroke:#E74427;stroke-width:18;}
	.st5{fill:none;stroke:#80BA27;stroke-width:18;}
	.st6{fill:none;stroke:#30B3E8;stroke-width:18;}
	.st7{enable-background:new    ;}
	.st8{fill:#2A2A2A;}
	.st9{fill:#E74892;}
	.st10{fill:#F6A723;}
	.st11{fill:#80BA27;}
	.st12{fill:#30B3E8;}
	.st13{fill:#E74427;}
</style>
<filter  filterUnits="objectBoundingBox" height="124.5%" id="en-chiffres-cles-modif-a" width="124.5%" x="-12.3%" y="-11.6%">
	<feOffset  dy="2" in="SourceAlpha" result="shadowOffsetOuter1"></feOffset>
	<feGaussianBlur  in="shadowOffsetOuter1" result="shadowBlurOuter1" stdDeviation="12"></feGaussianBlur>
	<feColorMatrix  in="shadowBlurOuter1" values="0 0 0 0 0   0 0 0 0 0   0 0 0 0 0  0 0 0 0.15271173 0"></feColorMatrix>
</filter>
<g transform="translate(-32 -12)">
	<g transform="translate(111 47)">
		<g class="st0">
			<circle id="en-chiffres-cles-modif-b_1_" cx="256" cy="297" r="151"/>
		</g>
		<circle class="st1" cx="257" cy="268" r="176"/>
		<g>
			<path class="st2" d="M365.2,91.3c63.4,38.2,99,105.7,99.7,175.3"/>
			<path class="st3" d="M157.7,87.6c64.8-35.9,141-33.1,201.6,0.9"/>
			<path class="st4" d="M51.5,263.7c1.9-73.1,42-137.3,100.8-172.8"/>
			<path class="st2" d="M150.8,444.7c-63.4-38.2-99-105.7-99.7-175.3"/>
			<path class="st5" d="M358.3,449.4c-64.8,35.9-141,33.1-201.6-0.9"/>
			<path class="st6" d="M464.5,271.3c-1.9,73.1-42,137.3-100.8,172.8"/>
		</g>
	</g>
	<g class="st7">
		<path class="st8" d="M295.6,354.9l-0.8,4.1h-2.1l3.9-20.3h3.3l3.9,20.3h-2.3l-0.8-4.1H295.6z M295.9,353h4.5l-2.3-11.7L295.9,353z
			"/>
		<path class="st8" d="M307.5,359h-2v-20.3h2.9l4.7,14.7v-14.7h2V359h-2.3l-5.2-16.4V359z"/>
		<path class="st8" d="M322.1,338.7c1.6,0,2.8,0.4,3.5,1.3s1.1,2.1,1.1,3.7V354c0,1.6-0.4,2.8-1.1,3.7c-0.7,0.9-1.9,1.3-3.5,1.3
			h-4.8v-20.3H322.1z M322.1,356.9c0.8,0,1.4-0.2,1.8-0.7c0.4-0.5,0.6-1.2,0.6-2.1v-10.4c0-0.9-0.2-1.6-0.6-2.1
			c-0.4-0.5-1-0.7-1.8-0.7h-2.4v16.2H322.1z"/>
		<path class="st8" d="M333.2,343.6c0-1.6,0.4-2.8,1.1-3.7c0.8-0.9,1.9-1.4,3.5-1.4s2.7,0.5,3.5,1.4c0.8,0.9,1.2,2.2,1.2,3.7v10.5
			c0,1.5-0.4,2.8-1.2,3.7c-0.8,0.9-1.9,1.4-3.5,1.4s-2.7-0.5-3.5-1.4c-0.8-0.9-1.1-2.2-1.1-3.7V343.6z M335.4,354.2
			c0,0.9,0.2,1.6,0.6,2.2c0.4,0.5,1,0.8,1.8,0.8c0.8,0,1.4-0.3,1.8-0.8c0.4-0.5,0.6-1.2,0.6-2.2v-10.7c0-0.9-0.2-1.6-0.6-2.2
			c-0.4-0.5-1-0.8-1.8-0.8c-0.8,0-1.4,0.3-1.8,0.8c-0.4,0.5-0.6,1.2-0.6,2.2V354.2z"/>
		<path class="st8" d="M346.3,338.7l3.3,17.7l3.3-17.7h2.1l-3.8,20.3h-3.3l-3.8-20.3H346.3z"/>
		<path class="st8" d="M363.9,347.7v2h-5v7.2h6.1v2.1h-8.4v-20.3h8.4v2.1H359v6.9H363.9z"/>
		<path class="st8" d="M371.7,338.7c1.6,0,2.8,0.4,3.5,1.2c0.7,0.8,1.1,1.9,1.1,3.5v1.7c0,1.1-0.2,2-0.6,2.7c-0.4,0.7-1,1.2-1.9,1.5
			c0.9,0.3,1.6,0.8,2,1.5c0.4,0.7,0.6,1.6,0.6,2.7v3.2c0,0.4,0,0.9,0.1,1.3c0,0.4,0.2,0.8,0.3,1.1h-2.3c-0.1-0.3-0.2-0.6-0.3-0.9
			c-0.1-0.3-0.1-0.8-0.1-1.5v-3.2c0-1.1-0.3-1.9-0.8-2.4c-0.5-0.4-1.2-0.7-2.2-0.7h-1.6v8.7h-2.3v-20.3H371.7z M371.1,348.3
			c0.9,0,1.6-0.2,2.1-0.6s0.8-1.1,0.8-2.2v-1.9c0-0.9-0.2-1.6-0.5-2.1c-0.4-0.5-1-0.7-1.8-0.7h-2.2v7.5H371.1z"/>
		<path class="st8" d="M387.5,338.5c1.6,0,2.7,0.5,3.5,1.4c0.7,0.9,1.1,2.2,1.1,3.7v0.5c0,1-0.2,1.9-0.6,2.6c-0.4,0.7-1,1.2-1.8,1.5
			c0.9,0.3,1.5,0.9,1.9,1.6c0.4,0.7,0.6,1.6,0.6,2.6v1.6c0,1.6-0.4,2.8-1.1,3.7c-0.7,0.9-1.9,1.4-3.5,1.4c-1.5,0-2.7-0.5-3.4-1.4
			s-1.1-2.2-1.1-3.7v-1.4h2.1v1.5c0,0.9,0.2,1.6,0.6,2.2c0.4,0.5,1,0.8,1.8,0.8c0.8,0,1.4-0.3,1.8-0.8c0.4-0.5,0.6-1.3,0.6-2.3v-1.6
			c0-2-0.9-3-2.6-3h-1.2v-2h1.3c0.8,0,1.3-0.3,1.8-0.8c0.4-0.5,0.7-1.1,0.7-2v-0.9c0-1-0.2-1.8-0.6-2.4c-0.4-0.5-1-0.8-1.8-0.8
			c-0.8,0-1.4,0.3-1.8,0.8c-0.4,0.5-0.6,1.2-0.6,2.2v1H383v-0.9c0-1.6,0.4-2.8,1.1-3.7C384.8,339,386,338.5,387.5,338.5z"/>
		<path class="st8" d="M398.7,338.5c1.6,0,2.7,0.5,3.5,1.4c0.7,0.9,1.1,2.2,1.1,3.7v0.5c0,1-0.2,1.9-0.6,2.6c-0.4,0.7-1,1.2-1.8,1.5
			c0.9,0.3,1.5,0.9,1.9,1.6c0.4,0.7,0.6,1.6,0.6,2.6v1.6c0,1.6-0.4,2.8-1.1,3.7c-0.7,0.9-1.9,1.4-3.5,1.4c-1.5,0-2.7-0.5-3.4-1.4
			s-1.1-2.2-1.1-3.7v-1.4h2.1v1.5c0,0.9,0.2,1.6,0.6,2.2c0.4,0.5,1,0.8,1.8,0.8c0.8,0,1.4-0.3,1.8-0.8c0.4-0.5,0.6-1.3,0.6-2.3v-1.6
			c0-2-0.9-3-2.6-3h-1.2v-2h1.3c0.8,0,1.3-0.3,1.8-0.8c0.4-0.5,0.7-1.1,0.7-2v-0.9c0-1-0.2-1.8-0.6-2.4c-0.4-0.5-1-0.8-1.8-0.8
			c-0.8,0-1.4,0.3-1.8,0.8c-0.4,0.5-0.6,1.2-0.6,2.2v1h-2.1v-0.9c0-1.6,0.4-2.8,1.1-3.7C396,339,397.2,338.5,398.7,338.5z"/>
		<path class="st8" d="M406.5,359h-0.8v-2.8h2.2v2.6l-1.1,2.8h-0.9L406.5,359z"/>
		<path class="st8" d="M410,343.6c0-1.6,0.4-2.8,1.1-3.7c0.8-0.9,1.9-1.4,3.5-1.4s2.7,0.5,3.5,1.4c0.8,0.9,1.2,2.2,1.2,3.7v10.5
			c0,1.6-0.4,2.8-1.2,3.7c-0.8,0.9-1.9,1.4-3.5,1.4s-2.7-0.5-3.5-1.4c-0.8-0.9-1.1-2.2-1.1-3.7V343.6z M412.2,354.2
			c0,0.9,0.2,1.6,0.6,2.2c0.4,0.5,1,0.8,1.8,0.8c0.8,0,1.4-0.3,1.8-0.8c0.4-0.5,0.6-1.2,0.6-2.2v-10.7c0-0.9-0.2-1.7-0.6-2.2
			c-0.4-0.5-1-0.8-1.8-0.8c-0.8,0-1.4,0.3-1.8,0.8c-0.4,0.5-0.6,1.2-0.6,2.2V354.2z"/>
		<path class="st8" d="M421.3,343.6c0-1.6,0.4-2.8,1.1-3.7c0.8-0.9,1.9-1.4,3.5-1.4s2.7,0.5,3.5,1.4c0.8,0.9,1.2,2.2,1.2,3.7v10.5
			c0,1.6-0.4,2.8-1.2,3.7c-0.8,0.9-1.9,1.4-3.5,1.4s-2.7-0.5-3.5-1.4c-0.8-0.9-1.1-2.2-1.1-3.7V343.6z M423.5,354.2
			c0,0.9,0.2,1.6,0.6,2.2c0.4,0.5,1,0.8,1.8,0.8c0.8,0,1.4-0.3,1.8-0.8c0.4-0.5,0.6-1.2,0.6-2.2v-10.7c0-0.9-0.2-1.7-0.6-2.2
			c-0.4-0.5-1-0.8-1.8-0.8c-0.8,0-1.4,0.3-1.8,0.8c-0.4,0.5-0.6,1.2-0.6,2.2V354.2z"/>
		<path class="st8" d="M432.6,343.6c0-1.6,0.4-2.8,1.1-3.7c0.8-0.9,1.9-1.4,3.5-1.4s2.7,0.5,3.5,1.4c0.8,0.9,1.2,2.2,1.2,3.7v10.5
			c0,1.6-0.4,2.8-1.2,3.7c-0.8,0.9-1.9,1.4-3.5,1.4s-2.7-0.5-3.5-1.4c-0.8-0.9-1.1-2.2-1.1-3.7V343.6z M434.8,354.2
			c0,0.9,0.2,1.6,0.6,2.2c0.4,0.5,1,0.8,1.8,0.8c0.8,0,1.4-0.3,1.8-0.8c0.4-0.5,0.6-1.2,0.6-2.2v-10.7c0-0.9-0.2-1.7-0.6-2.2
			c-0.4-0.5-1-0.8-1.8-0.8c-0.8,0-1.4,0.3-1.8,0.8c-0.4,0.5-0.6,1.2-0.6,2.2V354.2z"/>
	</g>
	<g class="st7">
		<path class="st8" d="M270.3,373.7c1.6,0,2.8,0.4,3.5,1.3c0.7,0.9,1.1,2.1,1.1,3.6v2.4c0,1.6-0.4,2.8-1.1,3.7
			c-0.8,0.8-2,1.2-3.6,1.2h-2v8h-2.3v-20.3H270.3z M270.1,384c0.9,0,1.5-0.2,1.9-0.6c0.4-0.4,0.6-1.1,0.6-2.1v-2.7
			c0-0.9-0.2-1.6-0.5-2.1c-0.4-0.5-1-0.7-1.8-0.7h-2.2v8.2H270.1z"/>
		<path class="st8" d="M281.2,373.7c1.6,0,2.8,0.4,3.5,1.2c0.7,0.8,1.1,1.9,1.1,3.5v1.7c0,1.1-0.2,2-0.6,2.7c-0.4,0.7-1,1.2-1.9,1.5
			c0.9,0.3,1.6,0.8,2,1.5c0.4,0.7,0.6,1.6,0.6,2.7v3.2c0,0.4,0,0.9,0.1,1.3c0,0.4,0.2,0.8,0.3,1.1h-2.3c-0.1-0.3-0.2-0.6-0.3-0.9
			c-0.1-0.3-0.1-0.8-0.1-1.5v-3.2c0-1.1-0.3-1.9-0.8-2.4c-0.5-0.4-1.2-0.7-2.2-0.7h-1.6v8.7h-2.3v-20.3H281.2z M280.6,383.3
			c0.9,0,1.6-0.2,2.1-0.6s0.8-1.1,0.8-2.2v-1.9c0-0.9-0.2-1.6-0.5-2.1c-0.4-0.5-1-0.7-1.8-0.7h-2.2v7.5H280.6z"/>
		<path class="st8" d="M287.9,378.6c0-1.6,0.4-2.8,1.1-3.7c0.8-0.9,1.9-1.4,3.5-1.4s2.7,0.5,3.5,1.4s1.2,2.2,1.2,3.7v10.5
			c0,1.5-0.4,2.8-1.2,3.7c-0.8,0.9-1.9,1.4-3.5,1.4s-2.7-0.5-3.5-1.4c-0.8-0.9-1.1-2.2-1.1-3.7V378.6z M290.1,389.2
			c0,0.9,0.2,1.6,0.6,2.2c0.4,0.5,1,0.8,1.8,0.8c0.8,0,1.4-0.3,1.8-0.8c0.4-0.5,0.6-1.2,0.6-2.2v-10.7c0-0.9-0.2-1.6-0.6-2.2
			c-0.4-0.5-1-0.8-1.8-0.8c-0.8,0-1.4,0.3-1.8,0.8c-0.4,0.5-0.6,1.2-0.6,2.2V389.2z"/>
		<path class="st8" d="M306.3,383.2v2.1h-4.7v8.8h-2.3v-20.3h8.1v2.1h-5.8v7.4H306.3z"/>
		<path class="st8" d="M316.4,382.7v2h-5v7.2h6.1v2.1h-8.4v-20.3h8.4v2.1h-6.1v6.9H316.4z"/>
		<path class="st8" d="M323.9,373.5c1.5,0,2.7,0.5,3.4,1.4s1.1,2.2,1.1,3.7v0.6h-2.1v-0.7c0-0.9-0.2-1.6-0.6-2.1
			c-0.4-0.5-1-0.8-1.8-0.8c-0.8,0-1.4,0.3-1.8,0.8c-0.4,0.5-0.6,1.2-0.6,2.1c0,0.8,0.2,1.4,0.5,2c0.3,0.6,0.8,1.1,1.3,1.6
			c0.5,0.5,1,0.9,1.6,1.4s1.1,1,1.6,1.5c0.5,0.5,0.9,1.2,1.3,1.8c0.3,0.7,0.5,1.5,0.5,2.5c0,1.5-0.4,2.8-1.1,3.7
			c-0.7,0.9-1.9,1.4-3.5,1.4c-1.6,0-2.7-0.5-3.5-1.4c-0.7-0.9-1.1-2.2-1.1-3.7V388h2.1v1.3c0,0.9,0.2,1.6,0.6,2.1
			c0.4,0.5,1,0.8,1.8,0.8c0.8,0,1.4-0.3,1.8-0.8c0.4-0.5,0.6-1.2,0.6-2.1c0-0.8-0.2-1.4-0.5-2c-0.3-0.6-0.8-1.1-1.3-1.5
			c-0.5-0.5-1-0.9-1.6-1.4s-1.1-1-1.6-1.5c-0.5-0.5-0.9-1.2-1.3-1.8c-0.3-0.7-0.5-1.5-0.5-2.5c0-1.6,0.4-2.8,1.1-3.7
			C321.2,374,322.4,373.5,323.9,373.5z"/>
		<path class="st8" d="M334.7,373.5c1.5,0,2.7,0.5,3.4,1.4s1.1,2.2,1.1,3.7v0.6h-2.1v-0.7c0-0.9-0.2-1.6-0.6-2.1
			c-0.4-0.5-1-0.8-1.8-0.8c-0.8,0-1.4,0.3-1.8,0.8c-0.4,0.5-0.6,1.2-0.6,2.1c0,0.8,0.2,1.4,0.5,2c0.3,0.6,0.8,1.1,1.3,1.6
			c0.5,0.5,1,0.9,1.6,1.4s1.1,1,1.6,1.5c0.5,0.5,0.9,1.2,1.3,1.8c0.3,0.7,0.5,1.5,0.5,2.5c0,1.5-0.4,2.8-1.1,3.7
			c-0.7,0.9-1.9,1.4-3.5,1.4c-1.6,0-2.7-0.5-3.5-1.4c-0.7-0.9-1.1-2.2-1.1-3.7V388h2.1v1.3c0,0.9,0.2,1.6,0.6,2.1
			c0.4,0.5,1,0.8,1.8,0.8c0.8,0,1.4-0.3,1.8-0.8c0.4-0.5,0.6-1.2,0.6-2.1c0-0.8-0.2-1.4-0.5-2c-0.3-0.6-0.8-1.1-1.3-1.5
			c-0.5-0.5-1-0.9-1.6-1.4s-1.1-1-1.6-1.5c-0.5-0.5-0.9-1.2-1.3-1.8c-0.3-0.7-0.5-1.5-0.5-2.5c0-1.6,0.4-2.8,1.1-3.7
			C332,374,333.2,373.5,334.7,373.5z"/>
		<path class="st8" d="M343.5,373.7V394h-2.3v-20.3H343.5z"/>
		<path class="st8" d="M345.6,378.6c0-1.6,0.4-2.8,1.1-3.7c0.8-0.9,1.9-1.4,3.5-1.4s2.7,0.5,3.5,1.4s1.2,2.2,1.2,3.7v10.5
			c0,1.5-0.4,2.8-1.2,3.7c-0.8,0.9-1.9,1.4-3.5,1.4s-2.7-0.5-3.5-1.4c-0.8-0.9-1.1-2.2-1.1-3.7V378.6z M347.8,389.2
			c0,0.9,0.2,1.6,0.6,2.2c0.4,0.5,1,0.8,1.8,0.8c0.8,0,1.4-0.3,1.8-0.8c0.4-0.5,0.6-1.2,0.6-2.2v-10.7c0-0.9-0.2-1.6-0.6-2.2
			c-0.4-0.5-1-0.8-1.8-0.8c-0.8,0-1.4,0.3-1.8,0.8c-0.4,0.5-0.6,1.2-0.6,2.2V389.2z"/>
		<path class="st8" d="M359.1,394h-2v-20.3h2.9l4.7,14.7v-14.7h2V394h-2.3l-5.2-16.4V394z"/>
		<path class="st8" d="M371.2,389.9l-0.8,4.1h-2.1l3.9-20.3h3.3l3.9,20.3h-2.3l-0.8-4.1H371.2z M371.5,388h4.5l-2.3-11.7L371.5,388z
			"/>
		<path class="st8" d="M381.2,394v-20.3h2.3v18.2h5.8v2.1H381.2z"/>
		<path class="st8" d="M397.1,373.7l3.3,17.7l3.3-17.7h2.1L402,394h-3.3l-3.8-20.3H397.1z"/>
		<path class="st8" d="M409.8,373.7V394h-2.3v-20.3H409.8z"/>
		<path class="st8" d="M416.4,373.5c1.5,0,2.7,0.5,3.4,1.4s1.1,2.2,1.1,3.7v0.6h-2.1v-0.7c0-0.9-0.2-1.6-0.6-2.1
			c-0.4-0.5-1-0.8-1.8-0.8c-0.8,0-1.4,0.3-1.8,0.8c-0.4,0.5-0.6,1.2-0.6,2.1c0,0.8,0.2,1.4,0.5,2c0.3,0.6,0.8,1.1,1.3,1.6
			c0.5,0.5,1,0.9,1.6,1.4s1.1,1,1.6,1.5c0.5,0.5,0.9,1.2,1.3,1.8c0.3,0.7,0.5,1.5,0.5,2.5c0,1.5-0.4,2.8-1.1,3.7
			c-0.7,0.9-1.9,1.4-3.5,1.4c-1.6,0-2.7-0.5-3.5-1.4c-0.7-0.9-1.1-2.2-1.1-3.7V388h2.1v1.3c0,0.9,0.2,1.6,0.6,2.1
			c0.4,0.5,1,0.8,1.8,0.8c0.8,0,1.4-0.3,1.8-0.8c0.4-0.5,0.6-1.2,0.6-2.1c0-0.8-0.2-1.4-0.5-2c-0.3-0.6-0.8-1.1-1.3-1.5
			c-0.5-0.5-1-0.9-1.6-1.4s-1.1-1-1.6-1.5c-0.5-0.5-0.9-1.2-1.3-1.8c-0.3-0.7-0.5-1.5-0.5-2.5c0-1.6,0.4-2.8,1.1-3.7
			C413.7,374,414.9,373.5,416.4,373.5z"/>
		<path class="st8" d="M425.2,373.7V394h-2.3v-20.3H425.2z"/>
		<path class="st8" d="M430.4,394v-18.2h-3.7v-2.1h9.7v2.1h-3.7V394H430.4z"/>
		<path class="st8" d="M437.8,378.6c0-1.6,0.4-2.8,1.1-3.7c0.8-0.9,1.9-1.4,3.5-1.4s2.7,0.5,3.5,1.4s1.2,2.2,1.2,3.7v10.5
			c0,1.5-0.4,2.8-1.2,3.7c-0.8,0.9-1.9,1.4-3.5,1.4s-2.7-0.5-3.5-1.4c-0.8-0.9-1.1-2.2-1.1-3.7V378.6z M440,389.2
			c0,0.9,0.2,1.6,0.6,2.2c0.4,0.5,1,0.8,1.8,0.8c0.8,0,1.4-0.3,1.8-0.8c0.4-0.5,0.6-1.2,0.6-2.2v-10.7c0-0.9-0.2-1.6-0.6-2.2
			c-0.4-0.5-1-0.8-1.8-0.8c-0.8,0-1.4,0.3-1.8,0.8c-0.4,0.5-0.6,1.2-0.6,2.2V389.2z"/>
		<path class="st8" d="M453.8,373.7c1.6,0,2.8,0.4,3.5,1.2c0.7,0.8,1.1,1.9,1.1,3.5v1.7c0,1.1-0.2,2-0.6,2.7c-0.4,0.7-1,1.2-1.9,1.5
			c0.9,0.3,1.6,0.8,2,1.5c0.4,0.7,0.6,1.6,0.6,2.7v3.2c0,0.4,0,0.9,0.1,1.3c0,0.4,0.2,0.8,0.3,1.1h-2.3c-0.1-0.3-0.2-0.6-0.3-0.9
			c-0.1-0.3-0.1-0.8-0.1-1.5v-3.2c0-1.1-0.3-1.9-0.8-2.4c-0.5-0.4-1.2-0.7-2.2-0.7h-1.6v8.7h-2.3v-20.3H453.8z M453.2,383.3
			c0.9,0,1.6-0.2,2.1-0.6s0.8-1.1,0.8-2.2v-1.9c0-0.9-0.2-1.6-0.5-2.1c-0.4-0.5-1-0.7-1.8-0.7h-2.2v7.5H453.2z"/>
		<path class="st8" d="M464.9,373.5c1.5,0,2.7,0.5,3.4,1.4s1.1,2.2,1.1,3.7v0.6h-2.1v-0.7c0-0.9-0.2-1.6-0.6-2.1
			c-0.4-0.5-1-0.8-1.8-0.8c-0.8,0-1.4,0.3-1.8,0.8c-0.4,0.5-0.6,1.2-0.6,2.1c0,0.8,0.2,1.4,0.5,2c0.3,0.6,0.8,1.1,1.3,1.6
			c0.5,0.5,1,0.9,1.6,1.4s1.1,1,1.6,1.5c0.5,0.5,0.9,1.2,1.3,1.8c0.3,0.7,0.5,1.5,0.5,2.5c0,1.5-0.4,2.8-1.1,3.7
			c-0.7,0.9-1.9,1.4-3.5,1.4c-1.6,0-2.7-0.5-3.5-1.4c-0.7-0.9-1.1-2.2-1.1-3.7V388h2.1v1.3c0,0.9,0.2,1.6,0.6,2.1
			c0.4,0.5,1,0.8,1.8,0.8c0.8,0,1.4-0.3,1.8-0.8c0.4-0.5,0.6-1.2,0.6-2.1c0-0.8-0.2-1.4-0.5-2c-0.3-0.6-0.8-1.1-1.3-1.5
			c-0.5-0.5-1-0.9-1.6-1.4s-1.1-1-1.6-1.5c-0.5-0.5-0.9-1.2-1.3-1.8c-0.3-0.7-0.5-1.5-0.5-2.5c0-1.6,0.4-2.8,1.1-3.7
			C462.3,374,463.4,373.5,464.9,373.5z"/>
	</g>
	<g class="st7">
		<path class="st9" d="M342.7,37.2l10.4-24.6h6.2v24.6h2.7v5.2h-2.7V49h-5.6v-6.6h-11V37.2z M353.8,37.2V23.5L348,37.2H353.8z"/>
		<path class="st9" d="M364.2,21.3c0-2.9,0.7-5.2,2.2-6.8c1.5-1.6,3.6-2.4,6.4-2.4s5,0.8,6.4,2.4c1.5,1.6,2.2,3.8,2.2,6.8v18.9
			c0,2.9-0.7,5.2-2.2,6.8c-1.5,1.6-3.6,2.4-6.4,2.4s-5-0.8-6.4-2.4c-1.5-1.6-2.2-3.8-2.2-6.8V21.3z M369.9,40.6
			c0,1.3,0.3,2.2,0.8,2.8c0.5,0.5,1.3,0.8,2.2,0.8s1.6-0.3,2.2-0.8c0.5-0.5,0.8-1.5,0.8-2.8V21c0-1.3-0.3-2.2-0.8-2.8
			c-0.5-0.5-1.3-0.8-2.2-0.8s-1.6,0.3-2.2,0.8c-0.5,0.5-0.8,1.5-0.8,2.8V40.6z"/>
		<path class="st9" d="M395.5,28.8h7v4.1h-7V40h-4.1v-7.1h-7v-4.1h7v-7h4.1V28.8z"/>
	</g>
	<g class="st7">
		<path class="st10" d="M597.6,157.2c1.1,0,2-0.1,2.7-0.4c0.7-0.2,1.3-0.6,1.7-1c0.5-0.4,0.8-0.9,1.1-1.5c0.3-0.6,0.5-1.1,0.7-1.8
			h3.8V189H602v-27.8h-4.4V157.2z"/>
		<path class="st10" d="M622.3,161.3c0-2.9,0.7-5.2,2.2-6.8c1.5-1.6,3.6-2.4,6.4-2.4s5,0.8,6.4,2.4c1.5,1.6,2.2,3.8,2.2,6.8v18.9
			c0,2.9-0.7,5.2-2.2,6.8c-1.5,1.6-3.6,2.4-6.4,2.4s-5-0.8-6.4-2.4c-1.5-1.6-2.2-3.8-2.2-6.8V161.3z M628,180.6
			c0,1.3,0.3,2.2,0.8,2.8c0.5,0.5,1.3,0.8,2.2,0.8s1.6-0.3,2.2-0.8c0.5-0.5,0.8-1.5,0.8-2.8V161c0-1.3-0.3-2.2-0.8-2.8
			c-0.5-0.5-1.3-0.8-2.2-0.8s-1.6,0.3-2.2,0.8c-0.5,0.5-0.8,1.5-0.8,2.8V180.6z"/>
		<path class="st10" d="M642.9,161.3c0-2.9,0.7-5.2,2.2-6.8c1.5-1.6,3.6-2.4,6.4-2.4s5,0.8,6.4,2.4c1.5,1.6,2.2,3.8,2.2,6.8v18.9
			c0,2.9-0.7,5.2-2.2,6.8c-1.5,1.6-3.6,2.4-6.4,2.4s-5-0.8-6.4-2.4c-1.5-1.6-2.2-3.8-2.2-6.8V161.3z M648.6,180.6
			c0,1.3,0.3,2.2,0.8,2.8c0.5,0.5,1.3,0.8,2.2,0.8s1.6-0.3,2.2-0.8c0.5-0.5,0.8-1.5,0.8-2.8V161c0-1.3-0.3-2.2-0.8-2.8
			c-0.5-0.5-1.3-0.8-2.2-0.8s-1.6,0.3-2.2,0.8c-0.5,0.5-0.8,1.5-0.8,2.8V180.6z"/>
		<path class="st10" d="M663.4,161.3c0-2.9,0.7-5.2,2.2-6.8c1.5-1.6,3.6-2.4,6.4-2.4s5,0.8,6.4,2.4c1.5,1.6,2.2,3.8,2.2,6.8v18.9
			c0,2.9-0.7,5.2-2.2,6.8c-1.5,1.6-3.6,2.4-6.4,2.4s-5-0.8-6.4-2.4c-1.5-1.6-2.2-3.8-2.2-6.8V161.3z M669.2,180.6
			c0,1.3,0.3,2.2,0.8,2.8c0.5,0.5,1.3,0.8,2.2,0.8s1.6-0.3,2.2-0.8c0.5-0.5,0.8-1.5,0.8-2.8V161c0-1.3-0.3-2.2-0.8-2.8
			c-0.5-0.5-1.3-0.8-2.2-0.8s-1.6,0.3-2.2,0.8c-0.5,0.5-0.8,1.5-0.8,2.8V180.6z"/>
		<path class="st10" d="M702.8,168.8h7v4.1h-7v7.1h-4.1v-7.1h-7v-4.1h7v-7h4.1V168.8z"/>
	</g>
	<g class="st7">
		<path class="st11" d="M309.2,594.3c0,2.9-0.8,5.2-2.3,6.8c-1.5,1.6-3.7,2.4-6.7,2.4s-5.1-0.8-6.7-2.4c-1.5-1.6-2.3-3.8-2.3-6.8
			v-2.9c0-1.8,0.3-3.3,0.8-4.6c0.6-1.3,1.5-2.3,2.7-3c-2.4-1.3-3.5-3.7-3.5-7.3v-1.1c0-2.9,0.8-5.2,2.3-6.8c1.5-1.6,3.7-2.4,6.7-2.4
			s5.1,0.8,6.7,2.4c1.5,1.6,2.3,3.8,2.3,6.8v1.1c0,3.6-1.2,6-3.5,7.3c1.2,0.7,2.1,1.7,2.7,3c0.6,1.3,0.8,2.8,0.8,4.6V594.3z
			 M297.1,577.6c0,1.5,0.3,2.5,0.9,3c0.6,0.6,1.4,0.8,2.3,0.8c0.9,0,1.7-0.3,2.3-0.8s0.9-1.6,0.9-3v-2c0-1.6-0.3-2.7-0.9-3.3
			s-1.4-0.9-2.3-0.9c-0.9,0-1.7,0.3-2.3,0.9s-0.9,1.7-0.9,3.3V577.6z M297.1,594.1c0,1.6,0.3,2.7,0.9,3.3c0.6,0.6,1.4,0.8,2.3,0.8
			c0.9,0,1.7-0.3,2.3-0.8c0.6-0.6,0.9-1.6,1-3.3v-3.4c0-1.5-0.3-2.5-0.9-3.1c-0.6-0.6-1.4-1-2.4-1c-1,0-1.8,0.3-2.4,1
			c-0.6,0.6-0.9,1.7-0.9,3.1V594.1z"/>
		<path class="st11" d="M332.8,592.4l3.9-25.8h8V603h-5.4v-26.1l-4,26.1h-5.4l-4.3-25.7V603h-5v-36.4h8L332.8,592.4z"/>
		<path class="st11" d="M348.9,566.6h5.7V603h-5.7V566.6z"/>
		<path class="st11" d="M358.7,566.6h5.7v31.2h9.4v5.2h-15.1V566.6z"/>
		<path class="st11" d="M376.4,566.6h5.7v31.2h9.4v5.2h-15.1V566.6z"/>
		<path class="st11" d="M394,566.6h5.7V603H394V566.6z"/>
		<path class="st11" d="M403.4,575.3c0-2.9,0.7-5.2,2.2-6.8c1.5-1.6,3.6-2.4,6.4-2.4s5,0.8,6.4,2.4c1.5,1.6,2.2,3.8,2.2,6.8v18.9
			c0,2.9-0.7,5.2-2.2,6.8c-1.5,1.6-3.6,2.4-6.4,2.4s-5-0.8-6.4-2.4c-1.5-1.6-2.2-3.8-2.2-6.8V575.3z M409.1,594.6
			c0,1.3,0.3,2.2,0.8,2.8c0.5,0.5,1.3,0.8,2.2,0.8s1.6-0.3,2.2-0.8c0.5-0.5,0.8-1.5,0.8-2.8V575c0-1.3-0.3-2.2-0.8-2.8
			c-0.5-0.5-1.3-0.8-2.2-0.8s-1.6,0.3-2.2,0.8c-0.5,0.5-0.8,1.5-0.8,2.8V594.6z"/>
		<path class="st11" d="M429.6,576.6V603h-5.1v-36.4h7.2l5.9,21.8v-21.8h5.1V603h-5.9L429.6,576.6z"/>
		<path class="st11" d="M445.9,575.3c0-2.9,0.7-5.2,2.1-6.8c1.4-1.6,3.5-2.4,6.3-2.4c2.8,0,4.9,0.8,6.3,2.4c1.4,1.6,2.1,3.8,2.1,6.8
			v1.1h-5.4V575c0-1.3-0.3-2.2-0.8-2.8c-0.5-0.5-1.2-0.8-2.1-0.8s-1.6,0.3-2.1,0.8c-0.5,0.5-0.8,1.5-0.8,2.8c0,1.2,0.3,2.3,0.8,3.3
			c0.6,1,1.2,1.9,2.1,2.7s1.7,1.7,2.7,2.5c1,0.9,1.8,1.8,2.7,2.8s1.5,2.1,2.1,3.4s0.8,2.8,0.8,4.5c0,2.9-0.7,5.2-2.2,6.8
			c-1.4,1.6-3.6,2.4-6.4,2.4c-2.8,0-4.9-0.8-6.4-2.4c-1.4-1.6-2.2-3.8-2.2-6.8V592h5.4v2.6c0,1.3,0.3,2.2,0.8,2.8
			c0.5,0.5,1.3,0.8,2.2,0.8c0.9,0,1.6-0.3,2.2-0.8c0.5-0.5,0.8-1.4,0.8-2.8c0-1.2-0.3-2.3-0.8-3.3c-0.6-1-1.2-1.9-2.1-2.7
			c-0.8-0.8-1.7-1.7-2.7-2.5c-1-0.8-1.8-1.8-2.7-2.8c-0.8-1-1.5-2.1-2.1-3.4C446.2,578.6,445.9,577.1,445.9,575.3z"/>
	</g>
	<g class="st7">
		<path class="st12" d="M623.9,419c0,3.1-0.7,5.4-2.1,7c-1.4,1.6-3.6,2.4-6.6,2.4c-2.8,0-4.9-0.8-6.4-2.4c-1.4-1.6-2.2-3.8-2.2-6.8
			v-0.9h5.4v1.3c0,1.3,0.3,2.2,0.8,2.8c0.5,0.5,1.3,0.8,2.2,0.8c1,0,1.8-0.3,2.3-0.9c0.6-0.6,0.8-1.8,0.8-3.5v-6.7
			c-1,2.2-2.8,3.2-5.3,3.2c-2.1,0-3.7-0.7-4.8-2.1c-1.1-1.4-1.6-3.5-1.6-6.2v-6.7c0-2.9,0.7-5.2,2.2-6.8c1.5-1.6,3.6-2.4,6.4-2.4
			c2.8,0,5,0.8,6.4,2.4c1.5,1.6,2.2,3.8,2.2,6.8V419z M615.2,410.1c0.9,0,1.6-0.3,2.2-0.8s0.8-1.5,0.8-2.8V400
			c0-1.3-0.3-2.2-0.8-2.8s-1.3-0.8-2.2-0.8c-0.9,0-1.6,0.3-2.2,0.8c-0.5,0.5-0.8,1.4-0.8,2.8v6.6c0,1.3,0.3,2.2,0.8,2.8
			C613.6,409.8,614.3,410.1,615.2,410.1z"/>
		<path class="st12" d="M652.9,419.3c0,2.9-0.8,5.2-2.3,6.8c-1.5,1.6-3.7,2.4-6.7,2.4s-5.1-0.8-6.7-2.4c-1.5-1.6-2.3-3.8-2.3-6.8
			v-2.9c0-1.8,0.3-3.3,0.8-4.6s1.5-2.3,2.7-3c-2.4-1.3-3.5-3.7-3.5-7.3v-1.1c0-2.9,0.8-5.2,2.3-6.8c1.5-1.6,3.7-2.4,6.7-2.4
			s5.1,0.8,6.7,2.4c1.5,1.6,2.3,3.8,2.3,6.8v1.1c0,3.6-1.2,6-3.5,7.3c1.2,0.7,2.1,1.7,2.7,3c0.6,1.3,0.8,2.8,0.8,4.6V419.3z
			 M640.7,402.6c0,1.5,0.3,2.5,0.9,3c0.6,0.6,1.4,0.8,2.3,0.8c0.9,0,1.7-0.3,2.3-0.8s0.9-1.6,0.9-3v-2c0-1.6-0.3-2.7-0.9-3.3
			s-1.4-0.9-2.3-0.9s-1.7,0.3-2.3,0.9s-0.9,1.7-0.9,3.3V402.6z M640.7,419.1c0,1.6,0.3,2.7,0.9,3.3c0.6,0.6,1.4,0.8,2.3,0.8
			s1.7-0.3,2.3-0.8c0.6-0.6,0.9-1.6,1-3.3v-3.4c0-1.5-0.3-2.5-0.9-3.1c-0.6-0.6-1.4-1-2.4-1c-1,0-1.8,0.3-2.4,1
			c-0.6,0.6-0.9,1.7-0.9,3.1V419.1z"/>
		<path class="st12" d="M656,400.6c0-3.1,0.7-5.4,2.1-7c1.4-1.6,3.6-2.4,6.6-2.4c2.8,0,4.9,0.8,6.4,2.4c1.4,1.6,2.2,3.8,2.2,6.8v0.9
			h-5.4V400c0-1.3-0.3-2.2-0.8-2.8c-0.5-0.5-1.3-0.8-2.2-0.8c-1,0-1.8,0.3-2.3,0.9c-0.6,0.6-0.8,1.8-0.8,3.5v6.7
			c1-2.1,2.8-3.2,5.3-3.2c2.1,0,3.7,0.7,4.8,2.1c1.1,1.4,1.6,3.5,1.6,6.2v6.7c0,2.9-0.7,5.2-2.2,6.8c-1.5,1.6-3.6,2.4-6.4,2.4
			c-2.8,0-5-0.8-6.4-2.4c-1.5-1.6-2.2-3.8-2.2-6.8V400.6z M664.6,409.5c-0.9,0-1.6,0.3-2.2,0.8c-0.5,0.5-0.8,1.5-0.8,2.8v6.6
			c0,1.3,0.3,2.2,0.8,2.8c0.5,0.5,1.3,0.8,2.2,0.8c0.9,0,1.6-0.3,2.2-0.8c0.5-0.5,0.8-1.4,0.8-2.8v-6.6c0-1.3-0.3-2.2-0.8-2.8
			C666.3,409.8,665.5,409.5,664.6,409.5z"/>
		<path class="st12" d="M693.7,419c0,3.1-0.7,5.4-2.1,7c-1.4,1.6-3.6,2.4-6.6,2.4c-2.8,0-4.9-0.8-6.4-2.4c-1.4-1.6-2.2-3.8-2.2-6.8
			v-0.9h5.4v1.3c0,1.3,0.3,2.2,0.8,2.8c0.5,0.5,1.3,0.8,2.2,0.8c1,0,1.8-0.3,2.3-0.9c0.6-0.6,0.8-1.8,0.8-3.5v-6.7
			c-1,2.2-2.8,3.2-5.3,3.2c-2.1,0-3.7-0.7-4.8-2.1c-1.1-1.4-1.6-3.5-1.6-6.2v-6.7c0-2.9,0.7-5.2,2.2-6.8c1.5-1.6,3.6-2.4,6.4-2.4
			c2.8,0,5,0.8,6.4,2.4c1.5,1.6,2.2,3.8,2.2,6.8V419z M685,410.1c0.9,0,1.6-0.3,2.2-0.8s0.8-1.5,0.8-2.8V400c0-1.3-0.3-2.2-0.8-2.8
			s-1.3-0.8-2.2-0.8c-0.9,0-1.6,0.3-2.2,0.8c-0.5,0.5-0.8,1.4-0.8,2.8v6.6c0,1.3,0.3,2.2,0.8,2.8C683.4,409.8,684.1,410.1,685,410.1
			z"/>
	</g>
	<g class="st7">
		<path class="st13" d="M64.7,142.6c0-3.1,0.7-5.4,2.1-7c1.4-1.6,3.6-2.4,6.6-2.4c2.8,0,4.9,0.8,6.4,2.4c1.4,1.6,2.2,3.8,2.2,6.8
			v0.9h-5.4V142c0-1.3-0.3-2.2-0.8-2.8c-0.5-0.5-1.3-0.8-2.2-0.8c-1,0-1.8,0.3-2.3,0.9c-0.6,0.6-0.8,1.8-0.8,3.5v6.7
			c1-2.1,2.8-3.2,5.3-3.2c2.1,0,3.7,0.7,4.8,2.1c1.1,1.4,1.6,3.5,1.6,6.2v6.7c0,2.9-0.7,5.2-2.2,6.8c-1.5,1.6-3.6,2.4-6.4,2.4
			s-5-0.8-6.4-2.4c-1.5-1.6-2.2-3.8-2.2-6.8V142.6z M73.4,151.5c-0.9,0-1.6,0.3-2.2,0.8c-0.5,0.5-0.8,1.5-0.8,2.8v6.6
			c0,1.3,0.3,2.2,0.8,2.8c0.5,0.5,1.3,0.8,2.2,0.8c0.9,0,1.6-0.3,2.2-0.8c0.5-0.5,0.8-1.4,0.8-2.8v-6.6c0-1.3-0.3-2.2-0.8-2.8
			C75,151.8,74.3,151.5,73.4,151.5z"/>
		<path class="st13" d="M102.8,161.3c0,2.9-0.8,5.2-2.3,6.8c-1.5,1.6-3.7,2.4-6.7,2.4s-5.1-0.8-6.7-2.4c-1.5-1.6-2.3-3.8-2.3-6.8
			v-2.9c0-1.8,0.3-3.3,0.8-4.6c0.6-1.3,1.5-2.3,2.7-3c-2.4-1.3-3.5-3.7-3.5-7.3v-1.1c0-2.9,0.8-5.2,2.3-6.8c1.5-1.6,3.7-2.4,6.7-2.4
			s5.1,0.8,6.7,2.4c1.5,1.6,2.3,3.8,2.3,6.8v1.1c0,3.6-1.2,6-3.5,7.3c1.2,0.7,2.1,1.7,2.7,3c0.6,1.3,0.8,2.8,0.8,4.6V161.3z
			 M90.7,144.6c0,1.5,0.3,2.5,0.9,3c0.6,0.6,1.4,0.8,2.3,0.8c0.9,0,1.7-0.3,2.3-0.8c0.6-0.6,0.9-1.6,0.9-3v-2c0-1.6-0.3-2.7-0.9-3.3
			c-0.6-0.6-1.4-0.9-2.3-0.9s-1.7,0.3-2.3,0.9c-0.6,0.6-0.9,1.7-0.9,3.3V144.6z M90.7,161.1c0,1.6,0.3,2.7,0.9,3.3
			c0.6,0.6,1.4,0.8,2.3,0.8s1.7-0.3,2.3-0.8c0.6-0.6,0.9-1.6,1-3.3v-3.4c0-1.5-0.3-2.5-0.9-3.1c-0.6-0.6-1.4-1-2.4-1
			c-1,0-1.8,0.3-2.4,1c-0.6,0.6-0.9,1.7-0.9,3.1V161.1z"/>
	</g>
	<g class="st7">
		<path class="st10" d="M78.4,409.5c0-1.6-0.3-2.7-0.8-3.3c-0.5-0.6-1.3-0.9-2.2-0.9c-0.9,0-1.6,0.3-2.2,0.8
			c-0.5,0.5-0.8,1.5-0.8,2.8v3.9h-5.4v-3.5c0-2.9,0.7-5.2,2.2-6.8c1.4-1.6,3.6-2.4,6.4-2.4s4.9,0.8,6.4,2.4c1.4,1.6,2.2,3.8,2.2,6.8
			c0,1.9-0.3,3.6-0.8,5.2c-0.6,1.5-1.3,2.9-2.1,4.2c-0.9,1.3-1.8,2.4-2.8,3.5c-1,1.1-1.9,2.1-2.8,3.1c-0.9,1-1.6,1.9-2.1,2.8
			c-0.6,0.9-0.8,1.9-0.8,2.9c0,0.3,0,0.6,0.1,0.8h10.8v5.2H67.1v-4.5c0-1.8,0.3-3.3,0.8-4.7c0.6-1.4,1.3-2.6,2.1-3.7
			c0.8-1.1,1.8-2.2,2.7-3.2c1-1,1.9-2,2.7-3.1c0.8-1.1,1.6-2.3,2.1-3.6C78.1,412.9,78.4,411.3,78.4,409.5z"/>
		<path class="st10" d="M99,409.5c0-1.6-0.3-2.7-0.8-3.3c-0.5-0.6-1.3-0.9-2.2-0.9c-0.9,0-1.6,0.3-2.2,0.8c-0.5,0.5-0.8,1.5-0.8,2.8
			v3.9h-5.4v-3.5c0-2.9,0.7-5.2,2.2-6.8c1.4-1.6,3.6-2.4,6.4-2.4c2.8,0,4.9,0.8,6.4,2.4c1.4,1.6,2.2,3.8,2.2,6.8
			c0,1.9-0.3,3.6-0.8,5.2c-0.6,1.5-1.3,2.9-2.1,4.2c-0.9,1.3-1.8,2.4-2.8,3.5c-1,1.1-1.9,2.1-2.8,3.1c-0.8,1-1.6,1.9-2.1,2.8
			c-0.6,0.9-0.8,1.9-0.8,2.9c0,0.3,0,0.6,0.1,0.8h10.8v5.2H87.7v-4.5c0-1.8,0.3-3.3,0.8-4.7c0.6-1.4,1.3-2.6,2.1-3.7
			c0.8-1.1,1.8-2.2,2.7-3.2c1-1,1.9-2,2.7-3.1s1.6-2.3,2.1-3.6C98.7,412.9,99,411.3,99,409.5z"/>
	</g>
	<g class="st7">
		<path class="st8" d="M612.2,210.2v1.8H608v6.2h5.2v1.8H606v-17.5h7.2v1.8H608v6H612.2z"/>
		<path class="st8" d="M619.3,212.5l-2.9,7.5h-1.8l3.5-9l-3.3-8.5h2l2.7,7l2.7-7h1.8l-3.3,8.5l3.5,9h-2L619.3,212.5z"/>
		<path class="st8" d="M627.8,212.1v7.9h-2v-17.5h2v7.9h4.3v-7.9h2V220h-2v-7.9H627.8z"/>
		<path class="st8" d="M638,202.5V220h-2v-17.5H638z"/>
		<path class="st8" d="M643.9,202.5c1.4,0,2.3,0.3,2.9,1c0.6,0.6,0.9,1.6,0.9,2.9v0.8c0,0.9-0.1,1.7-0.4,2.3c-0.3,0.6-0.8,1-1.6,1.2
			c0.9,0.2,1.5,0.7,1.8,1.3s0.5,1.5,0.5,2.4v1.5c0,1.3-0.3,2.3-1,3c-0.6,0.7-1.7,1.1-3,1.1h-4v-17.5H643.9z M643.5,209.9
			c0.8,0,1.4-0.2,1.8-0.5c0.4-0.3,0.6-0.9,0.6-1.9v-1c0-0.8-0.1-1.4-0.4-1.7s-0.8-0.6-1.5-0.6H642v5.6H643.5z M644,218.2
			c1.4,0,2.1-0.8,2.1-2.4v-1.5c0-1-0.2-1.7-0.6-2s-1-0.6-1.9-0.6H642v6.5H644z"/>
		<path class="st8" d="M651.8,202.5V220h-2v-17.5H651.8z"/>
		<path class="st8" d="M656.3,220v-15.7h-3.2v-1.8h8.4v1.8h-3.2V220H656.3z"/>
		<path class="st8" d="M662.7,206.7c0-1.3,0.3-2.4,1-3.2c0.7-0.8,1.7-1.2,3-1.2c1.4,0,2.4,0.4,3,1.2c0.7,0.8,1,1.9,1,3.2v9.1
			c0,1.3-0.3,2.4-1,3.2c-0.7,0.8-1.7,1.2-3,1.2c-1.3,0-2.4-0.4-3-1.2c-0.7-0.8-1-1.9-1-3.2V206.7z M664.6,215.9
			c0,0.8,0.2,1.4,0.5,1.9c0.3,0.4,0.9,0.7,1.6,0.7c0.7,0,1.2-0.2,1.6-0.7c0.3-0.4,0.5-1.1,0.5-1.9v-9.2c0-0.8-0.2-1.4-0.5-1.9
			s-0.9-0.7-1.6-0.7c-0.7,0-1.2,0.2-1.6,0.7s-0.5,1.1-0.5,1.9V215.9z"/>
		<path class="st8" d="M676.5,202.5c1.4,0,2.4,0.3,3,1c0.6,0.7,0.9,1.7,0.9,3v1.4c0,1-0.2,1.8-0.5,2.4c-0.4,0.6-0.9,1-1.7,1.2
			c0.8,0.2,1.4,0.7,1.7,1.3c0.3,0.6,0.5,1.4,0.5,2.4v2.7c0,0.4,0,0.8,0,1.1s0.1,0.7,0.3,1h-2c-0.1-0.2-0.2-0.5-0.2-0.8
			c0-0.3-0.1-0.7-0.1-1.3v-2.8c0-1-0.2-1.7-0.7-2c-0.4-0.4-1.1-0.6-1.9-0.6h-1.4v7.5h-2v-17.5H676.5z M676,210.8
			c0.8,0,1.4-0.2,1.8-0.5s0.7-1,0.7-1.9v-1.7c0-0.8-0.2-1.4-0.5-1.8s-0.8-0.6-1.6-0.6h-1.9v6.5H676z"/>
		<path class="st8" d="M686.1,202.3c1.3,0,2.3,0.4,3,1.2c0.6,0.8,1,1.9,1,3.2v0.5h-1.9v-0.6c0-0.8-0.2-1.4-0.5-1.8
			c-0.3-0.4-0.8-0.6-1.5-0.6c-0.7,0-1.2,0.2-1.5,0.6c-0.3,0.4-0.5,1-0.5,1.8c0,0.6,0.1,1.2,0.4,1.7c0.3,0.5,0.7,0.9,1.1,1.3
			c0.4,0.4,0.9,0.8,1.4,1.2c0.5,0.4,1,0.8,1.4,1.3c0.4,0.5,0.8,1,1.1,1.6c0.3,0.6,0.4,1.3,0.4,2.1c0,1.3-0.3,2.4-1,3.2
			c-0.6,0.8-1.6,1.2-3,1.2c-1.4,0-2.3-0.4-3-1.2c-0.6-0.8-1-1.9-1-3.2v-1h1.8v1.1c0,0.8,0.2,1.4,0.5,1.8s0.9,0.7,1.5,0.7
			c0.7,0,1.2-0.2,1.6-0.7c0.3-0.4,0.5-1,0.5-1.8c0-0.7-0.1-1.2-0.4-1.7c-0.3-0.5-0.7-0.9-1.1-1.3s-0.9-0.8-1.4-1.2s-1-0.8-1.4-1.3
			c-0.4-0.5-0.8-1-1.1-1.6s-0.4-1.3-0.4-2.1c0-1.4,0.3-2.4,1-3.2C683.8,202.7,684.8,202.3,686.1,202.3z"/>
	</g>
	<g class="st7">
		<path class="st8" d="M312.9,65.7c0-1.3,0.3-2.4,1-3.2c0.7-0.8,1.7-1.2,3-1.2s2.4,0.4,3,1.2c0.7,0.8,1,1.9,1,3.2v9.1
			c0,1.3-0.3,2.4-1,3.2c-0.7,0.8-1.7,1.2-3,1.2s-2.4-0.4-3-1.2c-0.7-0.8-1-1.9-1-3.2V65.7z M314.8,74.9c0,0.8,0.2,1.4,0.5,1.9
			c0.3,0.4,0.9,0.7,1.6,0.7c0.7,0,1.2-0.2,1.6-0.7c0.3-0.4,0.5-1.1,0.5-1.9v-9.2c0-0.8-0.2-1.4-0.5-1.9s-0.9-0.7-1.6-0.7
			c-0.7,0-1.2,0.2-1.6,0.7c-0.3,0.4-0.5,1.1-0.5,1.9V74.9z"/>
		<path class="st8" d="M328.7,69.7v1.8h-4V79h-2V61.5h7v1.8h-5v6.4H328.7z"/>
		<path class="st8" d="M337.2,69.7v1.8h-4V79h-2V61.5h7v1.8h-5v6.4H337.2z"/>
		<path class="st8" d="M341.7,61.5V79h-2V61.5H341.7z"/>
		<path class="st8" d="M347.5,61.3c1.3,0,2.3,0.4,3,1.2c0.6,0.8,1,1.9,1,3.2v1.6h-1.8v-1.7c0-0.8-0.2-1.4-0.5-1.9s-0.8-0.7-1.6-0.7
			c-0.7,0-1.2,0.2-1.5,0.7c-0.3,0.4-0.5,1.1-0.5,1.9v9.2c0,0.8,0.2,1.4,0.5,1.9c0.3,0.4,0.8,0.7,1.5,0.7c0.7,0,1.2-0.2,1.6-0.7
			c0.3-0.4,0.5-1.1,0.5-1.9v-2.3h1.8v2.2c0,1.3-0.3,2.4-1,3.2c-0.6,0.8-1.6,1.2-3,1.2c-1.3,0-2.3-0.4-3-1.2c-0.6-0.8-1-1.9-1-3.2
			v-9.1c0-0.7,0.1-1.3,0.2-1.8c0.2-0.5,0.4-1,0.7-1.4c0.3-0.4,0.7-0.7,1.2-0.9C346.2,61.4,346.8,61.3,347.5,61.3z"/>
		<path class="st8" d="M355.1,61.5V79h-2V61.5H355.1z"/>
		<path class="st8" d="M359.1,75.5l-0.7,3.5h-1.8l3.3-17.5h2.8l3.4,17.5h-2l-0.7-3.5H359.1z M359.3,73.8h3.9l-2-10.1L359.3,73.8z"/>
		<path class="st8" d="M367.7,79V61.5h2v15.7h5V79H367.7z"/>
		<path class="st8" d="M381.4,61.5l2.9,15.2l2.8-15.2h1.8L385.6,79h-2.9l-3.3-17.5H381.4z"/>
		<path class="st8" d="M392.4,61.5V79h-2V61.5H392.4z"/>
		<path class="st8" d="M398,61.3c1.3,0,2.3,0.4,3,1.2c0.6,0.8,1,1.9,1,3.2v0.5h-1.9v-0.6c0-0.8-0.2-1.4-0.5-1.8
			c-0.3-0.4-0.8-0.6-1.5-0.6c-0.7,0-1.2,0.2-1.5,0.6c-0.3,0.4-0.5,1-0.5,1.8c0,0.6,0.1,1.2,0.4,1.7c0.3,0.5,0.7,0.9,1.1,1.3
			c0.4,0.4,0.9,0.8,1.4,1.2c0.5,0.4,1,0.8,1.4,1.3c0.4,0.5,0.8,1,1.1,1.6c0.3,0.6,0.4,1.3,0.4,2.1c0,1.3-0.3,2.4-1,3.2
			c-0.6,0.8-1.6,1.2-3,1.2c-1.4,0-2.3-0.4-3-1.2c-0.6-0.8-1-1.9-1-3.2v-1h1.8v1.1c0,0.8,0.2,1.4,0.5,1.8s0.9,0.7,1.5,0.7
			c0.7,0,1.2-0.2,1.6-0.7c0.3-0.4,0.5-1,0.5-1.8c0-0.7-0.1-1.2-0.4-1.7c-0.3-0.5-0.7-0.9-1.1-1.3s-0.9-0.8-1.4-1.2s-1-0.8-1.4-1.3
			c-0.4-0.5-0.8-1-1.1-1.6s-0.4-1.3-0.4-2.1c0-1.4,0.3-2.4,1-3.2C395.8,61.7,396.7,61.3,398,61.3z"/>
		<path class="st8" d="M405.6,61.5V79h-2V61.5H405.6z"/>
		<path class="st8" d="M410.2,79V63.3h-3.2v-1.8h8.4v1.8h-3.2V79H410.2z"/>
		<path class="st8" d="M420.4,61.3c1.3,0,2.3,0.4,3,1.2c0.6,0.8,1,1.9,1,3.2v0.5h-1.9v-0.6c0-0.8-0.2-1.4-0.5-1.8
			c-0.3-0.4-0.8-0.6-1.5-0.6c-0.7,0-1.2,0.2-1.5,0.6c-0.3,0.4-0.5,1-0.5,1.8c0,0.6,0.1,1.2,0.4,1.7c0.3,0.5,0.7,0.9,1.1,1.3
			c0.4,0.4,0.9,0.8,1.4,1.2c0.5,0.4,1,0.8,1.4,1.3c0.4,0.5,0.8,1,1.1,1.6c0.3,0.6,0.4,1.3,0.4,2.1c0,1.3-0.3,2.4-1,3.2
			c-0.6,0.8-1.6,1.2-3,1.2c-1.4,0-2.3-0.4-3-1.2c-0.6-0.8-1-1.9-1-3.2v-1h1.8v1.1c0,0.8,0.2,1.4,0.5,1.8s0.9,0.7,1.5,0.7
			c0.7,0,1.2-0.2,1.6-0.7c0.3-0.4,0.5-1,0.5-1.8c0-0.7-0.1-1.2-0.4-1.7c-0.3-0.5-0.7-0.9-1.1-1.3s-0.9-0.8-1.4-1.2s-1-0.8-1.4-1.3
			c-0.4-0.5-0.8-1-1.1-1.6s-0.4-1.3-0.4-2.1c0-1.4,0.3-2.4,1-3.2C418.1,61.7,419.1,61.3,420.4,61.3z"/>
	</g>
	<g class="st7">
		<path class="st8" d="M597.2,444.5c1.4,0,2.4,0.4,3,1.1c0.6,0.8,0.9,1.8,0.9,3.1v2.1c0,1.4-0.3,2.5-1,3.2c-0.7,0.7-1.7,1.1-3.1,1.1
			h-1.7v6.9h-2v-17.5H597.2z M597,453.3c0.7,0,1.3-0.2,1.6-0.5c0.4-0.4,0.5-1,0.5-1.8v-2.3c0-0.8-0.2-1.4-0.5-1.8s-0.8-0.6-1.5-0.6
			h-1.9v7.1H597z"/>
		<path class="st8" d="M606.6,444.5c1.4,0,2.4,0.3,3,1s0.9,1.7,0.9,3v1.4c0,1-0.2,1.8-0.5,2.4c-0.4,0.6-0.9,1-1.7,1.2
			c0.8,0.2,1.4,0.7,1.7,1.3c0.3,0.6,0.5,1.4,0.5,2.4v2.7c0,0.4,0,0.8,0,1.1s0.1,0.7,0.3,1h-2c-0.1-0.2-0.2-0.5-0.2-0.8
			c0-0.3-0.1-0.7-0.1-1.3v-2.8c0-1-0.2-1.7-0.7-2c-0.4-0.4-1.1-0.6-1.9-0.6h-1.4v7.5h-2v-17.5H606.6z M606.1,452.8
			c0.8,0,1.4-0.2,1.8-0.5c0.4-0.3,0.6-1,0.6-1.9v-1.7c0-0.8-0.2-1.4-0.5-1.8c-0.3-0.4-0.8-0.6-1.6-0.6h-1.9v6.5H606.1z"/>
		<path class="st8" d="M618.8,452.2v1.8h-4.3v6.2h5.2v1.8h-7.2v-17.5h7.2v1.8h-5.2v6H618.8z"/>
		<path class="st8" d="M625.2,444.3c1.3,0,2.3,0.4,3,1.2c0.6,0.8,1,1.9,1,3.2v0.5h-1.9v-0.6c0-0.8-0.2-1.4-0.5-1.8s-0.8-0.7-1.5-0.7
			c-0.7,0-1.2,0.2-1.5,0.7c-0.3,0.4-0.5,1-0.5,1.8c0,0.6,0.1,1.2,0.4,1.7c0.3,0.5,0.7,0.9,1.1,1.3c0.4,0.4,0.9,0.8,1.4,1.2
			c0.5,0.4,1,0.8,1.4,1.3c0.4,0.5,0.8,1,1.1,1.6c0.3,0.6,0.4,1.3,0.4,2.1c0,1.3-0.3,2.4-1,3.2c-0.6,0.8-1.6,1.2-3,1.2
			c-1.4,0-2.3-0.4-3-1.2c-0.6-0.8-1-1.9-1-3.2v-1h1.8v1.1c0,0.8,0.2,1.4,0.5,1.8s0.9,0.7,1.5,0.7c0.7,0,1.2-0.2,1.6-0.7
			c0.3-0.4,0.5-1,0.5-1.8c0-0.7-0.1-1.2-0.4-1.7c-0.3-0.5-0.7-0.9-1.1-1.3s-0.9-0.8-1.4-1.2s-1-0.8-1.4-1.3c-0.4-0.5-0.8-1-1.1-1.6
			s-0.4-1.3-0.4-2.1c0-1.4,0.3-2.4,1-3.2C622.9,444.7,623.9,444.3,625.2,444.3z"/>
		<path class="st8" d="M634.5,444.3c1.3,0,2.3,0.4,3,1.2c0.6,0.8,1,1.9,1,3.2v0.5h-1.9v-0.6c0-0.8-0.2-1.4-0.5-1.8s-0.8-0.7-1.5-0.7
			c-0.7,0-1.2,0.2-1.5,0.7c-0.3,0.4-0.5,1-0.5,1.8c0,0.6,0.1,1.2,0.4,1.7c0.3,0.5,0.7,0.9,1.1,1.3c0.4,0.4,0.9,0.8,1.4,1.2
			c0.5,0.4,1,0.8,1.4,1.3c0.4,0.5,0.8,1,1.1,1.6c0.3,0.6,0.4,1.3,0.4,2.1c0,1.3-0.3,2.4-1,3.2c-0.6,0.8-1.6,1.2-3,1.2
			c-1.4,0-2.3-0.4-3-1.2c-0.6-0.8-1-1.9-1-3.2v-1h1.8v1.1c0,0.8,0.2,1.4,0.5,1.8s0.9,0.7,1.5,0.7c0.7,0,1.2-0.2,1.6-0.7
			c0.3-0.4,0.5-1,0.5-1.8c0-0.7-0.1-1.2-0.4-1.7c-0.3-0.5-0.7-0.9-1.1-1.3s-0.9-0.8-1.4-1.2s-1-0.8-1.4-1.3c-0.4-0.5-0.8-1-1.1-1.6
			s-0.4-1.3-0.4-2.1c0-1.4,0.3-2.4,1-3.2C632.2,444.7,633.2,444.3,634.5,444.3z"/>
		<path class="st8" d="M647.8,444.3c1.3,0,2.3,0.4,3,1.2c0.6,0.8,1,1.9,1,3.2v1.6h-1.8v-1.7c0-0.8-0.2-1.4-0.5-1.9s-0.8-0.7-1.6-0.7
			c-0.7,0-1.2,0.2-1.5,0.7c-0.3,0.4-0.5,1.1-0.5,1.9v9.2c0,0.8,0.2,1.4,0.5,1.9c0.3,0.4,0.8,0.7,1.5,0.7c0.7,0,1.2-0.2,1.6-0.7
			c0.3-0.4,0.5-1.1,0.5-1.9v-2.3h1.8v2.2c0,1.3-0.3,2.4-1,3.2c-0.6,0.8-1.6,1.2-3,1.2c-1.3,0-2.3-0.4-3-1.2c-0.6-0.8-1-1.9-1-3.2
			v-9.1c0-0.7,0.1-1.3,0.2-1.8c0.2-0.5,0.4-1,0.7-1.4c0.3-0.4,0.7-0.7,1.2-0.9C646.5,444.4,647.1,444.3,647.8,444.3z"/>
		<path class="st8" d="M653.4,448.7c0-1.3,0.3-2.4,1-3.2c0.7-0.8,1.7-1.2,3-1.2c1.4,0,2.4,0.4,3,1.2c0.7,0.8,1,1.9,1,3.2v9.1
			c0,1.3-0.3,2.4-1,3.2c-0.7,0.8-1.7,1.2-3,1.2c-1.3,0-2.4-0.4-3-1.2c-0.7-0.8-1-1.9-1-3.2V448.7z M655.3,457.9
			c0,0.8,0.2,1.4,0.5,1.9c0.3,0.4,0.9,0.7,1.6,0.7c0.7,0,1.2-0.2,1.6-0.7c0.3-0.4,0.5-1.1,0.5-1.9v-9.2c0-0.8-0.2-1.4-0.5-1.9
			s-0.9-0.7-1.6-0.7c-0.7,0-1.2,0.2-1.6,0.7s-0.5,1.1-0.5,1.9V457.9z"/>
		<path class="st8" d="M664.7,444.5l2.9,15.2l2.8-15.2h1.8l-3.3,17.5H666l-3.3-17.5H664.7z"/>
		<path class="st8" d="M679.9,452.2v1.8h-4.3v6.2h5.2v1.8h-7.2v-17.5h7.2v1.8h-5.2v6H679.9z"/>
		<path class="st8" d="M686.6,444.5c1.4,0,2.4,0.3,3,1s0.9,1.7,0.9,3v1.4c0,1-0.2,1.8-0.5,2.4c-0.4,0.6-0.9,1-1.7,1.2
			c0.8,0.2,1.4,0.7,1.7,1.3c0.3,0.6,0.5,1.4,0.5,2.4v2.7c0,0.4,0,0.8,0,1.1s0.1,0.7,0.3,1h-2c-0.1-0.2-0.2-0.5-0.2-0.8
			c0-0.3-0.1-0.7-0.1-1.3v-2.8c0-1-0.2-1.7-0.7-2c-0.4-0.4-1.1-0.6-1.9-0.6h-1.4v7.5h-2v-17.5H686.6z M686.1,452.8
			c0.8,0,1.4-0.2,1.8-0.5s0.7-1,0.7-1.9v-1.7c0-0.8-0.2-1.4-0.5-1.8s-0.8-0.6-1.6-0.6h-1.9v6.5H686.1z"/>
		<path class="st8" d="M694.5,458.5l-0.7,3.5H692l3.3-17.5h2.8l3.4,17.5h-2l-0.7-3.5H694.5z M694.7,456.8h3.9l-2-10.1L694.7,456.8z"
			/>
		<path class="st8" d="M706.8,444.3c1.3,0,2.3,0.4,3,1.2c0.6,0.8,1,1.9,1,3.2v1.5h-1.8v-1.6c0-0.8-0.2-1.4-0.5-1.9s-0.8-0.7-1.6-0.7
			c-0.7,0-1.2,0.2-1.5,0.7c-0.3,0.4-0.5,1.1-0.5,1.9v9.2c0,0.8,0.2,1.4,0.5,1.9c0.3,0.4,0.8,0.7,1.5,0.7c0.7,0,1.2-0.2,1.6-0.7
			c0.3-0.4,0.5-1.1,0.5-1.9v-3.5h-1.8v-1.8h3.6v5.2c0,1.3-0.3,2.4-1,3.2c-0.6,0.8-1.6,1.2-3,1.2c-1.3,0-2.3-0.4-3-1.2
			c-0.6-0.8-1-1.9-1-3.2v-9.1c0-0.7,0.1-1.3,0.2-1.8c0.2-0.5,0.4-1,0.7-1.4c0.3-0.4,0.7-0.7,1.2-0.9
			C705.6,444.4,706.2,444.3,706.8,444.3z"/>
		<path class="st8" d="M718.9,452.2v1.8h-4.3v6.2h5.2v1.8h-7.2v-17.5h7.2v1.8h-5.2v6H718.9z"/>
	</g>
	<g class="st7">
		<path class="st8" d="M34,187.5V205h-2v-17.5H34z"/>
		<path class="st8" d="M37.8,205H36v-17.5h2.5l4,12.7v-12.7h1.7V205h-2l-4.5-14.1V205z"/>
		<path class="st8" d="M48.8,205v-15.7h-3.2v-1.8H54v1.8h-3.2V205H48.8z"/>
		<path class="st8" d="M61.6,195.2v1.8h-4.3v6.2h5.2v1.8h-7.2v-17.5h7.2v1.8h-5.2v6H61.6z"/>
		<path class="st8" d="M68.2,187.5c1.4,0,2.4,0.3,3,1c0.6,0.7,0.9,1.7,0.9,3v1.4c0,1-0.2,1.8-0.5,2.4c-0.4,0.6-0.9,1-1.7,1.2
			c0.8,0.2,1.4,0.7,1.7,1.3c0.3,0.6,0.5,1.4,0.5,2.4v2.7c0,0.4,0,0.8,0,1.1s0.1,0.7,0.3,1h-2c-0.1-0.2-0.2-0.5-0.2-0.8
			c0-0.3-0.1-0.7-0.1-1.3v-2.8c0-1-0.2-1.7-0.7-2c-0.4-0.4-1.1-0.6-1.9-0.6h-1.4v7.5h-2v-17.5H68.2z M67.7,195.8
			c0.8,0,1.4-0.2,1.8-0.5s0.7-1,0.7-1.9v-1.7c0-0.8-0.2-1.4-0.5-1.8s-0.8-0.6-1.6-0.6h-1.9v6.5H67.7z"/>
		<path class="st8" d="M75.9,205h-1.8v-17.5h2.5l4,12.7v-12.7h1.7V205h-2l-4.5-14.1V205z"/>
		<path class="st8" d="M86.4,201.5l-0.7,3.5h-1.8l3.3-17.5h2.8l3.4,17.5h-2l-0.7-3.5H86.4z M86.6,199.8h3.9l-2-10.1L86.6,199.8z"/>
		<path class="st8" d="M97.5,205v-15.7h-3.2v-1.8h8.4v1.8h-3.2V205H97.5z"/>
		<path class="st8" d="M106,187.5V205h-2v-17.5H106z"/>
		<path class="st8" d="M107.8,191.7c0-1.3,0.3-2.4,1-3.2c0.7-0.8,1.7-1.2,3-1.2c1.4,0,2.4,0.4,3,1.2c0.7,0.8,1,1.9,1,3.2v9.1
			c0,1.3-0.3,2.4-1,3.2c-0.7,0.8-1.7,1.2-3,1.2c-1.3,0-2.4-0.4-3-1.2c-0.7-0.8-1-1.9-1-3.2V191.7z M109.8,200.9
			c0,0.8,0.2,1.4,0.5,1.9c0.3,0.4,0.9,0.7,1.6,0.7c0.7,0,1.2-0.2,1.6-0.7c0.3-0.4,0.5-1.1,0.5-1.9v-9.2c0-0.8-0.2-1.4-0.5-1.9
			s-0.9-0.7-1.6-0.7c-0.7,0-1.2,0.2-1.6,0.7s-0.5,1.1-0.5,1.9V200.9z"/>
		<path class="st8" d="M119.4,205h-1.8v-17.5h2.5l4,12.7v-12.7h1.7V205h-2l-4.5-14.1V205z"/>
		<path class="st8" d="M129.9,201.5l-0.7,3.5h-1.8l3.3-17.5h2.8L137,205h-2l-0.7-3.5H129.9z M130.2,199.8h3.9l-2-10.1L130.2,199.8z"
			/>
		<path class="st8" d="M138.5,205v-17.5h2v15.7h5v1.8H138.5z"/>
	</g>
	<g class="st7">
		<path class="st8" d="M44.2,217.5c1.4,0,2.4,0.4,3,1.2s1,1.8,1,3.2v8.8c0,1.4-0.3,2.4-1,3.2c-0.6,0.8-1.6,1.2-3,1.2h-4.1v-17.5
			H44.2z M44.2,233.2c0.7,0,1.2-0.2,1.6-0.6c0.3-0.4,0.5-1,0.5-1.8v-9c0-0.8-0.2-1.4-0.5-1.8c-0.3-0.4-0.9-0.6-1.6-0.6h-2.1v13.9
			H44.2z"/>
		<path class="st8" d="M56.3,225.2v1.8H52v6.2h5.2v1.8H50v-17.5h7.2v1.8H52v6H56.3z"/>
		<path class="st8" d="M59,235v-17.5h2v15.7h5v1.8H59z"/>
		<path class="st8" d="M73.7,225.2v1.8h-4.3v6.2h5.2v1.8h-7.2v-17.5h7.2v1.8h-5.2v6H73.7z"/>
		<path class="st8" d="M80.2,217.3c1.3,0,2.3,0.4,3,1.2c0.6,0.8,1,1.9,1,3.2v1.5h-1.8v-1.6c0-0.8-0.2-1.4-0.5-1.9s-0.8-0.7-1.6-0.7
			c-0.7,0-1.2,0.2-1.5,0.7c-0.3,0.4-0.5,1.1-0.5,1.9v9.2c0,0.8,0.2,1.4,0.5,1.9c0.3,0.4,0.8,0.7,1.5,0.7c0.7,0,1.2-0.2,1.6-0.7
			c0.3-0.4,0.5-1.1,0.5-1.9v-3.5h-1.8v-1.8h3.6v5.2c0,1.3-0.3,2.4-1,3.2c-0.6,0.8-1.6,1.2-3,1.2c-1.3,0-2.3-0.4-3-1.2
			c-0.6-0.8-1-1.9-1-3.2v-9.1c0-0.7,0.1-1.3,0.2-1.8c0.2-0.5,0.4-1,0.7-1.4c0.3-0.4,0.7-0.7,1.2-0.9C79,217.4,79.6,217.3,80.2,217.3
			z"/>
		<path class="st8" d="M88,231.5l-0.7,3.5h-1.8l3.3-17.5h2.8L95,235h-2l-0.7-3.5H88z M88.2,229.8h3.9l-2-10.1L88.2,229.8z"/>
		<path class="st8" d="M99.1,235v-15.7h-3.2v-1.8h8.4v1.8h-3.2V235H99.1z"/>
		<path class="st8" d="M107.6,217.5V235h-2v-17.5H107.6z"/>
		<path class="st8" d="M109.4,221.7c0-1.3,0.3-2.4,1-3.2c0.7-0.8,1.7-1.2,3-1.2c1.4,0,2.4,0.4,3,1.2c0.7,0.8,1,1.9,1,3.2v9.1
			c0,1.3-0.3,2.4-1,3.2c-0.7,0.8-1.7,1.2-3,1.2c-1.3,0-2.4-0.4-3-1.2c-0.7-0.8-1-1.9-1-3.2V221.7z M111.4,230.9
			c0,0.8,0.2,1.4,0.5,1.9c0.3,0.4,0.9,0.7,1.6,0.7c0.7,0,1.2-0.2,1.6-0.7c0.3-0.4,0.5-1.1,0.5-1.9v-9.2c0-0.8-0.2-1.4-0.5-1.9
			s-0.9-0.7-1.6-0.7c-0.7,0-1.2,0.2-1.6,0.7s-0.5,1.1-0.5,1.9V230.9z"/>
		<path class="st8" d="M121,235h-1.8v-17.5h2.5l4,12.7v-12.7h1.7V235h-2l-4.5-14.1V235z"/>
		<path class="st8" d="M133.2,217.3c1.3,0,2.3,0.4,3,1.2c0.6,0.8,1,1.9,1,3.2v0.5h-1.9v-0.6c0-0.8-0.2-1.4-0.5-1.8
			c-0.3-0.4-0.8-0.6-1.5-0.6c-0.7,0-1.2,0.2-1.5,0.6c-0.3,0.4-0.5,1-0.5,1.8c0,0.6,0.1,1.2,0.4,1.7c0.3,0.5,0.7,0.9,1.1,1.3
			c0.4,0.4,0.9,0.8,1.4,1.2c0.5,0.4,1,0.8,1.4,1.3c0.4,0.5,0.8,1,1.1,1.6c0.3,0.6,0.4,1.3,0.4,2.1c0,1.3-0.3,2.4-1,3.2
			c-0.6,0.8-1.6,1.2-3,1.2c-1.4,0-2.3-0.4-3-1.2c-0.6-0.8-1-1.9-1-3.2v-1h1.8v1.1c0,0.8,0.2,1.4,0.5,1.8s0.9,0.7,1.5,0.7
			c0.7,0,1.2-0.2,1.6-0.7c0.3-0.4,0.5-1,0.5-1.8c0-0.7-0.1-1.2-0.4-1.7c-0.3-0.5-0.7-0.9-1.1-1.3s-0.9-0.8-1.4-1.2s-1-0.8-1.4-1.3
			c-0.4-0.5-0.8-1-1.1-1.6s-0.4-1.3-0.4-2.1c0-1.4,0.3-2.4,1-3.2C130.9,217.7,131.9,217.3,133.2,217.3z"/>
	</g>
	<g class="st7">
		<path class="st8" d="M308.1,621.5c1.4,0,2.4,0.4,3,1.1c0.6,0.8,0.9,1.8,0.9,3.1v2.1c0,1.4-0.3,2.5-1,3.2c-0.7,0.7-1.7,1.1-3.1,1.1
			h-1.7v6.9h-2v-17.5H308.1z M307.9,630.3c0.7,0,1.3-0.2,1.6-0.5c0.4-0.4,0.5-1,0.5-1.8v-2.3c0-0.8-0.2-1.4-0.5-1.8
			s-0.8-0.6-1.5-0.6h-1.9v7.1H307.9z"/>
		<path class="st8" d="M319.8,629.2v1.8h-4.3v6.2h5.2v1.8h-7.2v-17.5h7.2v1.8h-5.2v6H319.8z"/>
		<path class="st8" d="M322.4,625.7c0-1.3,0.3-2.4,1-3.2c0.7-0.8,1.7-1.2,3-1.2c1.4,0,2.4,0.4,3,1.2c0.7,0.8,1,1.9,1,3.2v9.1
			c0,1.3-0.3,2.4-1,3.2c-0.7,0.8-1.7,1.2-3,1.2c-1.3,0-2.4-0.4-3-1.2c-0.7-0.8-1-1.9-1-3.2V625.7z M324.4,634.9
			c0,0.8,0.2,1.4,0.5,1.9c0.3,0.4,0.9,0.7,1.6,0.7c0.7,0,1.2-0.2,1.6-0.7c0.3-0.4,0.5-1.1,0.5-1.9v-9.2c0-0.8-0.2-1.4-0.5-1.9
			s-0.9-0.7-1.6-0.7c-0.7,0-1.2,0.2-1.6,0.7s-0.5,1.1-0.5,1.9V634.9z"/>
		<path class="st8" d="M336.1,621.5c1.4,0,2.4,0.4,3,1.1c0.6,0.8,0.9,1.8,0.9,3.1v2.1c0,1.4-0.3,2.5-1,3.2c-0.7,0.7-1.7,1.1-3.1,1.1
			h-1.7v6.9h-2v-17.5H336.1z M336,630.3c0.7,0,1.3-0.2,1.6-0.5c0.4-0.4,0.5-1,0.5-1.8v-2.3c0-0.8-0.2-1.4-0.5-1.8s-0.8-0.6-1.5-0.6
			h-1.9v7.1H336z"/>
		<path class="st8" d="M341.6,639v-17.5h2v15.7h5v1.8H341.6z"/>
		<path class="st8" d="M356.3,629.2v1.8H352v6.2h5.2v1.8h-7.2v-17.5h7.2v1.8H352v6H356.3z"/>
		<path class="st8" d="M366.8,621.5c1.4,0,2.4,0.3,3,1s0.9,1.7,0.9,3v1.4c0,1-0.2,1.8-0.5,2.4c-0.4,0.6-0.9,1-1.7,1.2
			c0.8,0.2,1.4,0.7,1.7,1.3c0.3,0.6,0.5,1.4,0.5,2.4v2.7c0,0.4,0,0.8,0,1.1s0.1,0.7,0.3,1h-2c-0.1-0.2-0.2-0.5-0.2-0.8
			c0-0.3-0.1-0.7-0.1-1.3v-2.8c0-1-0.2-1.7-0.7-2c-0.4-0.4-1.1-0.6-1.9-0.6h-1.4v7.5h-2v-17.5H366.8z M366.3,629.8
			c0.8,0,1.4-0.2,1.8-0.5s0.7-1,0.7-1.9v-1.7c0-0.8-0.2-1.4-0.5-1.8s-0.8-0.6-1.6-0.6h-1.9v6.5H366.3z"/>
		<path class="st8" d="M379,629.2v1.8h-4.3v6.2h5.2v1.8h-7.2v-17.5h7.2v1.8h-5.2v6H379z"/>
		<path class="st8" d="M383.8,635.5l-0.7,3.5h-1.8l3.3-17.5h2.8l3.4,17.5h-2l-0.7-3.5H383.8z M384,633.8h3.9l-2-10.1L384,633.8z"/>
		<path class="st8" d="M396.1,621.3c1.3,0,2.3,0.4,3,1.2c0.6,0.8,1,1.9,1,3.2v1.6h-1.8v-1.7c0-0.8-0.2-1.4-0.5-1.9s-0.8-0.7-1.6-0.7
			c-0.7,0-1.2,0.2-1.5,0.7c-0.3,0.4-0.5,1.1-0.5,1.9v9.2c0,0.8,0.2,1.4,0.5,1.9c0.3,0.4,0.8,0.7,1.5,0.7c0.7,0,1.2-0.2,1.6-0.7
			c0.3-0.4,0.5-1.1,0.5-1.9v-2.3h1.8v2.2c0,1.3-0.3,2.4-1,3.2c-0.6,0.8-1.6,1.2-3,1.2c-1.3,0-2.3-0.4-3-1.2c-0.6-0.8-1-1.9-1-3.2
			v-9.1c0-0.7,0.1-1.3,0.2-1.8c0.2-0.5,0.4-1,0.7-1.4c0.3-0.4,0.7-0.7,1.2-0.9C394.9,621.4,395.5,621.3,396.1,621.3z"/>
		<path class="st8" d="M403.8,631.1v7.9h-2v-17.5h2v7.9h4.3v-7.9h2V639h-2v-7.9H403.8z"/>
		<path class="st8" d="M418.3,629.2v1.8H414v6.2h5.2v1.8H412v-17.5h7.2v1.8H414v6H418.3z"/>
		<path class="st8" d="M425.1,621.5c1.4,0,2.4,0.4,3,1.2c0.6,0.8,1,1.8,1,3.2v8.8c0,1.4-0.3,2.4-1,3.2c-0.6,0.8-1.6,1.2-3,1.2H421
			v-17.5H425.1z M425.1,637.2c0.7,0,1.2-0.2,1.6-0.6c0.3-0.4,0.5-1,0.5-1.8v-9c0-0.8-0.2-1.4-0.5-1.8c-0.3-0.4-0.9-0.6-1.6-0.6H423
			v13.9H425.1z"/>
		<path class="st8" d="M434.7,625.7c0-1.3,0.3-2.4,1-3.2c0.7-0.8,1.7-1.2,3-1.2c1.4,0,2.4,0.4,3,1.2c0.7,0.8,1,1.9,1,3.2v9.1
			c0,1.3-0.3,2.4-1,3.2c-0.7,0.8-1.7,1.2-3,1.2c-1.3,0-2.4-0.4-3-1.2c-0.7-0.8-1-1.9-1-3.2V625.7z M436.6,634.9
			c0,0.8,0.2,1.4,0.5,1.9c0.3,0.4,0.9,0.7,1.6,0.7c0.7,0,1.2-0.2,1.6-0.7c0.3-0.4,0.5-1.1,0.5-1.9v-9.2c0-0.8-0.2-1.4-0.5-1.9
			s-0.9-0.7-1.6-0.7c-0.7,0-1.2,0.2-1.6,0.7s-0.5,1.1-0.5,1.9V634.9z"/>
		<path class="st8" d="M446.3,639h-1.8v-17.5h2.5l4,12.7v-12.7h1.7V639h-2l-4.5-14.2V639z"/>
	</g>
	<g class="st7">
		<path class="st8" d="M332.3,651.3c1.3,0,2.3,0.4,3,1.2c0.6,0.8,1,1.9,1,3.2v0.5h-1.9v-0.6c0-0.8-0.2-1.4-0.5-1.8
			c-0.3-0.4-0.8-0.7-1.5-0.7c-0.7,0-1.2,0.2-1.5,0.7c-0.3,0.4-0.5,1-0.5,1.8c0,0.6,0.1,1.2,0.4,1.7c0.3,0.5,0.7,0.9,1.1,1.3
			c0.4,0.4,0.9,0.8,1.4,1.2c0.5,0.4,1,0.8,1.4,1.3c0.4,0.5,0.8,1,1.1,1.6c0.3,0.6,0.4,1.3,0.4,2.1c0,1.3-0.3,2.4-1,3.2
			c-0.6,0.8-1.6,1.2-3,1.2s-2.3-0.4-3-1.2c-0.6-0.8-0.9-1.9-0.9-3.2v-1h1.8v1.1c0,0.8,0.2,1.4,0.5,1.8s0.9,0.7,1.6,0.7
			c0.7,0,1.2-0.2,1.5-0.7s0.5-1,0.5-1.8c0-0.7-0.1-1.2-0.4-1.7c-0.3-0.5-0.7-0.9-1.1-1.3c-0.4-0.4-0.9-0.8-1.4-1.2s-1-0.8-1.4-1.3
			c-0.4-0.5-0.8-1-1.1-1.6s-0.4-1.3-0.4-2.1c0-1.4,0.3-2.4,1-3.2C330,651.7,331,651.3,332.3,651.3z"/>
		<path class="st8" d="M337.8,655.7c0-1.3,0.3-2.4,1-3.2c0.7-0.8,1.7-1.2,3-1.2s2.4,0.4,3,1.2c0.7,0.8,1,1.9,1,3.2v9.1
			c0,1.3-0.3,2.4-1,3.2c-0.7,0.8-1.7,1.2-3,1.2s-2.4-0.4-3-1.2c-0.7-0.8-1-1.9-1-3.2V655.7z M339.7,664.9c0,0.8,0.2,1.4,0.5,1.9
			c0.3,0.4,0.9,0.7,1.6,0.7c0.7,0,1.2-0.2,1.6-0.7c0.3-0.4,0.5-1.1,0.5-1.9v-9.2c0-0.8-0.2-1.4-0.5-1.9s-0.9-0.7-1.6-0.7
			c-0.7,0-1.2,0.2-1.6,0.7c-0.3,0.4-0.5,1.1-0.5,1.9V664.9z"/>
		<path class="st8" d="M351.4,651.3c1.3,0,2.3,0.4,3,1.2c0.6,0.8,1,1.9,1,3.2v1.6h-1.8v-1.7c0-0.8-0.2-1.4-0.5-1.9s-0.8-0.7-1.6-0.7
			c-0.7,0-1.2,0.2-1.5,0.7c-0.3,0.4-0.5,1.1-0.5,1.9v9.2c0,0.8,0.2,1.4,0.5,1.9c0.3,0.4,0.8,0.7,1.5,0.7c0.7,0,1.2-0.2,1.6-0.7
			c0.3-0.4,0.5-1.1,0.5-1.9v-2.3h1.8v2.2c0,1.3-0.3,2.4-1,3.2c-0.6,0.8-1.6,1.2-3,1.2c-1.3,0-2.3-0.4-3-1.2c-0.6-0.8-1-1.9-1-3.2
			v-9.1c0-0.7,0.1-1.3,0.2-1.8c0.2-0.5,0.4-1,0.7-1.4c0.3-0.4,0.7-0.7,1.2-0.9C350.2,651.4,350.7,651.3,351.4,651.3z"/>
		<path class="st8" d="M359.1,651.5V669h-2v-17.5H359.1z"/>
		<path class="st8" d="M363,665.5l-0.7,3.5h-1.8l3.3-17.5h2.8l3.4,17.5h-2l-0.7-3.5H363z M363.3,663.8h3.9l-2-10.1L363.3,663.8z"/>
		<path class="st8" d="M371.6,669v-17.5h2v15.7h5v1.8H371.6z"/>
		<path class="st8" d="M390.4,669h-1.9l-2.9-13.9v14h-1.7v-17.5h2.7l2.9,14l2.8-14h2.7V669h-1.9v-14.1L390.4,669z"/>
		<path class="st8" d="M403.2,659.2v1.8h-4.3v6.2h5.2v1.8H397v-17.5h7.2v1.8h-5.2v6H403.2z"/>
		<path class="st8" d="M410.1,651.5c1.4,0,2.4,0.4,3,1.2c0.6,0.8,1,1.8,1,3.2v8.8c0,1.4-0.3,2.4-1,3.2c-0.6,0.8-1.6,1.2-3,1.2H406
			v-17.5H410.1z M410.1,667.2c0.7,0,1.2-0.2,1.6-0.6c0.3-0.4,0.5-1,0.5-1.8v-9c0-0.8-0.2-1.4-0.5-1.8c-0.3-0.4-0.9-0.6-1.6-0.6h-2.1
			v13.9H410.1z"/>
		<path class="st8" d="M417.8,651.5V669h-2v-17.5H417.8z"/>
		<path class="st8" d="M421.8,665.5l-0.7,3.5h-1.8l3.3-17.5h2.8l3.4,17.5h-2l-0.7-3.5H421.8z M422.1,663.8h3.9l-2-10.1L422.1,663.8z
			"/>
	</g>
	<g class="st7">
		<path class="st8" d="M52.6,454.3c1.4,0,2.3,0.4,3,1.2c0.6,0.8,1,1.9,1,3.2v1.6h-1.9v-1.7c0-0.8-0.2-1.4-0.5-1.9
			c-0.3-0.4-0.8-0.7-1.6-0.7c-0.7,0-1.2,0.2-1.6,0.7s-0.5,1.1-0.5,1.9v9.2c0,0.8,0.2,1.4,0.5,1.9c0.3,0.4,0.9,0.7,1.6,0.7
			c0.7,0,1.2-0.2,1.6-0.7c0.3-0.4,0.5-1.1,0.5-1.9v-2.3h1.9v2.2c0,1.3-0.3,2.4-1,3.2c-0.6,0.8-1.6,1.2-3,1.2c-1.3,0-2.3-0.4-3-1.2
			c-0.6-0.8-1-1.9-1-3.2v-9.1c0-0.7,0.1-1.3,0.2-1.8c0.2-0.5,0.4-1,0.7-1.4c0.3-0.4,0.7-0.7,1.2-0.9C51.4,454.4,52,454.3,52.6,454.3
			z"/>
		<path class="st8" d="M58.2,458.7c0-1.3,0.3-2.4,1-3.2c0.7-0.8,1.7-1.2,3-1.2s2.4,0.4,3,1.2c0.7,0.8,1,1.9,1,3.2v9.1
			c0,1.3-0.3,2.4-1,3.2c-0.7,0.8-1.7,1.2-3,1.2s-2.4-0.4-3-1.2c-0.7-0.8-1-1.9-1-3.2V458.7z M60.1,467.9c0,0.8,0.2,1.4,0.5,1.9
			c0.3,0.4,0.9,0.7,1.6,0.7c0.7,0,1.2-0.2,1.6-0.7c0.3-0.4,0.5-1.1,0.5-1.9v-9.2c0-0.8-0.2-1.4-0.5-1.9s-0.9-0.7-1.6-0.7
			c-0.7,0-1.2,0.2-1.6,0.7c-0.3,0.4-0.5,1.1-0.5,1.9V467.9z"/>
		<path class="st8" d="M69.9,467.9c0,0.8,0.2,1.4,0.5,1.9c0.3,0.4,0.8,0.7,1.6,0.7c0.7,0,1.2-0.2,1.5-0.7c0.3-0.4,0.5-1.1,0.5-1.9
			v-13.4h1.8v13.3c0,1.3-0.3,2.4-1,3.2c-0.6,0.8-1.6,1.2-3,1.2c-1.3,0-2.3-0.4-3-1.2c-0.6-0.8-1-1.9-1-3.2v-13.3h1.9V467.9z"/>
		<path class="st8" d="M79.5,472h-1.8v-17.5h2.5l4,12.7v-12.7H86V472h-2l-4.5-14.2V472z"/>
		<path class="st8" d="M90.5,472v-15.7h-3.2v-1.8h8.4v1.8h-3.2V472H90.5z"/>
		<path class="st8" d="M100.9,454.5c1.4,0,2.4,0.3,3,1s0.9,1.7,0.9,3v1.4c0,1-0.2,1.8-0.5,2.4c-0.4,0.6-0.9,1-1.7,1.2
			c0.8,0.2,1.4,0.7,1.7,1.3c0.3,0.6,0.5,1.4,0.5,2.4v2.7c0,0.4,0,0.8,0,1.1s0.1,0.7,0.3,1h-2c-0.1-0.2-0.2-0.5-0.2-0.8
			c0-0.3-0.1-0.7-0.1-1.3v-2.8c0-1-0.2-1.7-0.7-2c-0.4-0.4-1.1-0.6-1.9-0.6H99v7.5h-2v-17.5H100.9z M100.4,462.8
			c0.8,0,1.4-0.2,1.8-0.5s0.7-1,0.7-1.9v-1.7c0-0.8-0.2-1.4-0.5-1.8s-0.8-0.6-1.6-0.6H99v6.5H100.4z"/>
		<path class="st8" d="M108.8,454.5V472h-2v-17.5H108.8z"/>
		<path class="st8" d="M117.1,462.2v1.8h-4.3v6.2h5.2v1.8h-7.2v-17.5h7.2v1.8h-5.2v6H117.1z"/>
		<path class="st8" d="M123.5,454.3c1.3,0,2.3,0.4,3,1.2c0.6,0.8,1,1.9,1,3.2v0.5h-1.9v-0.6c0-0.8-0.2-1.4-0.5-1.8s-0.8-0.7-1.5-0.7
			c-0.7,0-1.2,0.2-1.5,0.7c-0.3,0.4-0.5,1-0.5,1.8c0,0.6,0.1,1.2,0.4,1.7c0.3,0.5,0.7,0.9,1.1,1.3c0.4,0.4,0.9,0.8,1.4,1.2
			c0.5,0.4,1,0.8,1.4,1.3c0.4,0.5,0.8,1,1.1,1.6c0.3,0.6,0.4,1.3,0.4,2.1c0,1.3-0.3,2.4-1,3.2c-0.6,0.8-1.6,1.2-3,1.2
			c-1.4,0-2.3-0.4-3-1.2c-0.6-0.8-1-1.9-1-3.2v-1h1.8v1.1c0,0.8,0.2,1.4,0.5,1.8s0.9,0.7,1.5,0.7c0.7,0,1.2-0.2,1.6-0.7
			c0.3-0.4,0.5-1,0.5-1.8c0-0.7-0.1-1.2-0.4-1.7c-0.3-0.5-0.7-0.9-1.1-1.3s-0.9-0.8-1.4-1.2s-1-0.8-1.4-1.3c-0.4-0.5-0.8-1-1.1-1.6
			s-0.4-1.3-0.4-2.1c0-1.4,0.3-2.4,1-3.2C121.2,454.7,122.2,454.3,123.5,454.3z"/>
	</g>
	<g class="st7">
		<path class="st8" d="M41.1,484.5c1.4,0,2.4,0.3,3,1c0.6,0.7,0.9,1.7,0.9,3v1.4c0,1-0.2,1.8-0.5,2.4c-0.4,0.6-0.9,1-1.6,1.2
			c0.8,0.2,1.4,0.7,1.7,1.3c0.3,0.6,0.5,1.4,0.5,2.4v2.7c0,0.4,0,0.8,0,1.1c0,0.4,0.1,0.7,0.3,1h-2c-0.1-0.2-0.2-0.5-0.2-0.8
			c-0.1-0.3-0.1-0.7-0.1-1.3v-2.8c0-1-0.2-1.7-0.7-2c-0.4-0.4-1.1-0.6-1.9-0.6h-1.4v7.5h-2v-17.5H41.1z M40.6,492.8
			c0.8,0,1.4-0.2,1.8-0.5c0.4-0.3,0.6-1,0.6-1.9v-1.7c0-0.8-0.2-1.4-0.5-1.8c-0.3-0.4-0.8-0.6-1.6-0.6h-1.9v6.5H40.6z"/>
		<path class="st8" d="M53.3,492.2v1.8H49v6.2h5.3v1.8h-7.2v-17.5h7.2v1.8H49v6H53.3z"/>
		<path class="st8" d="M59.9,484.5c1.4,0,2.4,0.4,3,1.1c0.6,0.8,0.9,1.8,0.9,3.1v2.1c0,1.4-0.3,2.5-1,3.2c-0.7,0.7-1.7,1.1-3.1,1.1
			H58v6.9h-2v-17.5H59.9z M59.7,493.3c0.7,0,1.3-0.2,1.6-0.5c0.4-0.4,0.5-1,0.5-1.8v-2.3c0-0.8-0.2-1.4-0.5-1.8s-0.8-0.6-1.5-0.6H58
			v7.1H59.7z"/>
		<path class="st8" d="M69.3,484.5c1.4,0,2.4,0.3,3,1s0.9,1.7,0.9,3v1.4c0,1-0.2,1.8-0.5,2.4c-0.4,0.6-0.9,1-1.7,1.2
			c0.8,0.2,1.4,0.7,1.7,1.3c0.3,0.6,0.5,1.4,0.5,2.4v2.7c0,0.4,0,0.8,0,1.1s0.1,0.7,0.3,1h-2c-0.1-0.2-0.2-0.5-0.2-0.8
			c0-0.3-0.1-0.7-0.1-1.3v-2.8c0-1-0.2-1.7-0.7-2c-0.4-0.4-1.1-0.6-1.9-0.6h-1.4v7.5h-2v-17.5H69.3z M68.8,492.8
			c0.8,0,1.4-0.2,1.8-0.5s0.7-1,0.7-1.9v-1.7c0-0.8-0.2-1.4-0.5-1.8s-0.8-0.6-1.6-0.6h-1.9v6.5H68.8z"/>
		<path class="st8" d="M81.5,492.2v1.8h-4.3v6.2h5.2v1.8h-7.2v-17.5h7.2v1.8h-5.2v6H81.5z"/>
		<path class="st8" d="M87.9,484.3c1.3,0,2.3,0.4,3,1.2c0.6,0.8,1,1.9,1,3.2v0.5H90v-0.6c0-0.8-0.2-1.4-0.5-1.8s-0.8-0.7-1.5-0.7
			c-0.7,0-1.2,0.2-1.5,0.7c-0.3,0.4-0.5,1-0.5,1.8c0,0.6,0.1,1.2,0.4,1.7c0.3,0.5,0.7,0.9,1.1,1.3c0.4,0.4,0.9,0.8,1.4,1.2
			c0.5,0.4,1,0.8,1.4,1.3c0.4,0.5,0.8,1,1.1,1.6c0.3,0.6,0.4,1.3,0.4,2.1c0,1.3-0.3,2.4-1,3.2c-0.6,0.8-1.6,1.2-3,1.2
			c-1.4,0-2.3-0.4-3-1.2c-0.6-0.8-1-1.9-1-3.2v-1h1.8v1.1c0,0.8,0.2,1.4,0.5,1.8s0.9,0.7,1.5,0.7c0.7,0,1.2-0.2,1.6-0.7
			c0.3-0.4,0.5-1,0.5-1.8c0-0.7-0.1-1.2-0.4-1.7c-0.3-0.5-0.7-0.9-1.1-1.3s-0.9-0.8-1.4-1.2s-1-0.8-1.4-1.3c-0.4-0.5-0.8-1-1.1-1.6
			s-0.4-1.3-0.4-2.1c0-1.4,0.3-2.4,1-3.2C85.7,484.7,86.6,484.3,87.9,484.3z"/>
		<path class="st8" d="M99.8,492.2v1.8h-4.3v6.2h5.2v1.8h-7.2v-17.5h7.2v1.8h-5.2v6H99.8z"/>
		<path class="st8" d="M104.3,502h-1.8v-17.5h2.5l4,12.7v-12.7h1.7V502h-2l-4.5-14.2V502z"/>
		<path class="st8" d="M115.3,502v-15.7h-3.2v-1.8h8.4v1.8h-3.2V502H115.3z"/>
		<path class="st8" d="M128.1,492.2v1.8h-4.3v6.2h5.2v1.8h-7.2v-17.5h7.2v1.8h-5.2v6H128.1z"/>
		<path class="st8" d="M135,484.5c1.4,0,2.4,0.4,3,1.2c0.6,0.8,1,1.8,1,3.2v8.8c0,1.4-0.3,2.4-1,3.2c-0.6,0.8-1.6,1.2-3,1.2h-4.1
			v-17.5H135z M134.9,500.2c0.7,0,1.2-0.2,1.6-0.6c0.3-0.4,0.5-1,0.5-1.8v-9c0-0.8-0.2-1.4-0.5-1.8c-0.3-0.4-0.9-0.6-1.6-0.6h-2.1
			v13.9H134.9z"/>
	</g>
	<g class="st7">
		<path class="st8" d="M296.3,233.2c0-3.1,0.7-5.4,2.1-7c1.4-1.6,3.6-2.4,6.6-2.4c2.8,0,4.9,0.8,6.4,2.4c1.4,1.6,2.2,3.8,2.2,6.8
			v0.9h-5.4v-1.3c0-1.3-0.3-2.2-0.8-2.8c-0.5-0.5-1.3-0.8-2.2-0.8c-1,0-1.8,0.3-2.3,0.9c-0.6,0.6-0.8,1.8-0.8,3.5v6.7
			c1-2.1,2.8-3.2,5.3-3.2c2.1,0,3.7,0.7,4.8,2.1c1.1,1.4,1.6,3.5,1.6,6.2v6.7c0,2.9-0.7,5.2-2.2,6.8c-1.5,1.6-3.6,2.4-6.4,2.4
			s-5-0.8-6.4-2.4c-1.5-1.6-2.2-3.8-2.2-6.8V233.2z M305,242c-0.9,0-1.6,0.3-2.2,0.8c-0.5,0.5-0.8,1.5-0.8,2.8v6.6
			c0,1.3,0.3,2.2,0.8,2.8c0.5,0.5,1.3,0.8,2.2,0.8c0.9,0,1.6-0.3,2.2-0.8c0.5-0.5,0.8-1.4,0.8-2.8v-6.6c0-1.3-0.3-2.2-0.8-2.8
			C306.6,242.3,305.9,242,305,242z"/>
		<path class="st8" d="M334,224.1v5l-8.4,31.4h-5.7l8.4-31.2h-11.4v-5.2H334z"/>
		<path class="st8" d="M349.2,233.1c0-1.6-0.3-2.7-0.8-3.3c-0.5-0.6-1.3-0.9-2.2-0.9c-0.9,0-1.6,0.3-2.2,0.8
			c-0.5,0.5-0.8,1.5-0.8,2.8v3.9h-5.4v-3.5c0-2.9,0.7-5.2,2.2-6.8c1.4-1.6,3.6-2.4,6.4-2.4c2.8,0,4.9,0.8,6.4,2.4
			c1.4,1.6,2.2,3.8,2.2,6.8c0,1.9-0.3,3.6-0.8,5.2c-0.6,1.5-1.3,2.9-2.1,4.2c-0.9,1.3-1.8,2.4-2.8,3.5c-1,1.1-1.9,2.1-2.8,3.1
			c-0.8,1-1.6,1.9-2.1,2.8c-0.6,0.9-0.8,1.9-0.8,2.9c0,0.3,0,0.6,0.1,0.8h10.8v5.2h-16.5V256c0-1.8,0.3-3.3,0.8-4.7
			c0.6-1.4,1.3-2.6,2.1-3.7c0.8-1.1,1.8-2.2,2.7-3.2c1-1,1.9-2,2.7-3.1c0.8-1.1,1.6-2.3,2.1-3.6
			C348.9,236.4,349.2,234.8,349.2,233.1z"/>
		<path class="st8" d="M371.6,248.8v3.4c0,1.3,0.3,2.2,0.8,2.8c0.5,0.5,1.3,0.8,2.2,0.8c0.9,0,1.6-0.3,2.2-0.8
			c0.5-0.5,0.8-1.4,0.8-2.8v-8c0-1.3-0.3-2.2-0.8-2.8c-0.5-0.5-1.3-0.8-2.2-0.8c-0.9,0-1.6,0.3-2.2,0.8c-0.5,0.5-0.8,1.5-0.8,2.8
			v1.1h-5.4l1-21.1h15.1v5.2h-9.9l-0.5,8.7c1.1-1.8,2.7-2.7,5-2.7c2.1,0,3.7,0.7,4.8,2.1c1.1,1.4,1.6,3.5,1.6,6.2v8.1
			c0,2.9-0.7,5.2-2.2,6.8c-1.4,1.6-3.6,2.4-6.4,2.4c-2.8,0-4.9-0.8-6.4-2.4c-1.4-1.6-2.2-3.8-2.2-6.8v-3H371.6z"/>
		<path class="st8" d="M386.7,233.2c0-3.1,0.7-5.4,2.1-7s3.6-2.4,6.6-2.4c2.8,0,4.9,0.8,6.4,2.4c1.4,1.6,2.2,3.8,2.2,6.8v0.9h-5.4
			v-1.3c0-1.3-0.3-2.2-0.8-2.8c-0.5-0.5-1.3-0.8-2.2-0.8c-1,0-1.8,0.3-2.3,0.9s-0.8,1.8-0.8,3.5v6.7c1-2.1,2.8-3.2,5.3-3.2
			c2.1,0,3.7,0.7,4.8,2.1c1.1,1.4,1.6,3.5,1.6,6.2v6.7c0,2.9-0.7,5.2-2.2,6.8c-1.5,1.6-3.6,2.4-6.4,2.4c-2.8,0-5-0.8-6.4-2.4
			c-1.5-1.6-2.2-3.8-2.2-6.8V233.2z M395.4,242c-0.9,0-1.6,0.3-2.2,0.8c-0.5,0.5-0.8,1.5-0.8,2.8v6.6c0,1.3,0.3,2.2,0.8,2.8
			c0.5,0.5,1.3,0.8,2.2,0.8c0.9,0,1.6-0.3,2.2-0.8c0.5-0.5,0.8-1.4,0.8-2.8v-6.6c0-1.3-0.3-2.2-0.8-2.8
			C397,242.3,396.3,242,395.4,242z"/>
		<path class="st8" d="M424.8,251.8c0,2.9-0.8,5.2-2.3,6.8c-1.5,1.6-3.7,2.4-6.7,2.4s-5.1-0.8-6.7-2.4c-1.5-1.6-2.3-3.8-2.3-6.8
			v-2.9c0-1.8,0.3-3.3,0.8-4.6c0.6-1.3,1.5-2.3,2.7-3c-2.4-1.3-3.5-3.7-3.5-7.3v-1.1c0-2.9,0.8-5.2,2.3-6.8c1.5-1.6,3.7-2.4,6.7-2.4
			s5.1,0.8,6.7,2.4c1.5,1.6,2.3,3.8,2.3,6.8v1.1c0,3.6-1.2,6-3.5,7.3c1.2,0.7,2.1,1.7,2.7,3c0.6,1.3,0.8,2.8,0.8,4.6V251.8z
			 M412.7,235.1c0,1.5,0.3,2.5,0.9,3c0.6,0.6,1.4,0.8,2.3,0.8c0.9,0,1.7-0.3,2.3-0.8c0.6-0.6,0.9-1.6,0.9-3v-2
			c0-1.6-0.3-2.7-0.9-3.3c-0.6-0.6-1.4-0.9-2.3-0.9s-1.7,0.3-2.3,0.9c-0.6,0.6-0.9,1.7-0.9,3.3V235.1z M412.7,251.6
			c0,1.6,0.3,2.7,0.9,3.3c0.6,0.6,1.4,0.8,2.3,0.8s1.7-0.3,2.3-0.8c0.6-0.6,0.9-1.6,1-3.3v-3.4c0-1.5-0.3-2.5-0.9-3.1
			c-0.6-0.6-1.4-1-2.4-1c-1,0-1.8,0.3-2.4,1c-0.6,0.6-0.9,1.7-0.9,3.1V251.6z"/>
	</g>
	<g class="st7">
		<path class="st8" d="M301.3,306.8l4.4-29.7h5.3l-5.6,36.4h-8.5l-5.6-36.4h5.8L301.3,306.8z"/>
		<path class="st8" d="M313.6,277.1h5.7v36.4h-5.7V277.1z"/>
		<path class="st8" d="M322.7,285.8c0-2.9,0.7-5.2,2.1-6.8c1.4-1.6,3.5-2.4,6.3-2.4c2.8,0,4.9,0.8,6.3,2.4c1.4,1.6,2.1,3.8,2.1,6.8
			v1.1h-5.4v-1.5c0-1.3-0.3-2.2-0.8-2.8c-0.5-0.5-1.2-0.8-2.1-0.8s-1.6,0.3-2.1,0.8c-0.5,0.5-0.8,1.5-0.8,2.8c0,1.2,0.3,2.3,0.8,3.3
			c0.6,1,1.2,1.9,2.1,2.7c0.8,0.8,1.7,1.7,2.7,2.5c1,0.9,1.8,1.8,2.7,2.8c0.8,1,1.5,2.1,2.1,3.4s0.8,2.8,0.8,4.5
			c0,2.9-0.7,5.2-2.2,6.8c-1.4,1.6-3.6,2.4-6.4,2.4c-2.8,0-4.9-0.8-6.4-2.4c-1.4-1.6-2.2-3.8-2.2-6.8v-2.2h5.4v2.6
			c0,1.3,0.3,2.2,0.8,2.8c0.5,0.5,1.3,0.8,2.2,0.8c0.9,0,1.6-0.3,2.2-0.8c0.5-0.5,0.8-1.4,0.8-2.8c0-1.2-0.3-2.3-0.8-3.3
			c-0.6-1-1.2-1.9-2.1-2.7c-0.8-0.8-1.7-1.7-2.7-2.5c-1-0.8-1.8-1.8-2.7-2.8c-0.8-1-1.5-2.1-2.1-3.4
			C323,289.1,322.7,287.6,322.7,285.8z"/>
		<path class="st8" d="M342.9,277.1h5.7v36.4h-5.7V277.1z"/>
		<path class="st8" d="M351.1,277.1h17.7v5.2h-6v31.2h-5.7v-31.2h-6V277.1z"/>
		<path class="st8" d="M370.8,285.8c0-2.9,0.7-5.2,2.2-6.8c1.5-1.6,3.6-2.4,6.4-2.4s5,0.8,6.4,2.4c1.5,1.6,2.2,3.8,2.2,6.8v18.9
			c0,2.9-0.7,5.2-2.2,6.8c-1.5,1.6-3.6,2.4-6.4,2.4s-5-0.8-6.4-2.4c-1.5-1.6-2.2-3.8-2.2-6.8V285.8z M376.5,305.1
			c0,1.3,0.3,2.2,0.8,2.8c0.5,0.5,1.3,0.8,2.2,0.8s1.6-0.3,2.2-0.8c0.5-0.5,0.8-1.5,0.8-2.8v-19.7c0-1.3-0.3-2.2-0.8-2.8
			c-0.5-0.5-1.3-0.8-2.2-0.8s-1.6,0.3-2.2,0.8c-0.5,0.5-0.8,1.5-0.8,2.8V305.1z"/>
		<path class="st8" d="M403.8,313.5c-0.1-0.2-0.1-0.5-0.2-0.7c-0.1-0.2-0.1-0.5-0.2-0.8c-0.1-0.3-0.1-0.7-0.1-1.2c0-0.5,0-1.1,0-1.8
			v-5.7c0-1.7-0.3-2.9-0.9-3.6c-0.6-0.7-1.5-1-2.9-1h-2v14.8h-5.7v-36.4h8.6c3,0,5.1,0.7,6.5,2.1c1.3,1.4,2,3.5,2,6.3v2.9
			c0,3.7-1.2,6.2-3.7,7.4c1.5,0.6,2.5,1.6,3,2.9c0.5,1.3,0.8,3,0.8,4.9v5.6c0,0.9,0,1.7,0.1,2.4c0.1,0.7,0.2,1.4,0.5,2.1H403.8z
			 M397.6,282.3v11.2h2.2c1.1,0,1.9-0.3,2.5-0.8c0.6-0.6,0.9-1.6,0.9-3v-3.6c0-1.3-0.2-2.3-0.7-2.9c-0.5-0.6-1.2-0.9-2.2-0.9H397.6z
			"/>
		<path class="st8" d="M412.1,285.8c0-2.9,0.7-5.2,2.1-6.8c1.4-1.6,3.5-2.4,6.3-2.4c2.8,0,4.9,0.8,6.3,2.4c1.4,1.6,2.1,3.8,2.1,6.8
			v1.1h-5.4v-1.5c0-1.3-0.3-2.2-0.8-2.8c-0.5-0.5-1.2-0.8-2.1-0.8s-1.6,0.3-2.1,0.8c-0.5,0.5-0.8,1.5-0.8,2.8c0,1.2,0.3,2.3,0.8,3.3
			c0.6,1,1.2,1.9,2.1,2.7c0.8,0.8,1.7,1.7,2.7,2.5c1,0.9,1.8,1.8,2.7,2.8c0.8,1,1.5,2.1,2.1,3.4s0.8,2.8,0.8,4.5
			c0,2.9-0.7,5.2-2.2,6.8c-1.4,1.6-3.6,2.4-6.4,2.4c-2.8,0-4.9-0.8-6.4-2.4c-1.4-1.6-2.2-3.8-2.2-6.8v-2.2h5.4v2.6
			c0,1.3,0.3,2.2,0.8,2.8c0.5,0.5,1.3,0.8,2.2,0.8c0.9,0,1.6-0.3,2.2-0.8c0.5-0.5,0.8-1.4,0.8-2.8c0-1.2-0.3-2.3-0.8-3.3
			c-0.6-1-1.2-1.9-2.1-2.7c-0.8-0.8-1.7-1.7-2.7-2.5c-1-0.8-1.8-1.8-2.7-2.8c-0.8-1-1.5-2.1-2.1-3.4
			C412.3,289.1,412.1,287.6,412.1,285.8z"/>
	</g>
</g>
</svg>
