<?xml version="1.0" encoding="utf-8"?>
<!-- Generator: Adobe Illustrator 22.0.1, SVG Export Plug-In . SVG Version: 6.00 Build 0)  -->
<svg version="1.1" id="Calque_1" xmlns="http://www.w3.org/2000/svg" xmlns:xlink="http://www.w3.org/1999/xlink" x="0px" y="0px"
	 viewBox="0 0 84 84" style="enable-background:new 0 0 84 84;" xml:space="preserve">
<style type="text/css">
	.st0{opacity:0.3818;fill:#FFFFFF;enable-background:new    ;}
	.st1{opacity:0.5042;fill:#FFFFFF;enable-background:new    ;}
	.st2{fill:#FFFFFF;}
</style>
<title>Group 4</title>
<desc>Created with Sketch.</desc>
<g id="headers">
	<g id="Header-Juin---Novembre" transform="translate(-1191.000000, -52.000000)">
		<g id="Achetez-billet" transform="translate(1165.000000, 34.000000)">
			<g id="Group-4" transform="translate(27.000000, 19.000000)">
				<path class="st0" d="M41,83C17.9,83-1,64.1-1,41C-1,17.9,17.9-1,41-1s42,18.8,42,42C82.9,64.1,64.1,83,41,83z M41,1
					c-22.1,0-40,18-40,40c0,22.1,18,40,40,40s40-18,40-40C81,18.9,63.1,1,41,1z"/>
				<path class="st1" d="M41.3,76.1l-0.4,0l0-0.9l0.4,0c0.5,0,1,0,1.5,0l0,0.9C42.3,76.1,41.8,76.1,41.3,76.1z M39,76
					c-0.6,0-1.3-0.1-1.9-0.2l0.1-0.9c0.6,0.1,1.2,0.1,1.9,0.2L39,76z M44.7,76L44.7,75c0.6-0.1,1.2-0.1,1.9-0.2l0.1,0.9
					C46,75.8,45.4,75.9,44.7,76z M35.2,75.6c-0.6-0.1-1.3-0.2-1.9-0.4l0.2-0.9c0.6,0.1,1.2,0.3,1.8,0.4L35.2,75.6z M48.5,75.4
					l-0.2-0.9c0.6-0.1,1.2-0.3,1.8-0.4l0.2,0.9C49.8,75.1,49.2,75.2,48.5,75.4z M31.4,74.7c-0.6-0.2-1.2-0.4-1.8-0.6l0.3-0.9
					c0.6,0.2,1.2,0.4,1.8,0.6L31.4,74.7z M52.3,74.4L52,73.5c0.6-0.2,1.2-0.4,1.8-0.6l0.3,0.9C53.5,74,52.9,74.2,52.3,74.4z
					 M27.8,73.4c-0.6-0.2-1.2-0.5-1.8-0.8l0.4-0.9c0.6,0.3,1.1,0.5,1.7,0.8L27.8,73.4z M55.8,73l-0.4-0.9c0.6-0.3,1.1-0.5,1.7-0.8
					l0.4,0.8C57,72.4,56.4,72.7,55.8,73z M24.3,71.7c-0.6-0.3-1.1-0.6-1.7-1l0.5-0.8c0.5,0.3,1.1,0.7,1.6,1L24.3,71.7z M59.2,71.2
					l-0.5-0.8c0.5-0.3,1.1-0.7,1.6-1l0.5,0.8C60.3,70.5,59.8,70.8,59.2,71.2z M21.1,69.6c-0.5-0.4-1-0.8-1.5-1.2l0.6-0.7
					c0.5,0.4,1,0.8,1.5,1.1L21.1,69.6z M62.4,69l-0.6-0.8c0.5-0.4,1-0.8,1.5-1.2l0.6,0.7C63.4,68.2,62.9,68.6,62.4,69z M18.1,67.2
					c-0.5-0.4-0.9-0.9-1.4-1.3l0.7-0.7c0.4,0.4,0.9,0.9,1.4,1.3L18.1,67.2z M65.4,66.5l-0.7-0.7c0.5-0.4,0.9-0.9,1.3-1.3l0.7,0.7
					C66.3,65.6,65.8,66.1,65.4,66.5z M15.4,64.5c-0.4-0.5-0.8-1-1.2-1.5l0.7-0.6c0.4,0.5,0.8,1,1.2,1.4L15.4,64.5z M68,63.7
					l-0.7-0.6c0.4-0.5,0.8-1,1.2-1.5l0.8,0.6C68.8,62.7,68.4,63.2,68,63.7z M13,61.5c-0.4-0.5-0.7-1.1-1.1-1.6l0.8-0.5
					c0.3,0.5,0.7,1,1,1.6L13,61.5z M70.3,60.6l-0.8-0.5c0.3-0.5,0.7-1,1-1.6l0.8,0.5C71,59.5,70.7,60.1,70.3,60.6z M10.9,58.2
					c-0.3-0.6-0.6-1.1-0.9-1.7l0.9-0.4c0.3,0.6,0.6,1.1,0.9,1.7L10.9,58.2z M72.3,57.3l-0.8-0.4c0.3-0.6,0.6-1.1,0.8-1.7l0.9,0.4
					C72.8,56.1,72.5,56.7,72.3,57.3z M9.2,54.8C9,54.2,8.7,53.6,8.5,53l0.9-0.3c0.2,0.6,0.4,1.2,0.7,1.7L9.2,54.8z M73.8,53.8
					l-0.9-0.3c0.2-0.6,0.4-1.2,0.6-1.8l0.9,0.3C74.3,52.6,74.1,53.2,73.8,53.8z M7.9,51.1c-0.2-0.6-0.3-1.2-0.5-1.9l0.9-0.2
					c0.1,0.6,0.3,1.2,0.5,1.8L7.9,51.1z M75,50.1l-0.9-0.2c0.2-0.6,0.3-1.2,0.4-1.8l0.9,0.2C75.3,48.9,75.2,49.5,75,50.1z M7.1,47.4
					c-0.1-0.6-0.2-1.3-0.3-1.9l0.9-0.1C7.8,46,7.9,46.6,8,47.2L7.1,47.4z M75.8,46.3l-0.9-0.1c0.1-0.6,0.2-1.2,0.2-1.9l0.9,0.1
					C75.9,45.1,75.9,45.7,75.8,46.3z M6.6,43.6c0-0.6-0.1-1.3-0.1-1.9l0.9,0c0,0.6,0,1.3,0.1,1.9L6.6,43.6z M76.1,42.5l-0.9,0
					c0-0.4,0-0.8,0-1.1c0-0.2,0-0.5,0-0.7l0.9,0c0,0.2,0,0.5,0,0.7C76.1,41.7,76.1,42.1,76.1,42.5z M7.5,39.8l-0.9,0
					c0-0.6,0.1-1.3,0.1-1.9l0.9,0.1C7.6,38.5,7.5,39.1,7.5,39.8z M75.1,38.7c0-0.6-0.1-1.2-0.2-1.9l0.9-0.1c0.1,0.6,0.1,1.3,0.2,1.9
					L75.1,38.7z M7.9,36l-0.9-0.1C7,35.3,7.2,34.6,7.3,34l0.9,0.2C8.1,34.8,8,35.4,7.9,36z M74.6,35c-0.1-0.6-0.2-1.2-0.4-1.8
					l0.9-0.2c0.2,0.6,0.3,1.2,0.4,1.9L74.6,35z M8.7,32.4l-0.9-0.2c0.2-0.6,0.4-1.2,0.6-1.8l0.9,0.3C9,31.2,8.8,31.8,8.7,32.4z
					 M73.7,31.4c-0.2-0.6-0.4-1.2-0.6-1.8l0.9-0.3c0.2,0.6,0.4,1.2,0.6,1.8L73.7,31.4z M9.9,28.8L9,28.5c0.2-0.6,0.5-1.2,0.8-1.8
					l0.9,0.4C10.3,27.7,10.1,28.2,9.9,28.8z M72.4,27.9c-0.2-0.6-0.5-1.1-0.8-1.7l0.8-0.4c0.3,0.6,0.6,1.2,0.8,1.7L72.4,27.9z
					 M11.4,25.4L10.6,25c0.3-0.6,0.6-1.1,1-1.7l0.8,0.5C12,24.3,11.7,24.9,11.4,25.4z M70.7,24.5c-0.3-0.5-0.6-1.1-1-1.6l0.8-0.5
					c0.3,0.5,0.7,1.1,1,1.6L70.7,24.5z M13.4,22.2l-0.8-0.5c0.4-0.5,0.7-1.1,1.1-1.6l0.8,0.6C14.1,21.2,13.7,21.7,13.4,22.2z
					 M68.7,21.4c-0.4-0.5-0.7-1-1.1-1.5l0.7-0.6c0.4,0.5,0.8,1,1.2,1.5L68.7,21.4z M15.7,19.3l-0.7-0.6c0.4-0.5,0.9-1,1.3-1.4
					l0.7,0.7C16.5,18.3,16.1,18.8,15.7,19.3z M66.3,18.5c-0.4-0.5-0.9-0.9-1.3-1.3l0.7-0.7c0.5,0.4,0.9,0.9,1.3,1.4L66.3,18.5z
					 M18.3,16.6l-0.6-0.7c0.5-0.4,1-0.9,1.4-1.3l0.6,0.7C19.2,15.7,18.7,16.1,18.3,16.6z M63.6,15.9c-0.5-0.4-0.9-0.8-1.4-1.2
					l0.6-0.7c0.5,0.4,1,0.8,1.5,1.2L63.6,15.9z M21.1,14.2l-0.6-0.8c0.5-0.4,1-0.8,1.6-1.1l0.5,0.8C22.1,13.4,21.6,13.8,21.1,14.2z
					 M60.7,13.6c-0.5-0.4-1-0.7-1.6-1l0.5-0.8c0.5,0.3,1.1,0.7,1.6,1.1L60.7,13.6z M24.3,12.1l-0.5-0.8c0.6-0.3,1.1-0.6,1.7-0.9
					l0.4,0.8C25.3,11.5,24.8,11.8,24.3,12.1z M57.5,11.6c-0.5-0.3-1.1-0.6-1.7-0.9l0.4-0.9c0.6,0.3,1.2,0.6,1.7,0.9L57.5,11.6z
					 M27.6,10.4l-0.4-0.9C27.8,9.3,28.4,9,29,8.8l0.3,0.9C28.7,9.9,28.1,10.1,27.6,10.4z M54.1,10c-0.6-0.2-1.2-0.5-1.8-0.7l0.3-0.9
					c0.6,0.2,1.2,0.4,1.8,0.7L54.1,10z M31.1,9.1l-0.3-0.9C31.4,8,32,7.8,32.6,7.6l0.2,0.9C32.3,8.7,31.7,8.9,31.1,9.1z M50.6,8.8
					c-0.6-0.2-1.2-0.3-1.8-0.5L49,7.4c0.6,0.1,1.3,0.3,1.9,0.5L50.6,8.8z M34.7,8.1l-0.2-0.9c0.6-0.1,1.3-0.2,1.9-0.3l0.1,0.9
					C35.9,7.9,35.3,8,34.7,8.1z M46.9,7.9c-0.6-0.1-1.2-0.2-1.9-0.3l0.1-0.9c0.6,0.1,1.3,0.2,1.9,0.3L46.9,7.9z M38.4,7.6l-0.1-0.9
					c0.6-0.1,1.3-0.1,1.9-0.1l0,0.9C39.6,7.5,39,7.5,38.4,7.6z M43.2,7.5c-0.6,0-1.2-0.1-1.9-0.1v-1c0.6,0,1.3,0,1.9,0.1L43.2,7.5z"
					/>
				<g id="Clip-2">
				</g>
			</g>
		</g>
	</g>
</g>
<path class="st2" d="M61.9,35.8l-4.7-9.9C57,25.3,56.4,25,55.9,25H29.4c-0.6,0-1.2,0.4-1.4,0.9l-3.9,9.9C24,36,24,36.2,24,36.4
	c0,2.6,1.7,4.9,4,5.8v15.4c0,0.8,0.7,1.4,1.5,1.4h27c0.8,0,1.5-0.6,1.5-1.4V42.2c2.4-0.9,4-3.2,4-5.8C62,36.2,62,36,61.9,35.8z
	 M30.4,27.9h24.5l0.8,1.7h-26L30.4,27.9z M50.8,56.1H35.1v-9.2h15.7V56.1z M55,56.1h-2.7v-9.9c0-0.4-0.3-0.7-0.7-0.7H34.4
	c-0.4,0-0.7,0.3-0.7,0.7v9.9H31V42.6c1.3-0.1,2.6-0.7,3.6-1.5c1.1,1,2.6,1.6,4.2,1.6c1.6,0,3.1-0.6,4.2-1.6c1.1,1,2.6,1.6,4.2,1.6
	c1.6,0,3.1-0.6,4.2-1.6c1,0.9,2.2,1.4,3.6,1.5V56.1z M55.7,39.7c-1.2,0-2.3-0.6-2.9-1.7c-0.3-0.5-0.8-0.7-1.3-0.7
	c-0.5,0-1,0.3-1.3,0.7c-0.6,1.1-1.7,1.7-2.9,1.7c-1.2,0-2.3-0.6-2.9-1.7c-0.5-0.9-2-0.9-2.6,0c-0.6,1.1-1.7,1.7-2.9,1.7
	c-1.2,0-2.3-0.6-2.9-1.7c-0.5-0.9-2-0.9-2.6,0c-0.6,1.1-1.7,1.7-2.9,1.7c-1.8,0-3.3-1.4-3.4-3.1l2.2-5.6h27.2l2.7,5.7
	C58.9,38.4,57.4,39.7,55.7,39.7z"/>
</svg>
