<?xml version="1.0" encoding="UTF-8"?>
<svg width="32px" height="43px" viewBox="0 0 32 43" version="1.1" xmlns="http://www.w3.org/2000/svg" xmlns:xlink="http://www.w3.org/1999/xlink">
    <!-- Generator: Sketch 48.2 (47327) - http://www.bohemiancoding.com/sketch -->
    <title>Page 1</title>
    <desc>Created with Sketch.</desc>
    <defs>
        <polygon id="path-1" points="0 0.2924 31.9987433 0.2924 31.9987433 42.99957 0 42.99957"></polygon>
        <polygon id="path-3" points="0 43 32 43 32 0 0 0"></polygon>
    </defs>
    <g id="Liste-des-exposants---single" stroke="none" stroke-width="1" fill="none" fill-rule="evenodd" transform="translate(-136.000000, -1345.000000)">
        <g id="Page-1" transform="translate(136.000000, 1345.000000)">
            <g id="Group-3">
                <mask id="mask-2" fill="white">
                    <use xlink:href="#path-1"></use>
                </mask>
                <g id="Clip-2"></g>
                <path d="M30.4052267,38.83287 C29.6948267,40.07127 27.5476267,40.508795 24.51616,40.025045 C22.5054933,39.706845 20.2590933,39.016695 17.9412267,38.01802 C18.61856,37.670795 19.2958933,37.30852 19.9678933,36.91937 C22.70176,35.327295 25.1614933,33.493345 27.1678933,31.599195 C30.1108267,34.65757 31.2276267,37.39667 30.4052267,38.83287 Z M6.55456,30.68007 C7.68309333,29.62012 9.02389333,28.53007 10.57376,27.456145 L10.57376,27.70232 L11.4132267,27.70232 L11.4132267,28.71927 L10.5726933,28.71927 L10.5726933,30.046895 L11.4132267,30.046895 L11.4132267,31.06492 L10.5726933,31.06492 L10.5726933,32.396845 L22.21856,32.396845 L22.21856,31.06707 L21.3790933,31.06707 L21.3790933,30.049045 L22.21856,30.049045 L22.21856,28.72142 L21.3790933,28.72142 L21.3790933,27.703395 L22.21856,27.703395 L22.21856,27.45722 C23.7620267,28.52792 25.0974933,29.612595 26.2228267,30.66932 C24.2974933,32.484995 21.9358933,34.239395 19.3108267,35.76697 C18.3380267,36.33242 17.35776,36.84627 16.3870933,37.31282 C15.4206933,36.845195 14.4500267,36.331345 13.4836267,35.76697 C10.6718933,34.129745 8.35402667,32.37857 6.55456,30.68007 Z M9.59989333,20.04187 C9.52309333,19.974145 9.44736,19.907495 9.37162667,19.842995 C7.22229333,17.85532 5.99029333,15.037745 5.99029333,12.11052 C5.99029333,6.32702 10.6580267,1.62282 16.39456,1.62282 C22.1310933,1.62282 26.7998933,6.32702 26.7998933,12.11052 C26.7998933,15.037745 25.56576,17.85532 23.4142933,19.84407 C23.3300267,19.91502 23.24576,19.99242 23.1614933,20.06767 L23.0942933,20.13002 C21.32896,21.74467 20.25056,23.99142 20.0820267,26.372545 L12.70816,26.372545 C12.53856,23.99572 11.46336,21.750045 9.68949333,20.12142 L9.59989333,20.04187 Z M12.73376,28.71927 L20.0606933,28.71927 L20.0606933,27.70232 L12.73376,27.70232 L12.73376,28.71927 Z M12.73376,31.06707 L20.0606933,31.06707 L20.0606933,30.051195 L12.73376,30.051195 L12.73376,31.06707 Z M30.4052267,22.530495 C31.2724267,24.04087 30.02656,26.772445 27.17536,29.732995 C25.61696,28.26992 23.7236267,26.80362 21.54656,25.41472 C21.84736,23.95272 22.55776,22.60037 23.5860267,21.515695 C27.07616,20.79222 29.62336,21.163095 30.4052267,22.530495 Z M10.5726933,38.765145 C11.36736,38.765145 12.0148267,39.414445 12.0148267,40.21747 C12.0148267,41.020495 11.3684267,41.671945 10.5726933,41.671945 C9.77802667,41.671945 9.13162667,41.020495 9.13162667,40.21747 C9.13162667,39.414445 9.77802667,38.765145 10.5726933,38.765145 Z M2.76042667,19.780645 C3.55509333,19.780645 4.20149333,20.432095 4.20149333,21.23297 C4.20149333,22.03492 3.55509333,22.68637 2.76042667,22.68637 C1.96576,22.68637 1.31936,22.03492 1.31936,21.23297 C1.31936,20.432095 1.96576,19.780645 2.76042667,19.780645 Z M31.5476267,21.866145 C30.6078933,20.22677 28.3700267,19.56887 25.1828267,19.920395 C27.0612267,17.770395 28.1204267,14.98722 28.1204267,12.109445 C28.1204267,5.592795 22.8596267,0.29197 16.39456,0.29197 C9.92949333,0.29197 4.67082667,5.59387 4.67082667,12.109445 C4.67082667,15.41507 6.06389333,18.595995 8.49269333,20.834145 L8.51722667,20.85672 C8.58762667,20.915845 8.65802667,20.978195 8.72949333,21.040545 L8.81162667,21.11257 C10.0606933,22.259595 10.9054933,23.77642 11.2436267,25.417945 C9.06336,26.80792 7.16469333,28.277445 5.60522667,29.74267 C3.46869333,27.51742 2.28682667,25.450195 2.14389333,23.93982 C2.34336,23.98497 2.54709333,24.013995 2.75936,24.013995 C4.28149333,24.013995 5.51989333,22.76592 5.51989333,21.23082 C5.51989333,19.696795 4.28149333,18.449795 2.75936,18.449795 C1.23722667,18.449795 -0.000106666667,19.69787 -0.000106666667,21.231895 C-0.000106666667,22.01342 0.322026667,22.715395 0.83616,23.222795 C0.623893333,25.28572 2.05642667,27.957095 4.66549333,30.674695 C1.39722667,34.058795 0.00416,37.33647 1.24362667,39.49937 C2.01696,40.84957 3.69269333,41.54832 6.06709333,41.54832 C6.68682667,41.54832 7.36629333,41.48597 8.07776,41.39137 C8.51829333,42.33952 9.46762667,42.99957 10.5726933,42.99957 C12.0948267,42.99957 13.3332267,41.75472 13.3332267,40.21747 C13.3332267,38.68452 12.0948267,37.43537 10.5726933,37.43537 C9.09642667,37.43537 7.89642667,38.61572 7.82602667,40.085245 C5.03456,40.452895 3.06122667,40.014295 2.38602667,38.833945 C1.56469333,37.402045 2.67829333,34.66617 5.61162667,31.61317 C7.55722667,33.452495 10.0062933,35.28107 12.8222933,36.920445 C16.78496,39.22632 20.86496,40.796895 24.3102933,41.342995 C25.1774933,41.48167 25.9828267,41.54832 26.7252267,41.54832 C29.09856,41.54832 30.7774933,40.84742 31.5476267,39.49937 C32.78496,37.33647 31.39296,34.05772 28.1246933,30.672545 C31.5070933,27.16482 32.7572267,23.977445 31.5476267,21.866145 Z" id="Fill-1" fill="#FFFFFF" mask="url(#mask-2)"></path>
            </g>
            <mask id="mask-4" fill="white">
                <use xlink:href="#path-3"></use>
            </mask>
            <g id="Clip-5"></g>
            <path d="M24,12 C24,8.13400675 20.8659932,5 17,5" id="Oval-2" stroke="#FFFFFF" stroke-width="1.39999998" stroke-linecap="round" stroke-linejoin="round" mask="url(#mask-4)"></path>
            <polygon id="Fill-4" fill="#FFFFFF" mask="url(#mask-4)" points="14 34 19 34 19 33 14 33"></polygon>
        </g>
    </g>
</svg>