<?xml version="1.0" encoding="UTF-8"?>
<svg width="35px" height="41px" viewBox="0 0 35 41" version="1.1" xmlns="http://www.w3.org/2000/svg" xmlns:xlink="http://www.w3.org/1999/xlink">
    <!-- Generator: Sketch 48.2 (47327) - http://www.bohemiancoding.com/sketch -->
    <title>Page 1</title>
    <desc>Created with Sketch.</desc>
    <defs>
        <polygon id="path-1" points="0 0 35 0 35 41 0 41"></polygon>
    </defs>
    <g id="Liste-des-exposants---single" stroke="none" stroke-width="1" fill="none" fill-rule="evenodd" transform="translate(-546.000000, -1347.000000)">
        <g id="Group-6" transform="translate(530.000000, 1333.000000)">
            <g id="Group-25-Copy-3">
                <g id="Page-1" transform="translate(16.000000, 14.000000)">
                    <mask id="mask-2" fill="white">
                        <use xlink:href="#path-1"></use>
                    </mask>
                    <g id="Clip-2"></g>
                    <path d="M28.6666199,36.1781852 C28.490837,36.8587585 27.7322955,37.6512068 27.0673775,37.8507173 C26.9145228,37.9085194 26.7291865,37.9737798 26.4444946,38.0576861 C25.9496275,38.2049883 25.3592262,38.354155 24.6732907,38.4921342 C22.6919115,38.8948844 20.3513238,39.1354158 17.666813,39.1354158 C14.9823022,39.1354158 12.6493572,38.8948844 10.6813528,38.497728 C9.99732802,38.3597488 9.41265877,38.2124466 8.9235237,38.067009 C8.64074249,37.9831028 8.45731684,37.9197069 8.37706812,37.888009 C7.61470527,37.6661234 6.84661036,36.8662168 6.66891676,36.1781852 L3.69780338,24.5748777 C4.55570043,24.7706591 5.49957825,24.9627112 6.55618641,25.1435759 C7.39688731,25.2890135 8.25860572,25.4176698 9.13369893,25.533274 L11.0061691,34.6641429 C11.109346,35.1694452 11.6118559,35.497612 12.1296512,35.3950599 C12.6474465,35.2943723 12.9837269,34.8039867 12.8786393,34.2986844 L11.1284529,25.7514303 C12.9378705,25.932295 14.8046086,26.0404409 16.7191138,26.0702742 L16.7191138,34.2949552 C16.7191138,34.8095804 17.147107,35.2272473 17.6744557,35.2272473 C18.2018045,35.2272473 18.6297976,34.8095804 18.6297976,34.2949552 L18.6297976,26.0702742 C20.5443029,26.0404409 22.4129517,25.932295 24.2223693,25.7514303 L22.4702722,34.2986844 C22.3651846,34.8039867 22.7014649,35.2943723 23.2192602,35.3950599 C23.7370556,35.497612 24.2414761,35.1694452 24.3427424,34.6641429 L26.2152125,25.533274 C27.0903057,25.4176698 27.9520241,25.2890135 28.792725,25.1435759 C29.8436011,24.9645758 30.7817469,24.7725236 31.6377333,24.5786069 L28.6666199,36.1781852 Z M2.41000247,19.0165522 C2.8914948,18.2781768 3.64430423,17.9313642 5.5282385,17.882885 C5.55880945,17.8847496 5.5874697,17.882885 5.61995133,17.8810204 C7.08735652,17.8511871 9.21585833,17.99476 12.4047897,18.2725831 C14.5332915,18.4590415 16.0331783,18.5653228 17.6343314,18.6305833 C22.9422111,18.8487396 26.7310972,18.0861247 28.9494011,16.7305719 C29.0143644,16.743624 29.0716849,16.7678636 29.1385588,16.7678636 C29.2531998,16.7678636 29.4805712,16.7809157 29.7805486,16.8182074 C30.2830584,16.8834678 30.7817469,17.0009367 31.2384004,17.1780722 C33.1643697,17.9257704 33.7566817,19.443542 32.2759017,22.510783 C32.0905654,22.5573976 31.8612833,22.6151997 31.5899662,22.6785956 C30.6804807,22.8930228 29.6315152,23.1074499 28.4640874,23.308825 C25.11848,23.8812524 21.4786273,24.2262005 17.6744557,24.2262005 C13.8702842,24.2262005 10.2323421,23.8812524 6.88673472,23.308825 C5.71739621,23.1074499 4.66843077,22.8930228 3.75894526,22.6785956 C3.35388029,22.5835018 3.07874181,22.5126476 2.87047727,22.45671 C2.75392556,22.3485642 2.61444564,22.201262 2.45776956,21.9868348 C1.80622637,21.0843761 1.68585329,20.1222506 2.41000247,19.0165522 Z M7.75991724,12.8205389 C9.63238741,12.3226949 12.5863046,12.3916845 18.1846083,12.9473306 C22.5543423,13.3799141 26.0528044,12.0691114 27.1170553,9.66006863 C31.7810346,13.9560706 28.979972,17.2284159 17.7145801,16.7678636 C16.14973,16.7044678 14.6746821,16.600051 12.5748405,16.4154572 C9.84065195,16.1767904 7.80959502,16.0238945 6.25429837,15.9996549 C5.62186201,14.1033728 6.09953298,13.2605807 7.75991724,12.8205389 Z M14.6441111,6.52756716 C16.8624151,6.74199434 18.9049361,6.09125445 19.8640994,4.82520177 C20.2901819,4.26209734 20.4659648,3.65424289 20.4067336,3.04265927 C24.0102834,4.76367049 25.7604698,6.74385892 25.5254557,8.38282844 C25.2656027,10.210121 22.4377906,11.4948195 18.3775874,11.0920693 C14.6842355,10.7266108 12.1009909,10.5625274 10.14254,10.6371108 C9.28846432,7.67055728 11.0577576,6.18075449 14.6441111,6.52756716 Z M31.9453534,15.4440088 C31.5154495,15.2780608 31.0950991,15.1661858 30.6957661,15.0841441 C31.9740136,13.021914 30.9919221,10.3014856 27.5125669,7.51020303 C27.4819959,7.48223427 27.4418716,7.47477593 27.4074792,7.45426551 C26.9718433,4.67230587 23.6415214,1.96306501 17.9897186,0.0388141108 C17.962969,0.0294911898 17.9362194,0.0350849424 17.9094698,0.0276266055 C17.8445066,0.0127099319 17.7833647,0.00525159505 17.7184015,0.00152242663 C17.6572596,-0.000342157577 17.5999391,-0.00220674179 17.5407079,0.00711617926 C17.479566,0.0145745161 17.4241561,0.031355774 17.3649249,0.0518662003 C17.3076044,0.0723766265 17.2521946,0.0910224686 17.2006061,0.1227204 C17.1490177,0.152553748 17.1031613,0.187980847 17.0573048,0.227137116 C17.0076271,0.268157968 16.9636813,0.311043405 16.923557,0.363251763 C16.9082715,0.383762189 16.8834326,0.396814279 16.8681471,0.419189289 C16.8471296,0.450887221 16.8452189,0.486314321 16.8280228,0.518012252 C16.8127373,0.551574768 16.7859877,0.575814363 16.7726129,0.611241463 C16.7630595,0.637345642 16.7687916,0.663449821 16.7611488,0.689554 C16.7458634,0.752949863 16.7382206,0.812616557 16.7343993,0.87601242 C16.7324886,0.935679115 16.7305779,0.991616641 16.7401313,1.04941875 C16.7496847,1.10908545 16.7649702,1.16315839 16.7859877,1.21909591 C16.8070053,1.27689803 16.8280228,1.33097097 16.8585937,1.38131474 C16.8891647,1.43165851 16.9254677,1.47640854 16.965592,1.52115856 C17.0076271,1.56777316 17.0515728,1.61252318 17.1050719,1.64981487 C17.1260895,1.66659612 17.1394642,1.69083572 17.1623925,1.70575239 C18.4788536,2.52057569 18.7234212,3.19369059 18.3279096,3.71577417 C17.817757,4.38888907 16.440154,4.82893094 14.8313582,4.67230587 C10.1234332,4.21548274 7.15231978,6.63757762 8.19173179,10.8235692 C7.86309417,10.8795067 7.54974202,10.9429026 7.25740739,11.0212151 C4.64932394,11.7129758 3.62519739,13.4395808 4.29011537,16.0611862 C2.43101999,16.24578 1.57503362,16.8275303 0.799295982,18.0134059 C-0.387238687,19.8257817 -0.167510045,21.591543 0.898651542,23.0626999 C1.1164695,23.3647626 1.32664472,23.5885127 1.52153448,23.7731065 L4.81555343,36.6294146 C5.15374447,37.9532694 6.41861718,39.2659367 7.7522745,39.6463119 C8.13632196,39.8010724 9.01714721,40.0658433 10.293484,40.3231559 C12.3875935,40.7464165 14.8523757,41 17.666813,41 C20.4850717,41 22.9555859,40.744552 25.0611595,40.3194268 C26.3432283,40.058385 27.2297856,39.793614 27.7055459,39.6090202 C28.9398477,39.2379679 30.1837029,37.9402173 30.5199832,36.6294146 L33.8503052,23.6313981 C36.0093779,19.3931982 34.9890728,16.6261552 31.9453534,15.4440088 Z" id="Fill-1" fill="#FFFFFF" mask="url(#mask-2)"></path>
                </g>
            </g>
        </g>
    </g>
</svg>