<?xml version="1.0" encoding="UTF-8"?>
<svg width="43px" height="35px" viewBox="0 0 43 35" version="1.1" xmlns="http://www.w3.org/2000/svg" xmlns:xlink="http://www.w3.org/1999/xlink">
    <!-- Generator: Sketch 48.2 (47327) - http://www.bohemiancoding.com/sketch -->
    <title>wifi</title>
    <desc>Created with Sketch.</desc>
    <defs>
        <polygon id="path-1" points="0 0.0255144928 42.7611111 0.0255144928 42.7611111 11.3878333 0 11.3878333"></polygon>
        <polygon id="path-3" points="0.214952222 0.291565217 8.09828556 0.291565217 8.09828556 8.62318841 0.214952222 8.62318841"></polygon>
    </defs>
    <g id="Liste-des-exposants---single" stroke="none" stroke-width="1" fill="none" fill-rule="evenodd" transform="translate(-734.000000, -1350.000000)">
        <g id="Group-6" transform="translate(720.000000, 1333.000000)">
            <g id="Group-25-Copy-3">
                <g id="wifi" transform="translate(14.000000, 17.000000)">
                    <g id="Page-1">
                        <path d="M37.1474133,18.590529 C36.8602689,18.590529 36.5258244,18.4890797 36.2869356,18.2354565 C28.02138,9.4600942 14.6436022,9.4600942 6.37852444,18.2354565 C5.90074667,18.7427029 5.18408,18.7427029 4.70630222,18.2354565 C4.22852444,17.7282101 4.22852444,16.9673406 4.70630222,16.4600942 C13.8796356,6.72096377 28.7863022,6.72096377 37.9591578,16.4600942 C38.4369356,16.9673406 38.4369356,17.7282101 37.9591578,18.2354565 C37.7685244,18.4890797 37.48138,18.590529 37.1474133,18.590529" id="Fill-1" fill="#FFFFFF"></path>
                        <path d="M31.4616667,24.7282609 C31.175,24.7282609 30.8405556,24.6268116 30.6016667,24.3731884 C28.2127778,21.8369565 25.0116667,20.4166667 21.6194444,20.4166667 C18.2272222,20.4166667 15.0738889,21.8369565 12.6372222,24.3731884 C12.1594444,24.8804348 11.4427778,24.8804348 10.965,24.3731884 C10.4872222,23.865942 10.4872222,23.1050725 10.965,22.5978261 C13.7838889,19.6050725 17.6061111,17.9311594 21.6194444,17.9311594 C25.6327778,17.9311594 29.4072222,19.6050725 32.2738889,22.5978261 C32.7516667,23.1050725 32.7516667,23.865942 32.2738889,24.3731884 C32.0827778,24.6268116 31.7483333,24.7282609 31.4616667,24.7282609" id="Fill-3" fill="#FFFFFF"></path>
                        <g id="Group-7" transform="translate(0.000000, 0.481783)">
                            <mask id="mask-2" fill="white">
                                <use xlink:href="#path-1"></use>
                            </mask>
                            <g id="Clip-6"></g>
                            <path d="M41.5425867,11.362471 C41.25592,11.362471 40.9214756,11.2610217 40.6825867,11.0073986 C30.0281422,-0.304195652 12.6852867,-0.304195652 2.03036444,11.0073986 C1.55258667,11.5146449 0.83592,11.5146449 0.358142222,11.0073986 C-0.119635556,10.5001522 -0.119635556,9.73928261 0.358142222,9.23203623 C11.9203644,-3.04332609 30.7925867,-3.04332609 42.4030644,9.23203623 C42.8808422,9.73928261 42.8808422,10.5001522 42.4030644,11.0073986 C42.1641756,11.2610217 41.8297311,11.362471 41.5425867,11.362471" id="Fill-5" fill="#FFFFFF" mask="url(#mask-2)"></path>
                        </g>
                        <g id="Group-10" transform="translate(17.677778, 26.351348)">
                            <mask id="mask-4" fill="white">
                                <use xlink:href="#path-3"></use>
                            </mask>
                            <g id="Clip-9"></g>
                            <path d="M4.18050778,2.73902899 C3.75050778,2.73902899 3.36828556,2.8912029 3.03384111,3.24627536 C2.41273,3.90569565 2.41273,4.97091304 3.03384111,5.63033333 C3.65495222,6.28975362 4.70606333,6.28975362 5.27939667,5.63033333 C5.90050778,4.97091304 5.90050778,3.90569565 5.27939667,3.24627536 C4.99273,2.8912029 4.61050778,2.73902899 4.18050778,2.73902899 M4.18050778,8.6235942 C3.12939667,8.6235942 2.12606333,8.16656522 1.36161889,7.40569565 C-0.16727,5.78250725 -0.16727,3.09410145 1.36161889,1.47091304 C2.84273,-0.101550725 5.47050778,-0.101550725 6.95161889,1.47091304 C8.48050778,3.09410145 8.48050778,5.78250725 6.95161889,7.40569565 C6.23495222,8.16656522 5.23161889,8.6235942 4.18050778,8.6235942" id="Fill-8" fill="#FFFFFF" mask="url(#mask-4)"></path>
                        </g>
                    </g>
                </g>
            </g>
        </g>
    </g>
</svg>