<?xml version="1.0" encoding="UTF-8"?>
<svg width="28px" height="45px" viewBox="0 0 28 45" version="1.1" xmlns="http://www.w3.org/2000/svg" xmlns:xlink="http://www.w3.org/1999/xlink">
    <!-- Generator: Sketch 48.2 (47327) - http://www.bohemiancoding.com/sketch -->
    <title>Page 1</title>
    <desc>Created with Sketch.</desc>
    <defs>
        <polygon id="path-1" points="0.000136585366 0.0705 27.9994537 0.0705 27.9994537 44.0625 0.000136585366 44.0625"></polygon>
    </defs>
    <g id="Liste-des-exposants---single" stroke="none" stroke-width="1" fill="none" fill-rule="evenodd" transform="translate(-382.000000, -1344.000000)">
        <g id="Page-1" transform="translate(382.000000, 1344.000000)">
            <g id="Group-3">
                <mask id="mask-2" fill="white">
                    <use xlink:href="#path-1"></use>
                </mask>
                <g id="Clip-2"></g>
                <path d="M14.0684293,29.8970841 C7.44403902,29.8970841 1.63916098,21.0167957 1.63916098,13.9667957 C1.63916098,7.18794952 7.23916098,1.62929567 14.0684293,1.62929567 C20.8976976,1.62929567 26.4976976,7.18794952 26.4976976,13.9667957 C26.4294049,21.0167957 20.6245268,29.8970841 14.0684293,29.8970841 Z M16.3500878,32.6201466 L14.0001366,32.6764111 L14.6147707,31.3206418 C14.9562341,31.3206418 15.2656,31.278613 15.5708683,31.1850649 L16.3500878,32.6201466 Z M27.9994537,13.9667957 C27.9994537,6.30669952 21.7172098,0.0701610577 14.0001366,0.0701610577 C6.28306341,0.0701610577 0.000136585366,6.30669952 0.000136585366,13.9667957 C0.000136585366,21.4235264 5.80501463,30.4393918 12.839161,31.3206418 L12.3611122,32.6764111 C12.2928195,32.9475649 12.2928195,33.3542957 12.4294049,33.5576611 C12.5659902,33.7610264 12.839161,34.0321803 13.044039,34.0321803 L14.6147707,34.0321803 C14.6830634,34.7100649 14.6830634,38.3028534 13.2489171,43.1158341 C12.9395512,44.2648486 14.4303805,44.3278918 14.6830634,43.5225649 C16.1855024,38.5740072 16.1855024,35.3879495 16.1172098,34.0321803 L17.2098927,34.0321803 C17.4830634,34.0321803 17.7562341,33.7610264 17.8928195,33.4898726 C18.0294049,33.2187187 18.0294049,32.8797764 17.8928195,32.6764111 L17.0050146,30.9139111 C23.2189659,28.8802572 27.9994537,20.7456418 27.9994537,13.9667957 Z" id="Fill-1" fill="#FFFFFF" mask="url(#mask-2)"></path>
            </g>
            <path d="M23.4223024,15 C23.7833634,15 24,14.9331862 24,14.6659309 C23.638939,6.84871405 16.8509926,4.04253364 16.7787804,4.04253364 C16.4899316,3.908906 16.2010828,4.10934746 16.0566584,4.37660274 C15.912234,4.64385801 16.0566584,4.97792711 16.3455072,5.04474093 C16.634356,5.17836857 22.6272461,7.58366606 22.9168171,14.7327447 C22.9168171,14.9331862 23.1334536,15 23.4223024,15" id="Fill-4" fill="#FFFFFF"></path>
        </g>
    </g>
</svg>